/* XPM */
static char *user[] =
{
/* width height ncolors chars_per_pixel */
"16 16 9 1",
/* colors */
"A c #FFFFFFFFFFFF",
"B c #FFFFFFFFCCCC",
"C c #FFFFCCCC9999",
"D c #CCCC99996666",
"E c #99999999FFFF",
"F c #66666666CCCC",
"G c #333333336666",
"H c #DDDDDDDDDDDD",
"I c #000000000000",
/* pixels */
"HHHHHHHHHHHHHHHH",
"HHHHHHHHIIIIIIIH",
"HHHHHHHIBBBBBBCI",
"HHHHHHHIBCCCCCDI",
"HHHHHHHIBCCCICDI",
"HHHIIIIIBCCCICDI",
"HHHIAAAIBCCCCCDI",
"HIIIIIIIIICCCIII",
"ICCECCCECCIICCIH",
"ICDFCDDFDDICIIIH",
"ICDFDDDFDDICCDIH",
"ICDFDDDFDDIIIIHH",
"ICDFDDDFDDIHHHHH",
"ICDGDDDGDDIHHHHH",
"HIIIIIIIIIHHHHHH",
"HHHHHHHHHHHHHHHH",
};
