#define CodeViewIcon_width 48
#define CodeViewIcon_height 56
static unsigned char CodeViewIcon_bits[] = {
  0x00, 0x00, 0x00, 0x00, 0x00, 0x00, 0x00, 0x00, 0x00, 0x00, 0x00, 0x00,
  0x20, 0x05, 0x00, 0x00, 0x00, 0x00, 0x10, 0x05, 0x00, 0x00, 0x00, 0x00,
  0x90, 0x0f, 0x00, 0x00, 0x00, 0x00, 0x08, 0x05, 0x00, 0x00, 0x00, 0x00,
  0x88, 0x0f, 0x00, 0x00, 0x00, 0x00, 0x08, 0x05, 0x00, 0x00, 0x00, 0x00,
  0x10, 0x85, 0x24, 0x00, 0x00, 0x00, 0x10, 0x00, 0x00, 0x00, 0x00, 0x00,
  0x20, 0x00, 0x00, 0x00, 0x00, 0x00, 0x00, 0x00, 0x00, 0x00, 0x00, 0x00,
  0x00, 0x00, 0x00, 0x00, 0x00, 0x00, 0x00, 0x00, 0x00, 0x00, 0x00, 0x00,
  0x00, 0x00, 0x00, 0x00, 0x00, 0x00, 0x00, 0x80, 0x14, 0x00, 0x15, 0x00,
  0x00, 0x40, 0x14, 0x00, 0x25, 0x00, 0xf0, 0x48, 0x3e, 0x80, 0x2f, 0x02,
  0x20, 0x21, 0x14, 0x00, 0x45, 0x00, 0x20, 0x21, 0x3e, 0x80, 0x4f, 0x00,
  0x20, 0x21, 0x14, 0x00, 0x45, 0x00, 0xe0, 0x48, 0x94, 0x24, 0x25, 0x03,
  0x20, 0x40, 0x00, 0x00, 0x20, 0x02, 0x20, 0x80, 0x00, 0x00, 0x10, 0x00,
  0x70, 0x00, 0x00, 0x00, 0x00, 0x00, 0x00, 0x00, 0x00, 0x00, 0x00, 0x00,
  0x00, 0x00, 0x00, 0x00, 0x00, 0x00, 0x00, 0x00, 0x00, 0x00, 0x00, 0x00,
  0x60, 0x00, 0x00, 0x00, 0x00, 0x00, 0x40, 0x00, 0x00, 0x00, 0x00, 0x00,
  0x70, 0x06, 0xc0, 0x47, 0x00, 0x00, 0x48, 0x09, 0x00, 0x09, 0x00, 0x00,
  0x48, 0x09, 0x00, 0x09, 0x00, 0x00, 0x48, 0x09, 0x00, 0x09, 0x00, 0x00,
  0xb0, 0x06, 0x69, 0x67, 0x12, 0x00, 0x00, 0x00, 0x40, 0x41, 0x00, 0x00,
  0x00, 0x00, 0x00, 0x01, 0x00, 0x00, 0x00, 0x00, 0x80, 0x03, 0x00, 0x00,
  0x00, 0x00, 0x00, 0x00, 0x00, 0x00, 0x00, 0x00, 0x00, 0x00, 0x00, 0x00,
  0x00, 0x00, 0x00, 0x00, 0x00, 0x00, 0x50, 0x01, 0x00, 0x00, 0x00, 0x00,
  0x50, 0x02, 0x00, 0x00, 0x00, 0x00, 0xf8, 0x02, 0x00, 0x00, 0x00, 0x00,
  0x50, 0x04, 0x00, 0x00, 0x00, 0x00, 0xf8, 0x04, 0x00, 0x00, 0x00, 0x00,
  0x50, 0x04, 0x00, 0x00, 0x00, 0x00, 0x50, 0x02, 0x00, 0x00, 0x00, 0x00,
  0x00, 0x02, 0x00, 0x00, 0x00, 0x00, 0x00, 0x01, 0x00, 0x00, 0x00, 0x00,
  0x00, 0x00, 0x00, 0x00, 0x00, 0x00, 0x00, 0x00, 0x00, 0x00, 0x00, 0x00,
  0x00, 0x00, 0x00, 0x00, 0x00, 0x00, 0x00, 0x00, 0x00, 0x00, 0x00, 0x00,
  0x00, 0x00, 0x00, 0x00, 0x00, 0x00, 0x00, 0x00, 0x00, 0x00, 0x00, 0x00,
  };
