#define ObjectViewIcon_width 48
#define ObjectViewIcon_height 56
static unsigned char ObjectViewIcon_bits[] = {
  0x00, 0x00, 0x00, 0x00, 0x00, 0x00, 0x00, 0x00, 0x00, 0x00, 0x00, 0x00,
  0x00, 0x00, 0x00, 0x00, 0x00, 0x00, 0x00, 0x00, 0x00, 0x00, 0x00, 0x00,
  0x00, 0x00, 0x00, 0x00, 0x00, 0x00, 0x00, 0x00, 0x00, 0x00, 0x00, 0x00,
  0x00, 0x00, 0x00, 0x00, 0x00, 0x00, 0x10, 0x00, 0x80, 0x60, 0x00, 0x80,
  0x10, 0x00, 0x80, 0x10, 0x00, 0x80, 0x78, 0x04, 0x40, 0x78, 0x0c, 0x43,
  0x10, 0x04, 0x00, 0x10, 0x92, 0x04, 0x10, 0x00, 0x00, 0x10, 0x92, 0x04,
  0x90, 0x04, 0x00, 0x10, 0x92, 0x04, 0x60, 0x04, 0x00, 0x78, 0x0c, 0x03,
  0x00, 0x00, 0x00, 0x00, 0x00, 0x00, 0x00, 0x00, 0x00, 0x00, 0x00, 0x00,
  0x00, 0x00, 0x00, 0x00, 0x00, 0x00, 0x00, 0x00, 0x00, 0x00, 0x00, 0x00,
  0x00, 0x00, 0x00, 0x00, 0x00, 0x00, 0x00, 0x00, 0x80, 0x30, 0x0c, 0x00,
  0x00, 0x00, 0xe0, 0x48, 0x12, 0x00, 0x6c, 0x04, 0x80, 0x40, 0x10, 0x00,
  0x28, 0x04, 0x80, 0x20, 0x0c, 0x00, 0x10, 0x00, 0x80, 0x10, 0x10, 0x00,
  0x28, 0x04, 0x80, 0x08, 0x12, 0x00, 0x6c, 0x04, 0xe0, 0x79, 0x0c, 0x00,
  0x00, 0x00, 0x00, 0x00, 0x00, 0x00, 0x00, 0x00, 0x00, 0x00, 0x00, 0x00,
  0x00, 0x00, 0x00, 0x00, 0x00, 0x00, 0x00, 0x00, 0x00, 0x00, 0x00, 0x00,
  0x00, 0x00, 0x00, 0x00, 0x00, 0x00, 0x00, 0x00, 0x00, 0x00, 0x00, 0x00,
  0x00, 0x00, 0xb0, 0x33, 0xfb, 0x07, 0x6c, 0x04, 0x20, 0x49, 0x92, 0x04,
  0x48, 0x04, 0x60, 0x49, 0x96, 0x03, 0x48, 0x00, 0xa0, 0x49, 0x9a, 0x00,
  0x48, 0x04, 0x20, 0x49, 0x92, 0x04, 0x30, 0x04, 0x30, 0x31, 0xd3, 0x07,
  0x10, 0x00, 0x00, 0x00, 0x00, 0x00, 0x0c, 0x00, 0x00, 0x00, 0x00, 0x00,
  0x00, 0x00, 0x00, 0x00, 0x00, 0x00, 0x00, 0x00, 0x00, 0x00, 0x00, 0x00,
  0x00, 0x00, 0x00, 0x00, 0x00, 0x00, 0x00, 0x00, 0x00, 0x00, 0x00, 0x00,
  0x00, 0x00, 0x00, 0x00, 0x00, 0x00, 0x00, 0x00, 0x00, 0x00, 0x00, 0x00,
  0x00, 0x00, 0x00, 0x00, 0x00, 0x00, 0x00, 0x00, 0x00, 0x00, 0x00, 0x00,
  0x00, 0x00, 0x00, 0x00, 0x00, 0x00, 0x00, 0x00, 0x00, 0x00, 0x00, 0x00,
  0x00, 0x00, 0x00, 0x00, 0x00, 0x00, 0x00, 0x00, 0x00, 0x00, 0x00, 0x00,
  0x00, 0x00, 0x00, 0x00, 0x00, 0x00, 0x00, 0x00, 0x00, 0x00, 0x00, 0x00,
  0x00, 0x00, 0x00, 0x00, 0x00, 0x00, 0x00, 0x00, 0x00, 0x00, 0x00, 0x00,
  };
