#define PersistentStoreIcon_width 48
#define PersistentStoreIcon_height 56
static unsigned char PersistentStoreIcon_bits[] = {
  0x00, 0x00, 0x00, 0x00, 0x00, 0x00, 0x00, 0x00, 0x00, 0x00, 0x7f, 0x00,
  0x78, 0x1c, 0xf8, 0xbf, 0x81, 0x01, 0x90, 0x02, 0x0d, 0xe0, 0x00, 0x01,
  0x90, 0x0c, 0x05, 0x0f, 0x00, 0x02, 0x70, 0x10, 0x84, 0x1a, 0x00, 0x06,
  0x10, 0x12, 0x45, 0x20, 0x00, 0x08, 0x38, 0x0e, 0xa5, 0x6a, 0xc0, 0x18,
  0x00, 0x00, 0x24, 0x40, 0x20, 0x11, 0x00, 0x00, 0xa4, 0x6a, 0x10, 0x12,
  0x00, 0xf0, 0x23, 0x40, 0x10, 0x12, 0x00, 0x1f, 0xc0, 0x2a, 0x20, 0x11,
  0x80, 0x01, 0x80, 0x10, 0xc0, 0x18, 0xc0, 0x00, 0x00, 0x0f, 0x40, 0x08,
  0x40, 0x00, 0xc0, 0x00, 0x40, 0x0c, 0x60, 0x00, 0x30, 0x00, 0x20, 0x04,
  0x20, 0xc0, 0x0c, 0x00, 0x20, 0x06, 0x20, 0x20, 0x03, 0x00, 0x20, 0x03,
  0x30, 0x10, 0x02, 0x00, 0x20, 0x01, 0x10, 0x10, 0x06, 0x00, 0x10, 0x01,
  0x10, 0x20, 0x39, 0x00, 0x10, 0x01, 0x10, 0xc0, 0xc0, 0x01, 0x18, 0x01,
  0x30, 0x40, 0x00, 0x1e, 0x24, 0x03, 0x20, 0x40, 0x00, 0xe0, 0x42, 0x02,
  0x20, 0x40, 0x00, 0x00, 0x43, 0x06, 0x20, 0x40, 0x00, 0x00, 0x42, 0x04,
  0x20, 0x20, 0x00, 0x00, 0x24, 0x04, 0x20, 0x20, 0x00, 0x00, 0x18, 0x04,
  0x20, 0x20, 0x00, 0x00, 0x08, 0x04, 0x20, 0x20, 0x00, 0x60, 0x10, 0x04,
  0x20, 0x20, 0x00, 0x90, 0x10, 0x04, 0x10, 0x30, 0x00, 0x0e, 0x11, 0x04,
  0x10, 0x48, 0xe0, 0x09, 0x21, 0x04, 0x10, 0x84, 0x1e, 0x90, 0x20, 0x04,
  0x10, 0x84, 0x01, 0x6c, 0x20, 0x04, 0x08, 0x48, 0x00, 0x02, 0x20, 0x04,
  0x08, 0xb0, 0x81, 0x01, 0x40, 0x0c, 0x08, 0x00, 0x46, 0x00, 0x40, 0x08,
  0x0c, 0x00, 0xb8, 0x01, 0x40, 0x08, 0x04, 0x00, 0x68, 0x02, 0x80, 0x18,
  0x04, 0x00, 0x26, 0x04, 0xc0, 0x10, 0x04, 0x00, 0x21, 0xfc, 0x3f, 0x11,
  0x0c, 0xc0, 0x40, 0x02, 0x10, 0x12, 0x08, 0x20, 0x80, 0x01, 0x10, 0x12,
  0x08, 0x18, 0x00, 0x00, 0x20, 0x11, 0x08, 0x06, 0x00, 0x00, 0xc0, 0x10,
  0x08, 0x09, 0x00, 0x00, 0x00, 0x10, 0x88, 0x10, 0x00, 0x00, 0x00, 0x10,
  0x88, 0x10, 0x00, 0x00, 0x18, 0x10, 0x08, 0x09, 0x00, 0x00, 0x3e, 0x18,
  0x18, 0x06, 0x00, 0x80, 0x63, 0x08, 0x10, 0x00, 0x00, 0x70, 0xc0, 0x0f,
  0xf0, 0x01, 0xfe, 0x1f, 0x00, 0x00, 0x00, 0xff, 0x03, 0x00, 0x00, 0x00,
  0x00, 0x00, 0x00, 0x00, 0x00, 0x00, 0x00, 0x00, 0x00, 0x00, 0x00, 0x00,
  };
