#define StackViewIcon_width 48
#define StackViewIcon_height 56
static unsigned char StackViewIcon_bits[] = {
  0xff, 0xff, 0xff, 0xff, 0xff, 0xff, 0x01, 0x00, 0x00, 0x00, 0x00, 0x00,
  0x61, 0x00, 0x00, 0x00, 0x00, 0x00, 0x11, 0x00, 0x00, 0x00, 0x00, 0x00,
  0x79, 0x0c, 0x43, 0x00, 0x00, 0x00, 0x11, 0x92, 0x44, 0x00, 0x00, 0x00,
  0x11, 0x92, 0x04, 0x00, 0x00, 0x00, 0x11, 0x92, 0x44, 0x00, 0x04, 0x41,
  0x79, 0x0c, 0x43, 0x00, 0x04, 0x41, 0x01, 0x00, 0x00, 0x00, 0x00, 0x00,
  0x01, 0x00, 0x00, 0x00, 0x00, 0x00, 0x01, 0x00, 0x00, 0x00, 0x00, 0x00,
  0xff, 0xff, 0xff, 0xff, 0xff, 0xff, 0x01, 0x00, 0x00, 0x00, 0x00, 0x00,
  0x0d, 0x00, 0x00, 0x00, 0x00, 0x00, 0x09, 0x00, 0x00, 0x00, 0x00, 0x00,
  0x39, 0x86, 0x4e, 0x00, 0x00, 0x00, 0x49, 0x08, 0x41, 0x00, 0x00, 0x00,
  0x49, 0x0e, 0x01, 0x00, 0x00, 0x00, 0x49, 0x09, 0x41, 0x00, 0x04, 0x41,
  0x3d, 0x96, 0x47, 0x00, 0x04, 0x41, 0x01, 0x00, 0x00, 0x00, 0x00, 0x00,
  0x01, 0x00, 0x00, 0x00, 0x00, 0x00, 0x01, 0x00, 0x00, 0x00, 0x00, 0x00,
  0xff, 0xff, 0xff, 0xff, 0xff, 0xff, 0x01, 0x00, 0x00, 0x00, 0x00, 0x00,
  0x01, 0x03, 0x02, 0x00, 0x00, 0x00, 0x01, 0x02, 0x00, 0x00, 0x00, 0x00,
  0x31, 0x8e, 0x43, 0x00, 0x00, 0x00, 0x49, 0x12, 0x42, 0x00, 0x00, 0x00,
  0x49, 0x12, 0x02, 0x00, 0x00, 0x00, 0x49, 0x12, 0x42, 0x00, 0x04, 0x41,
  0x31, 0x0f, 0x42, 0x00, 0x04, 0x41, 0x01, 0x00, 0x02, 0x00, 0x00, 0x00,
  0x01, 0x80, 0x01, 0x00, 0x00, 0x00, 0xff, 0xff, 0xff, 0xff, 0xff, 0xff,
  0x01, 0x00, 0x00, 0x00, 0x00, 0x00, 0x01, 0x00, 0x00, 0x00, 0x00, 0x00,
  0x0d, 0x00, 0x01, 0x00, 0x00, 0x00, 0x09, 0x00, 0x01, 0x00, 0x00, 0x00,
  0x39, 0x8c, 0x67, 0x30, 0xcd, 0x4c, 0x49, 0x12, 0x81, 0x48, 0x92, 0x48,
  0x49, 0x0e, 0xe1, 0x38, 0x12, 0x05, 0x49, 0x12, 0x99, 0x48, 0x12, 0x45,
  0x3d, 0x0c, 0x66, 0x31, 0x37, 0x42, 0x01, 0x00, 0x00, 0x00, 0x00, 0x00,
  0x01, 0x00, 0x00, 0x00, 0x00, 0x00, 0xff, 0xff, 0xff, 0xff, 0xff, 0xff,
  0x00, 0x00, 0x00, 0x00, 0x00, 0x00, 0x00, 0x00, 0x00, 0x00, 0x00, 0x00,
  0x00, 0x00, 0x00, 0x00, 0x00, 0x00, 0x00, 0x00, 0x00, 0x00, 0x00, 0x00,
  0x00, 0x00, 0x00, 0x00, 0x00, 0x00, 0x00, 0x00, 0x00, 0x00, 0x00, 0x00,
  0x00, 0x00, 0x00, 0x00, 0x00, 0x00, 0x00, 0x00, 0x00, 0x00, 0x00, 0x00,
  };
