#define stripes4_width 8
#define stripes4_height 8
static char stripes4_bits[] = {
   0x78, 0x3c, 0x1e, 0x0f, 0x87, 0xc3, 0xe1, 0xf0};
