#define stripes5_width 8
#define stripes5_height 8
static char stripes5_bits[] = {
 0xf0,0x78,0x3c,0x1e,0x0f,0x87,0xc3,0xe1};
