/* XPM */
static char *xpmdata[] =
{
/* width height ncolors chars_per_pixel */
"32 32 256 2",
/* colors */
"AA c #FFFFFFFFFFFF",
"BA c #FFFFFFFFCCCC",
"CA c #FFFFFFFF9999",
"DA c #FFFFFFFF6666",
"EA c #FFFFFFFF3333",
"FA c #FFFFFFFF0000",
"GA c #FFFFCCCCFFFF",
"HA c #FFFFCCCCCCCC",
"IA c #FFFFCCCC9999",
"JA c #FFFFCCCC6666",
"KA c #FFFFCCCC3333",
"LA c #FFFFCCCC0000",
"MA c #FFFF9999FFFF",
"NA c #FFFF9999CCCC",
"OA c #FFFF99999999",
"PA c #FFFF99996666",
"AB c #FFFF99993333",
"BB c #FFFF99990000",
"CB c #FFFF6666FFFF",
"DB c #FFFF6666CCCC",
"EB c #FFFF66669999",
"FB c #FFFF66666666",
"GB c #FFFF66663333",
"HB c #FFFF66660000",
"IB c #FFFF3333FFFF",
"JB c #FFFF3333CCCC",
"KB c #FFFF33339999",
"LB c #FFFF33336666",
"MB c #FFFF33333333",
"NB c #FFFF33330000",
"OB c #FFFF0000FFFF",
"PB c #FFFF0000CCCC",
"AC c #FFFF00009999",
"BC c #FFFF00006666",
"CC c #FFFF00003333",
"DC c #FFFF00000000",
"EC c #CCCCFFFFFFFF",
"FC c #CCCCFFFFCCCC",
"GC c #CCCCFFFF9999",
"HC c #CCCCFFFF6666",
"IC c #CCCCFFFF3333",
"JC c #CCCCFFFF0000",
"KC c #CCCCCCCCFFFF",
"LC c #CCCCCCCCCCCC",
"MC c #CCCCCCCC9999",
"NC c #CCCCCCCC6666",
"OC c #CCCCCCCC3333",
"PC c #CCCCCCCC0000",
"AD c #CCCC9999FFFF",
"BD c #CCCC9999CCCC",
"CD c #CCCC99999999",
"DD c #CCCC99996666",
"ED c #CCCC99993333",
"FD c #CCCC99990000",
"GD c #CCCC6666FFFF",
"HD c #CCCC6666CCCC",
"ID c #CCCC66669999",
"JD c #CCCC66666666",
"KD c #CCCC66663333",
"LD c #CCCC66660000",
"MD c #CCCC3333FFFF",
"ND c #CCCC3333CCCC",
"OD c #CCCC33339999",
"PD c #CCCC33336666",
"AE c #CCCC33333333",
"BE c #CCCC33330000",
"CE c #CCCC0000FFFF",
"DE c #CCCC0000CCCC",
"EE c #CCCC00009999",
"FE c #CCCC00006666",
"GE c #CCCC00003333",
"HE c #CCCC00000000",
"IE c #9999FFFFFFFF",
"JE c #9999FFFFCCCC",
"KE c #9999FFFF9999",
"LE c #9999FFFF6666",
"ME c #9999FFFF3333",
"NE c #9999FFFF0000",
"OE c #9999CCCCFFFF",
"PE c #9999CCCCCCCC",
"AF c #9999CCCC9999",
"BF c #9999CCCC6666",
"CF c #9999CCCC3333",
"DF c #9999CCCC0000",
"EF c #99999999FFFF",
"FF c #99999999CCCC",
"GF c #999999999999",
"HF c #999999996666",
"IF c #999999993333",
"JF c #999999990000",
"KF c #99996666FFFF",
"LF c #99996666CCCC",
"MF c #999966669999",
"NF c #999966666666",
"OF c #999966663333",
"PF c #999966660000",
"AG c #99993333FFFF",
"BG c #99993333CCCC",
"CG c #999933339999",
"DG c #999933336666",
"EG c #999933333333",
"FG c #999933330000",
"GG c #99990000FFFF",
"HG c #99990000CCCC",
"IG c #999900009999",
"JG c #999900006666",
"KG c #999900003333",
"LG c #999900000000",
"MG c #6666FFFFFFFF",
"NG c #6666FFFFCCCC",
"OG c #6666FFFF9999",
"PG c #6666FFFF6666",
"AH c #6666FFFF3333",
"BH c #6666FFFF0000",
"CH c #6666CCCCFFFF",
"DH c #6666CCCCCCCC",
"EH c #6666CCCC9999",
"FH c #6666CCCC6666",
"GH c #6666CCCC3333",
"HH c #6666CCCC0000",
"IH c #66669999FFFF",
"JH c #66669999CCCC",
"KH c #666699999999",
"LH c #666699996666",
"MH c #666699993333",
"NH c #666699990000",
"OH c #66666666FFFF",
"PH c #66666666CCCC",
"AI c #666666669999",
"BI c #666666666666",
"CI c #666666663333",
"DI c #666666660000",
"EI c #66663333FFFF",
"FI c #66663333CCCC",
"GI c #666633339999",
"HI c #666633336666",
"II c #666633333333",
"JI c #666633330000",
"KI c #66660000FFFF",
"LI c #66660000CCCC",
"MI c #666600009999",
"NI c #666600006666",
"OI c #666600003333",
"PI c #666600000000",
"AJ c #3333FFFFFFFF",
"BJ c #3333FFFFCCCC",
"CJ c #3333FFFF9999",
"DJ c #3333FFFF6666",
"EJ c #3333FFFF3333",
"FJ c #3333FFFF0000",
"GJ c #3333CCCCFFFF",
"HJ c #3333CCCCCCCC",
"IJ c #3333CCCC9999",
"JJ c #3333CCCC6666",
"KJ c #3333CCCC3333",
"LJ c #3333CCCC0000",
"MJ c #33339999FFFF",
"NJ c #33339999CCCC",
"OJ c #333399999999",
"PJ c #333399996666",
"AK c #333399993333",
"BK c #333399990000",
"CK c #33336666FFFF",
"DK c #33336666CCCC",
"EK c #333366669999",
"FK c #333366666666",
"GK c #333366663333",
"HK c #333366660000",
"IK c #33333333FFFF",
"JK c #33333333CCCC",
"KK c #333333339999",
"LK c #333333336666",
"MK c #333333333333",
"NK c #333333330000",
"OK c #33330000FFFF",
"PK c #33330000CCCC",
"AL c #333300009999",
"BL c #333300006666",
"CL c #333300003333",
"DL c #333300000000",
"EL c #0000FFFFFFFF",
"FL c #0000FFFFCCCC",
"GL c #0000FFFF9999",
"HL c #0000FFFF6666",
"IL c #0000FFFF3333",
"JL c #0000FFFF0000",
"KL c #0000CCCCFFFF",
"LL c #0000CCCCCCCC",
"ML c #0000CCCC9999",
"NL c #0000CCCC6666",
"OL c #0000CCCC3333",
"PL c #0000CCCC0000",
"AM c #00009999FFFF",
"BM c #00009999CCCC",
"CM c #000099999999",
"DM c #000099996666",
"EM c #000099993333",
"FM c #000099990000",
"GM c #00006666FFFF",
"HM c #00006666CCCC",
"IM c #000066669999",
"JM c #000066666666",
"KM c #000066663333",
"LM c #000066660000",
"MM c #00003333FFFF",
"NM c #00003333CCCC",
"OM c #000033339999",
"PM c #000033336666",
"AN c #000033333333",
"BN c #000033330000",
"CN c #00000000FFFF",
"DN c #00000000CCCC",
"EN c #000000009999",
"FN c #000000006666",
"GN c #000000003333",
"HN c #EEEE00000000",
"IN c #DDDD00000000",
"JN c #BBBB00000000",
"KN c #AAAA00000000",
"LN c #888800000000",
"MN c #777700000000",
"NN c #555500000000",
"ON c #444400000000",
"PN c #222200000000",
"AO c #111100000000",
"BO c #0000EEEE0000",
"CO c #0000DDDD0000",
"DO c #0000BBBB0000",
"EO c #0000AAAA0000",
"FO c #000088880000",
"GO c #000077770000",
"HO c #000055550000",
"IO c #000044440000",
"JO c #000022220000",
"KO c #000011110000",
"LO c #00000000EEEE",
"MO c #00000000DDDD",
"NO c #00000000BBBB",
"OO c #00000000AAAA",
"PO c #000000008888",
"AP c #000000007777",
"BP c #000000005555",
"CP c #000000004444",
"DP c #000000002222",
"EP c #000000001111",
"FP c #EEEEEEEEEEEE",
"GP c #DDDDDDDDDDDD",
"HP c #BBBBBBBBBBBB",
"IP c #AAAAAAAAAAAA",
"JP c #888888888888",
"KP c #777777777777",
"LP c #555555555555",
"MP c #444444444444",
"NP c #222222222222",
"OP c #111111111111",
"PP c #000000000000",
/* pixels */
"PJMOPJMOPJMOFAFAFAGBPJMOPJMOPJLKALFKPJMOPJMOPJMOPJMOPJMOPJMOPJKP",
"MOPJMOPJMOPJMOPJIAFAFAGBINPJLKKPLPMKFKPJMOPJMOPJMOPJMOPJMOPJKPPP",
"PJMOPJMOPJMOPJMOPJMOIAFAFAGBINLCLCLPALFKPJMOPJMOPJMOPJMOPJKPPPAA",
"MOPJMOPJMOPJMOPJMOPJMOPJIALCLCAAIPJPLPALFKPJMOPJMOPJMOPJKPPPAAAA",
"PJMOPJMOPJMOPJMOPJMOPJMOIPLCAALCIPIPJPLPALFKPJMOPJMOPJKPPPAAAAAA",
"MOPJMOPJMOPJMOPJMOPJMOPJLCLCAALCJPJPKPLPLPALFKPJMOPJKPPPAAAAAAAA",
"PJMOPJMOPJMOPJMOPJMOLPPPPPALKPKPFAALPPPPPPALALGBPJOFPPAAAAAAAAAA",
"MOPJMOGBGBGBGBDDPJPJMOPJALPPAAFAINFAININPPIAFAFAGBPPAAAAAAAAAAAA",
"PJMOGBIAIADDFAFAFAIADDMOALPPAAFAFAINFAINPPMOGBFAFAGBFAAAAAAAAAAA",
"MOGBIAGBFAPJMOPJMODDFAAAPPPPPPKPINKPMOPPPPPPKPGBFAFAGBFAAAAAAAAA",
"GBIAGBFAPJMOPJMOPJMOPJALFAALAAAAALFAOFINPPPJLKAAGBFAFAGBFAAAAAAA",
"GBIAFAFAMOPJMOPJMOPJMOALBIPPALLCKPKPALALPPPPLKAAAAGBFAGBGBFAAAAA",
"GBFAAAPJPJMOPJMOPJMOPJPPPPKPIPLCLCLCGFBIPPALBIAAAAAAGBFAGBGBAAAA",
"GBAAFAAAMOPJMOPJMOPJMOPJMOKPIPAAAALCGFBIALBIAAAAAAAAAAGBGBGBGBAA",
"GBFAAAFAPJMOPJMOPJMOPJMOLKKPIPAAAALCGFBIALAAAAAAAAAAAAAAGBGBGBAA",
"FKFAFAAAPJPJMOPJMOPJMOPJLKKPIPAAAALCGFBIALAAAAAAAAAAAAAADDGBGBDD",
"FKGBFAAAFAMOPJMOPJMOPJMOLKKPIPAAAALCGFBIALAAAAAAAAAAAAAADDGBGBGB",
"FKFKFAFAFAAAMOPJMOPJMOPJLKKPIPAAAALCGFBIALAAAAAAAAAAAAAAAAGBGBGB",
"PJFKGBFAFAFAAAFKPJMOPJMOLKKPIPAAAALCGFBIALAAAAAAAAAAAAAAAAGBGBGB",
"MOPJFKGBFAFAFAAAFKPJMOPJLKKPIPAAAALCGFBIALAAAAAAAAAAAAAAAAGBGBGB",
"PJMOPJFKGBFAFAFAAAFKFKMOLKKPIPAAAALCGFBIKPAAAAAAAAAAAAAADDGBGBGB",
"MOPJMOPJFKGBFAIAFAFAFAFKLKKPIPAAAALCGFBIPPAAAAAAAAAAAAAAGBGBGBDD",
"PJMOPJMOPJFKGBFAGBFAIAFAFAKPIPAAAALCGFBIKPAAAAAAAAAADDGBGBGBINAA",
"MOPJMOPJMOPJMOGBFAGBFAGBFAIAFAFAFALCGFBIPPAAAAAADDGBGBGBGBINAAAA",
"PJMOPJMOPJMOPJKPPPGBGBFAGBFAGBFAGBGBGBGBGBGBGBGBGBGBGBININAAAAAA",
"MOPJMOPJMOPJKPPPAAAAININGBGBGBGBGBGBGBGBGBGBGBININININGBAAAAAAAA",
"PJMOPJMOPJKPPPAAAAAAAALKKPLCGBGBGBGBINININININGBGBAAAAAAAAAAAAAA",
"MOPJMOPJKPPPAAAAAAAAAALKKPLCAAAAAALCGFKPLKPPAAAAAAAAAAAAAAAAAAAA",
"PJMOPJKPPPAAAAAAAAAAAALKKPLCLCAAAAGFGFBILKPPKPKPKPKPKPKPKPKPAAAA",
"MOPJKPPPAAAAAAAAAAAAAALKKPLCLCLCLCLCGFKPLKPPKPKPKPKPKPKPKPAAAAAA",
"PJKPPPAAAAAAAAAAAAAAAALKKPLCLCLCLCGFGFLKLKPPKPKPKPKPKPKPAAAAAAAA",
"MOPPAAAAAAAAAAAAAAAAAAKPPPPPPPKPKPKPPPPPPPPPKPKPKPAAAAAAAAAAAAAA",
};
