#define canvas_width 36
#define canvas_height 24
static char canvas_bits[] = {
   0x55, 0x55, 0x55, 0x55, 0x05, 0x00, 0x00, 0x00, 0x00, 0x08, 0x01, 0x00,
   0x00, 0x00, 0x00, 0xf0, 0xff, 0xff, 0x7f, 0x08, 0xf1, 0xff, 0xff, 0xbf,
   0x00, 0x30, 0x00, 0x00, 0x40, 0x08, 0x31, 0x00, 0x00, 0x80, 0x00, 0x30,
   0x00, 0x00, 0x40, 0x08, 0x31, 0x00, 0x00, 0x80, 0x00, 0x30, 0x00, 0x00,
   0x40, 0x08, 0x31, 0x00, 0x00, 0x80, 0x00, 0x30, 0x00, 0x00, 0x40, 0x08,
   0x31, 0x00, 0x00, 0x80, 0x00, 0x30, 0x00, 0x00, 0x40, 0x08, 0x31, 0x00,
   0x00, 0x80, 0x00, 0x30, 0x00, 0x00, 0x40, 0x08, 0x31, 0x00, 0x00, 0x80,
   0x00, 0x30, 0x00, 0x00, 0x40, 0x08, 0x31, 0x00, 0x00, 0x80, 0x00, 0x50,
   0x55, 0x55, 0x55, 0x08, 0xa1, 0xaa, 0xaa, 0xaa, 0x00, 0x00, 0x00, 0x00,
   0x00, 0x08, 0x01, 0x00, 0x00, 0x00, 0x00, 0xaa, 0xaa, 0xaa, 0xaa, 0x0a};
