#define checkbox_width 36
#define checkbox_height 24
static char checkbox_bits[] = {
   0x55, 0x55, 0x55, 0x55, 0x05, 0x00, 0x00, 0x00, 0x00, 0x08, 0x01, 0x00,
   0x00, 0x00, 0x00, 0x00, 0x00, 0x00, 0x00, 0x08, 0x01, 0x00, 0x00, 0x00,
   0x00, 0x00, 0x00, 0x00, 0x00, 0x08, 0x51, 0x55, 0x00, 0x00, 0x00, 0xa0,
   0x6a, 0x00, 0x00, 0x08, 0x11, 0x60, 0x18, 0x11, 0x00, 0x20, 0x60, 0x24,
   0x13, 0x08, 0x11, 0x60, 0x24, 0x13, 0x00, 0x20, 0x60, 0x24, 0x15, 0x08,
   0x11, 0x60, 0x24, 0x19, 0x00, 0x20, 0x60, 0x24, 0x19, 0x08, 0x11, 0x60,
   0x18, 0x11, 0x00, 0xe0, 0x7f, 0x00, 0x00, 0x08, 0xf1, 0x7f, 0x00, 0x00,
   0x00, 0x00, 0x00, 0x00, 0x00, 0x08, 0x01, 0x00, 0x00, 0x00, 0x00, 0x00,
   0x00, 0x00, 0x00, 0x08, 0x01, 0x00, 0x00, 0x00, 0x00, 0x00, 0x00, 0x00,
   0x00, 0x08, 0x01, 0x00, 0x00, 0x00, 0x00, 0xaa, 0xaa, 0xaa, 0xaa, 0x0a};
