#define fileicon_width 15
#define fileicon_height 15
static char fileicon_bits[] = {
   0x00, 0x00, 0x00, 0x00, 0x00, 0x00, 0x7c, 0x00, 0x82, 0x1f, 0x02, 0x20,
   0x02, 0x20, 0x02, 0x20, 0x02, 0x20, 0x02, 0x20, 0x02, 0x20, 0x02, 0x20,
   0x02, 0x20, 0xfe, 0x3f, 0x00, 0x00};
