#define InterfaceBuilderGraph_width 15
#define InterfaceBuilderGraph_height 15
static char InterfaceBuilderGraph_bits[] = {
   0xff, 0x7f, 0x55, 0x55, 0xab, 0x6a, 0x01, 0x40, 0x01, 0x40, 0xc9, 0x4f,
   0xc1, 0x4f, 0x01, 0x40, 0x01, 0x40, 0x01, 0x40, 0x39, 0x4f, 0x39, 0x4f,
   0x01, 0x40, 0x01, 0x40, 0xff, 0x7f};
