#define radiobutton_width 36
#define radiobutton_height 24
static char radiobutton_bits[] = {
   0x55, 0x55, 0x55, 0x55, 0x05, 0x00, 0x00, 0x00, 0x00, 0x08, 0x01, 0x00,
   0x00, 0x00, 0x00, 0x00, 0x00, 0x00, 0x00, 0x08, 0x01, 0x00, 0x00, 0x00,
   0x00, 0x00, 0x00, 0x00, 0x00, 0x08, 0x01, 0x02, 0x00, 0x00, 0x00, 0x00,
   0x05, 0x00, 0x00, 0x08, 0x81, 0x0a, 0x18, 0x11, 0x00, 0x40, 0x15, 0x24,
   0x13, 0x08, 0xa1, 0x28, 0x24, 0x13, 0x00, 0x70, 0x70, 0x24, 0x15, 0x08,
   0xe1, 0x38, 0x24, 0x19, 0x00, 0xc0, 0x1d, 0x24, 0x19, 0x08, 0x81, 0x0f,
   0x18, 0x11, 0x00, 0x00, 0x07, 0x00, 0x00, 0x08, 0x01, 0x02, 0x00, 0x00,
   0x00, 0x00, 0x00, 0x00, 0x00, 0x08, 0x01, 0x00, 0x00, 0x00, 0x00, 0x00,
   0x00, 0x00, 0x00, 0x08, 0x01, 0x00, 0x00, 0x00, 0x00, 0x00, 0x00, 0x00,
   0x00, 0x08, 0x01, 0x00, 0x00, 0x00, 0x00, 0xaa, 0xaa, 0xaa, 0xaa, 0x0a};
