#define resize_width 36
#define resize_height 24
static char resize_bits[] = {
   0x55, 0x55, 0x55, 0x55, 0x05, 0x00, 0x00, 0x00, 0x00, 0x08, 0x01, 0x00,
   0x00, 0x00, 0x00, 0x00, 0x00, 0x00, 0x00, 0x08, 0xf9, 0xff, 0xc7, 0x0c,
   0x00, 0x08, 0x00, 0x04, 0x00, 0x08, 0x09, 0x00, 0x04, 0x00, 0x00, 0x08,
   0x00, 0x04, 0x08, 0x08, 0x09, 0x00, 0x04, 0x08, 0x00, 0x08, 0x00, 0x04,
   0x00, 0x08, 0x09, 0x00, 0x04, 0x00, 0x00, 0xf8, 0xff, 0x07, 0x08, 0x08,
   0x01, 0x00, 0x00, 0x08, 0x00, 0x08, 0x00, 0x00, 0x00, 0x08, 0x01, 0x00,
   0x00, 0x00, 0x00, 0x00, 0x00, 0x00, 0x02, 0x08, 0x09, 0x00, 0x00, 0x0e,
   0x00, 0xc8, 0xcc, 0x4c, 0x06, 0x08, 0x01, 0x00, 0x00, 0x0a, 0x00, 0x00,
   0x00, 0x00, 0x10, 0x08, 0x01, 0x00, 0x00, 0x00, 0x00, 0x00, 0x00, 0x00,
   0x00, 0x08, 0x01, 0x00, 0x00, 0x00, 0x00, 0xaa, 0xaa, 0xaa, 0xaa, 0x0a};
