#define select_width 36
#define select_height 24
static char select_bits[] = {
   0x55, 0x55, 0x55, 0x55, 0x05, 0x00, 0x00, 0x00, 0x00, 0x08, 0x01, 0x00,
   0x00, 0x00, 0x00, 0x00, 0x00, 0x00, 0x00, 0x08, 0x01, 0x00, 0x00, 0x00,
   0x00, 0x00, 0x18, 0x00, 0x00, 0x08, 0x01, 0x78, 0x00, 0x00, 0x00, 0x00,
   0xf0, 0x03, 0x00, 0x08, 0x01, 0xf0, 0x0f, 0x00, 0x00, 0x00, 0xe0, 0x3f,
   0x00, 0x08, 0x01, 0xe0, 0x03, 0x00, 0x00, 0x00, 0xe0, 0x03, 0x00, 0x08,
   0x01, 0xc0, 0x04, 0x00, 0x00, 0x00, 0xc0, 0x08, 0x00, 0x08, 0x01, 0x80,
   0x10, 0x00, 0x00, 0x00, 0x80, 0x20, 0x00, 0x08, 0x01, 0x00, 0x40, 0x00,
   0x00, 0x00, 0x00, 0x80, 0x00, 0x08, 0x01, 0x00, 0x00, 0x00, 0x00, 0x00,
   0x00, 0x00, 0x00, 0x08, 0x01, 0x00, 0x00, 0x00, 0x00, 0x00, 0x00, 0x00,
   0x00, 0x08, 0x01, 0x00, 0x00, 0x00, 0x00, 0xaa, 0xaa, 0xaa, 0xaa, 0x0a};
