#define separatorv_width 36
#define separatorv_height 24
static char separatorv_bits[] = {
   0x55, 0x55, 0x55, 0x55, 0x05, 0x00, 0x00, 0x00, 0x00, 0x08, 0x01, 0x00,
   0x00, 0x00, 0x00, 0x00, 0x00, 0x04, 0x00, 0x08, 0x01, 0x00, 0x0c, 0x00,
   0x00, 0x00, 0x00, 0x04, 0x00, 0x08, 0x01, 0x00, 0x0c, 0x00, 0x00, 0x00,
   0x00, 0x04, 0x00, 0x08, 0x01, 0x00, 0x0c, 0x00, 0x00, 0x00, 0x00, 0x04,
   0x00, 0x08, 0x01, 0x00, 0x0c, 0x00, 0x00, 0x00, 0x00, 0x04, 0x00, 0x08,
   0x01, 0x00, 0x0c, 0x00, 0x00, 0x00, 0x00, 0x04, 0x00, 0x08, 0x01, 0x00,
   0x0c, 0x00, 0x00, 0x00, 0x00, 0x04, 0x00, 0x08, 0x01, 0x00, 0x0c, 0x00,
   0x00, 0x00, 0x00, 0x04, 0x00, 0x08, 0x01, 0x00, 0x0c, 0x00, 0x00, 0x00,
   0x00, 0x04, 0x00, 0x08, 0x01, 0x00, 0x0c, 0x00, 0x00, 0x00, 0x00, 0x00,
   0x00, 0x08, 0x01, 0x00, 0x00, 0x00, 0x00, 0xaa, 0xaa, 0xaa, 0xaa, 0x0a};
