#define smallgroupicon_width 15
#define smallgroupicon_height 15
static char smallgroupicon_bits[] = {
   0x00, 0x00, 0xfe, 0x07, 0x02, 0x0c, 0x02, 0x14, 0x02, 0x3c, 0x72, 0x20,
   0x02, 0x20, 0xf2, 0x23, 0x02, 0x20, 0xf2, 0x23, 0x02, 0x20, 0xf2, 0x23,
   0x02, 0x20, 0xfe, 0x3f, 0x00, 0x00};
