#define statictext_width 36
#define statictext_height 24
static char statictext_bits[] = {
   0x55, 0x55, 0x55, 0x55, 0x05, 0x00, 0x00, 0x00, 0x00, 0x08, 0x01, 0x00,
   0x00, 0x00, 0x00, 0x00, 0x00, 0x00, 0x00, 0x08, 0x01, 0x00, 0x00, 0x00,
   0x00, 0x00, 0x00, 0x00, 0x00, 0x08, 0x11, 0x02, 0x00, 0x00, 0x00, 0x10,
   0x02, 0x00, 0x00, 0x08, 0x31, 0x02, 0x00, 0x80, 0x00, 0x50, 0x72, 0x16,
   0xc7, 0x09, 0x91, 0x82, 0xaa, 0x88, 0x00, 0x10, 0xf3, 0xaa, 0x0f, 0x08,
   0x11, 0x8a, 0xaa, 0x80, 0x00, 0x10, 0xf2, 0x22, 0xc7, 0x09, 0x01, 0x00,
   0x00, 0x80, 0x00, 0x00, 0x00, 0x00, 0x00, 0x08, 0x01, 0x00, 0x00, 0x00,
   0x00, 0x00, 0x00, 0x00, 0x00, 0x08, 0x01, 0x00, 0x00, 0x00, 0x00, 0x00,
   0x00, 0x00, 0x00, 0x08, 0x01, 0x00, 0x00, 0x00, 0x00, 0x00, 0x00, 0x00,
   0x00, 0x08, 0x01, 0x00, 0x00, 0x00, 0x00, 0xaa, 0xaa, 0xaa, 0xaa, 0x0a};
