#define stripes8_width 8
#define stripes8_height 8
static char stripes8_bits[] = {
   0x87, 0xc3, 0xe1, 0xf0, 0x78, 0x3c, 0x1e, 0x0f};
