#define stripes6_width 8
#define stripes6_height 8
static char stripes6_bits[] = {
   0xe1, 0xf0, 0x78, 0x3c, 0x1e, 0x0f, 0x87, 0xc3};
