/* XPM */
static char *arrowdown[] = {
/* width height num_colors chars_per_pixel */
"    16    16        4            1",
/* colors */
"  c None",
". c #ffffff",
"# c #9999ff",
"a c #000000",
/* pixels */
"                ",
"                ",
"                ",
"                ",
"                ",
"                ",
"  aaaaaaaaaaa   ",
"   a#.#.#.#a    ",
"    a#.#.#a     ",
"     a#.#a      ",
"      a#a       ",
"       a        ",
"                ",
"                ",
"                ",
"                "
};                                                                                                          
