/* XPM */
static char *noname[] = {
/* width height ncolors chars_per_pixel */
"32 18 12 1",
/* colors */
"  c #728769",
". c #DAD7D2",
"X c #66C166",
"o c #4AEB4A",
"O c #D2D4D2",
"+ c #ADCCAD",
"@ c #CAC2BC",
"# c #30B030",
"$ c #B0B0AB",
"% c none",
"& c #425E37",
"* c #BBBBBB",
/* pixels */
"%%%%%%%%%%%%%%+%%%%%%%%%%%%%%%%%",
"%%%%%%%%%%%%%+X%%%%%%%%%%%%%%%%%",
"%%%%%%%%%%%%X# .%%%%%%%%%%%%%%%%",
"%%%%%%%%%%%+o# *%%%%%%%%%%%%%%%%",
"%%%%%%%%%%Xo## *%%%%%%%%%%%%%%%%",
"%%%%%%%%%+o### *%%%%%%%%%%%%%%%%",
"%%%%%%%%Xo#####oooooooo# %%%%%%%",
"%%%%%%%+o############### %%%%%%%",
"%%%%%%+o################ O%%%%%%",
"%%%%%%%*&##############& *%%%%%%",
"%%%%%%%%$&####&          *%%%%%%",
"%%%%%%%%%$&### ***********%%%%%%",
"%%%%%%%%%%$&## *@@@@@@@@@@%%%%%%",
"%%%%%%%%%%%$&& *%%%%%%%%%%%%%%%%",
"%%%%%%%%%%%%$& *%%%%%%%%%%%%%%%%",
"%%%%%%%%%%%%%$ *%%%%%%%%%%%%%%%%",
"%%%%%%%%%%%%%%@*%%%%%%%%%%%%%%%%",
"%%%%%%%%%%%%%%%@%%%%%%%%%%%%%%%%"
};
