/* XPM */
static char *noname[] = {
/* width height ncolors chars_per_pixel */
"32 18 6 1",
/* colors */
"  c #D9D5D1",
". c #CECECC",
"X c #ACC0AA",
"o c none",
"O c #CBD7CB",
"+ c #BBBBBB",
/* pixels */
"ooooooooooooooOooooooooooooooooo",
"oooooooooooooOOooooooooooooooooo",
"ooooooooooooOX+ooooooooooooooooo",
"oooooooooooOXX+ oooooooooooooooo",
"ooooooooooOXXX+ oooooooooooooooo",
"oooooooooOXXXX+ oooooooooooooooo",
"ooooooooOXXXXXXOOOOOOOOO ooooooo",
"oooooooOXXXXXXXXXXXXXXXX+ooooooo",
"ooooooOXXXXXXXXXXXXXXXXX+ooooooo",
"ooooooo XXXXXXXXXXXXXXXX+ oooooo",
"oooooooo.XXXXX+           oooooo",
"ooooooooo.XXXX+           oooooo",
"oooooooooo.XXX+ oooooooooooooooo",
"ooooooooooo.XX+ oooooooooooooooo",
"oooooooooooo.X+ oooooooooooooooo",
"ooooooooooooo.+ oooooooooooooooo",
"oooooooooooooo  oooooooooooooooo",
"ooooooooooooooo oooooooooooooooo"
};
