/* XPM */
static char *noname[] = {
/* width height ncolors chars_per_pixel */
"32 18 8 1",
/* colors */
"  c #D6D6D5",
". c #C5C5C9",
"X c #D2D2D2",
"o c #CBD0CB",
"O c #B0BEAD",
"+ c #B7C5B6",
"@ c #9AE298",
"# c none",
/* pixels */
"############## #################",
"#############o+#################",
"############o@+#################",
"###########o@O+X################",
"##########o@OO+X################",
"#########o@OOO+X################",
"########o@OOOOO@@@@@@@@@+#######",
"#######o@OOOOOOOOOOOOOOO+#######",
"###### +OOOOOOOOOOOOOOOO+ ######",
"#######XOOOOOOOOOOOOOOOO+X######",
"########oOOOOOO+++++++++.X######",
"#########oOOOO+XXXXXXXXXXX######",
"##########oOOO+X          ######",
"###########oOO+X################",
"############oO+X################",
"#############o+X################",
"############## X################",
"############### ################"
};
