/* XPM */
static char *noname[] = {
/* width height ncolors chars_per_pixel */
"32 18 13 1",
/* colors */
"  c #D6D6D5",
". c #82C782",
"X c #C5C5C9",
"o c #D2D2D2",
"O c #B0BEAD",
"+ c #A8A198",
"@ c #6C7888",
"# c #BABABA",
"$ c #C0BDBC",
"% c #B7C5B6",
"& c #409C40",
"* c #9AE298",
"= c none",
/* pixels */
"==============%=================",
"=============*.=================",
"============.&@ ================",
"===========*&&@$================",
"==========.&&&@#================",
"=========*&&&&@#================",
"========.&&&&&&&&&&&&&&&@=======",
"=======*&&&&&&&&&&&&&&&&@=======",
"======%&&&&&&&&&&&&&&&&&@o======",
"=======%&&&&&&&&&&&&&&&&@#======",
"========O&&&&&&@@@@@@@@@@#======",
"======== O&&&&@###########======",
"==========O&&&@#XXXXXXXXXX======",
"========== O&&@#================",
"============+&@#================",
"============ O@#================",
"==============$#================",
"============== X================"
};
