/* XPM */
static char *noname[] = {
/* width height ncolors chars_per_pixel */
"48 39 4 1",
/* colors */
"  c #D1D2D1",
". c #A3C8A3",
"X c #B2BAAD",
"o c none",
/* pixels */
"oooooooooooooooooooooooooooooooooooooooooooooooo",
"ooooooooooooooooooooo.oooooooooooooooooooooooooo",
"oooooooooooooooooooo..oooooooooooooooooooooooooo",
"ooooooooooooooooooo..Xoooooooooooooooooooooooooo",
"oooooooooooooooooo..XXo oooooooooooooooooooooooo",
"ooooooooooooooooo...XX  oooooooooooooooooooooooo",
"oooooooooooooooo....XX  oooooooooooooooooooooooo",
"ooooooooooooooo.....XX  oooooooooooooooooooooooo",
"oooooooooooooo......XX  oooooooooooooooooooooooo",
"ooooooooooooo.......XX  oooooooooooooooooooooooo",
"oooooooooooo........................Xooooooooooo",
"ooooooooooo........................XXooooooooooo",
"oooooooooo.........................XXooooooooooo",
"oooooooooooXX.......XXXXXXXXXXXXXXXXX  ooooooooo",
"ooooooooooooXX......XXXXXXXXXXXXXXXXX  ooooooooo",
"oooooooooooo XX.....XX                 ooooooooo",
"ooooooooooooo XX....XX                 ooooooooo",
"oooooooooooooo XX...XX                 ooooooooo",
"ooooooooooooooo XX..XX  oooooooooooooooooooooooo",
"oooooooooooooooo XX.XX  oooooooooooooooooooooooo",
"ooooooooooooooooo XXXX  oooooooooooooooooooooooo",
"oooooooooooooooooo XXX  oooooooooooooooooooooooo",
"ooooooooooooooooooo XX  oooooooooooooooooooooooo",
"oooooooooooooooooooo X  oooooooooooooooooooooooo",
"ooooooooooooooooooooo   oooooooooooooooooooooooo",
"oooooooooooooooooooooo  oooooooooooooooooooooooo",
"ooooooooooooooooooooooo oooooooooooooooooooooooo",
"ooooooooooooooooooooooooooooooXooooooooooooooooo",
"ooooooooooooXXXXooooooooooooooXooooooooooooooooo",
"ooooooooooooXoooXoooooooooooooXooooooooooooooooo",
"ooooooooooooXoooXooXXXooooXXXoXoooXooooooooooooo",
"ooooooooooooXoooXoXoooXooXooooXooXoooooooooooooo",
"ooooooooooooXXXXooooooXoXoooooXoXooooooooooooooo",
"ooooooooooooXoooXooXXXXoXoooooXXXooooooooooooooo",
"ooooooooooooXoooXoXoooXoXoooooXooXoooooooooooooo",
"ooooooooooooXoooXoXoooXooXooooXooXXooooooooooooo",
"ooooooooooooXXXXoooXXXoXooXXXoXoooXooooooooooooo",
"oooooooooooooooooooooooooooooooooooooooooooooooo",
"oooooooooooooooooooooooooooooooooooooooooooooooo"
};
