/* XPM */
static char *noname[] = {
/* width height ncolors chars_per_pixel */
"32 18 6 1",
/* colors */
"  c #D0D0CD",
". c #D9D5D2",
"X c #D8E0C5",
"o c #ACC0AA",
"O c none",
"+ c #BBBBBB",
/* pixels */
"OOOOOOOOOOOOOO.OOOOOOOOOOOOOOOOO",
"OOOOOOOOOOOOOXXOOOOOOOOOOOOOOOOO",
"OOOOOOOOOOOOXo+OOOOOOOOOOOOOOOOO",
"OOOOOOOOOOOXoo+.OOOOOOOOOOOOOOOO",
"OOOOOOOOOOXooo+ OOOOOOOOOOOOOOOO",
"OOOOOOOOOXoooo+ OOOOOOOOOOOOOOOO",
"OOOOOOOOXoooooo XXXXXXXX OOOOOOO",
"OOOOOOOXoooooooooooooooo+OOOOOOO",
"OOOOOO.ooooooooooooooooo+OOOOOOO",
"OOOOOOO oooooooooooooooo+ OOOOOO",
"OOOOOOOO ooooo+           OOOOOO",
"OOOOOOOOO oooo+           OOOOOO",
"OOOOOOOOOO ooo+ OOOOOOOOOOOOOOOO",
"OOOOOOOOOOO oo+ OOOOOOOOOOOOOOOO",
"OOOOOOOOOOOO o+ OOOOOOOOOOOOOOOO",
"OOOOOOOOOOOOO + OOOOOOOOOOOOOOOO",
"OOOOOOOOOOOOOO. OOOOOOOOOOOOOOOO",
"OOOOOOOOOOOOOOO.OOOOOOOOOOOOOOOO"
};
