/* XPM */
static char *noname[] = {
/* width height ncolors chars_per_pixel */
"32 18 11 1",
/* colors */
"  c #49EB49",
". c #CDBEBB",
"X c #31B331",
"o c #6C8B5E",
"O c #D0D0CD",
"+ c #D9D5D2",
"@ c #D8E0C5",
"# c #ACC0AA",
"$ c #307030",
"% c none",
"& c #BBBBBB",
/* pixels */
"%%%%%%%%%%%%%%@%%%%%%%%%%%%%%%%%",
"%%%%%%%%%%%%%# %%%%%%%%%%%%%%%%%",
"%%%%%%%%%%%% Xo+%%%%%%%%%%%%%%%%",
"%%%%%%%%%%%# $o&%%%%%%%%%%%%%%%%",
"%%%%%%%%%%  X$o&%%%%%%%%%%%%%%%%",
"%%%%%%%%%# XX$o&%%%%%%%%%%%%%%%%",
"%%%%%%%%  XXXXo#########&%%%%%%%",
"%%%%%%%# XXXXXX        Xo%%%%%%%",
"%%%%%%# XXXXXXXXXXXXXXX$oO%%%%%%",
"%%%%%%%&$XXXX$$$$$$$$$$$o&%%%%%%",
"%%%%%%%%#$XXX$o&&&&&&&&&&&%%%%%%",
"%%%%%%%%%#$XX$o&&&&&&&&&&&%%%%%%",
"%%%%%%%%%%#$X$o&%%%%%%%%%%%%%%%%",
"%%%%%%%%%%%#$$o&%%%%%%%%%%%%%%%%",
"%%%%%%%%%%%%#$o&%%%%%%%%%%%%%%%%",
"%%%%%%%%%%%%%#o&%%%%%%%%%%%%%%%%",
"%%%%%%%%%%%%%%&&%%%%%%%%%%%%%%%%",
"%%%%%%%%%%%%%%%.%%%%%%%%%%%%%%%%"
};
