/* XPM */
static char *noname[] = {
/* width height ncolors chars_per_pixel */
"32 18 18 1",
/* colors */
"  c #BFBEC4",
". c #30C130",
"X c #56EA55",
"o c #C5C5C9",
"O c #B2B0A9",
"+ c #D7D8D7",
"@ c #D2D2D2",
"# c #B5E0B5",
"$ c #BCC4BF",
"% c #426129",
"& c #4B8F4C",
"* c #817C6A",
"= c #30B030",
"- c none",
"; c #8E8F96",
": c #BBBBBB",
"> c #A9CDA9",
", c #72C476",
/* pixels */
"--------------#-----------------",
"------------->X-----------------",
"------------,.*+----------------",
"----------->.=& ----------------",
"----------,.=&&:----------------",
"--------->.==&&:----------------",
"--------,.====..........*-------",
"------->.======........=*-------",
"------#.===============&*@------",
"-------$%=====&&&&&&&&&%&:------",
"--------O&===&&&&&&&&&&&;:------",
"--------+O%==&&:::::::::::------",
"----------O&=&&:oooooooooo------",
"----------+O%%&:----------------",
"------------O&&:----------------",
"------------+O&:----------------",
"-------------- :----------------",
"--------------+ ----------------"
};
