/* XPM */
static char *noname[] = {
/* width height ncolors chars_per_pixel */
"48 39 5 1",
/* colors */
"  c #BB9F93",
". c #D2D4D2",
"X c #ADCCAD",
"o c #B0B0AB",
"O c none",
/* pixels */
"OOOOOOOOOOOOOOOOOOOOOOOOOOOOOOOOOOOOOOOOOOOOOOOO",
"OOOOOOOOOOOOOOOOOOOOOXOOOOOOOOOOOOOOOOOOOOOOOOOO",
"OOOOOOOOOOOOOOOOOOOOXXOOOOOOOOOOOOOOOOOOOOOOOOOO",
"OOOOOOOOOOOOOOOOOOOXXoOOOOOOOOOOOOOOOOOOOOOOOOOO",
"OOOOOOOOOOOOOOOOOOXXooO.OOOOOOOOOOOOOOOOOOOOOOOO",
"OOOOOOOOOOOOOOOOOXXXoo..OOOOOOOOOOOOOOOOOOOOOOOO",
"OOOOOOOOOOOOOOOOXXXXoo..OOOOOOOOOOOOOOOOOOOOOOOO",
"OOOOOOOOOOOOOOOXXXXXoo..OOOOOOOOOOOOOOOOOOOOOOOO",
"OOOOOOOOOOOOOOXXXXXXoo..OOOOOOOOOOOOOOOOOOOOOOOO",
"OOOOOOOOOOOOOXXXXXXXXXXXXXXXXXXXXXXXoOOOOOOOOOOO",
"OOOOOOOOOOOOXXXXXXXXXXXXXXXXXXXXXXXooOOOOOOOOOOO",
"OOOOOOOOOOOXXXXXXXXXXXXXXXXXXXXXXXXooOOOOOOOOOOO",
"OOOOOOOOOOXXXXXXXXXXXXXXXXXXXXXXXXXooOOOOOOOOOOO",
"OOOOOOOOOOOooXXXXXXXXXXXXXXXXXXXXXXoo..OOOOOOOOO",
"OOOOOOOOOOOOooXXXXXXooooooooooooooooo..OOOOOOOOO",
"OOOOOOOOOOOO.ooXXXXXooooooooooooooooo..OOOOOOOOO",
"OOOOOOOOOOOOO.ooXXXXoo.................OOOOOOOOO",
"OOOOOOOOOOOOOO.ooXXXoo.................OOOOOOOOO",
"OOOOOOOOOOOOOOO.ooXXoo.................OOOOOOOOO",
"OOOOOOOOOOOOOOOO.ooXoo..OOOOOOOOOOOOOOOOOOOOOOOO",
"OOOOOOOOOOOOOOOOO.oooo..OOOOOOOOOOOOOOOOOOOOOOOO",
"OOOOOOOOOOOOOOOOOO.ooo..OOOOOOOOOOOOOOOOOOOOOOOO",
"OOOOOOOOOOOOOOOOOOO.oo..OOOOOOOOOOOOOOOOOOOOOOOO",
"OOOOOOOOOOOOOOOOOOOO.o..OOOOOOOOOOOOOOOOOOOOOOOO",
"OOOOOOOOOOOOOOOOOOOOO...OOOOOOOOOOOOOOOOOOOOOOOO",
"OOOOOOOOOOOOOOOOOOOOOO..OOOOOOOOOOOOOOOOOOOOOOOO",
"OOOOOOOOOOOOOOOOOOOOOOO.OOOOOOOOOOOOOOOOOOOOOOOO",
"OOOOOOOOOOOOOOOOOOOOOOOOOOOOOO OOOOOOOOOOOOOOOOO",
"OOOOOOOOOOOO    OOOOOOOOOOOOOO OOOOOOOOOOOOOOOOO",
"OOOOOOOOOOOO OOO OOOOOOOOOOOOO OOOOOOOOOOOOOOOOO",
"OOOOOOOOOOOO OOO OO   OOOO   O OOO OOOOOOOOOOOOO",
"OOOOOOOOOOOO OOO O OOO OO OOOO OO OOOOOOOOOOOOOO",
"OOOOOOOOOOOO    OOOOOO O OOOOO O OOOOOOOOOOOOOOO",
"OOOOOOOOOOOO OOO OO    O OOOOO   OOOOOOOOOOOOOOO",
"OOOOOOOOOOOO OOO O OOO O OOOOO OO OOOOOOOOOOOOOO",
"OOOOOOOOOOOO OOO O OOO OO OOOO OO  OOOOOOOOOOOOO",
"OOOOOOOOOOOO    OOO   O OO   O OOO OOOOOOOOOOOOO",
"OOOOOOOOOOOOOOOOOOOOOOOOOOOOOOOOOOOOOOOOOOOOOOOO",
"OOOOOOOOOOOOOOOOOOOOOOOOOOOOOOOOOOOOOOOOOOOOOOOO"
};
