/* XPM */
static char *noname[] = {
/* width height ncolors chars_per_pixel */
"32 18 12 1",
/* colors */
"  c #D9D6D3",
". c #D1D2D1",
"X c #D5E0C4",
"o c #758F5F",
"O c #C8C5C1",
"+ c #A3C8A3",
"@ c #45EC45",
"# c #30B230",
"$ c #B2BAAD",
"% c #307030",
"& c none",
"* c #BBBBBB",
/* pixels */
"&&&&&&&&&&&&&&X&&&&&&&&&&&&&&&&&",
"&&&&&&&&&&&&&+@&&&&&&&&&&&&&&&&&",
"&&&&&&&&&&&&+#o &&&&&&&&&&&&&&&&",
"&&&&&&&&&&&+@%o*&&&&&&&&&&&&&&&&",
"&&&&&&&&&&+@#%o*&&&&&&&&&&&&&&&&",
"&&&&&&&&&+@##%o*&&&&&&&&&&&&&&&&",
"&&&&&&&&+@####o+++++++++*&&&&&&&",
"&&&&&&&+@######@@@@@@@@#o&&&&&&&",
"&&&&&&X@###############%o.&&&&&&",
"&&&&&&&*%####%%%%%%%%%%%o*&&&&&&",
"&&&&&&&&$%###%o***********&&&&&&",
"&&&&&&&& $%##%o***********&&&&&&",
"&&&&&&&&&&$%#%o*&&&&&&&&&&&&&&&&",
"&&&&&&&&&& $%%o*&&&&&&&&&&&&&&&&",
"&&&&&&&&&&&&$%o*&&&&&&&&&&&&&&&&",
"&&&&&&&&&&&& $o*&&&&&&&&&&&&&&&&",
"&&&&&&&&&&&&&&O*&&&&&&&&&&&&&&&&",
"&&&&&&&&&&&&&& O&&&&&&&&&&&&&&&&"
};
