/* XPM */
static char *noname[] = {
/* width height ncolors chars_per_pixel */
"48 39 6 1",
/* colors */
"  c #000000",
". c #45EC45",
"X c #30B230",
"o c #307030",
"O c none",
"+ c #BBBBBB",
/* pixels */
"OOOOOOOOOOOOOOOOOOOOOOOOOOOOOOOOOOOOOOOOOOOOOOOO",
"OOOOOOOOOOOOOOOOOOOOO.OOOOOOOOOOOOOOOOOOOOOOOOOO",
"OOOOOOOOOOOOOOOOOOOO..OOOOOOOOOOOOOOOOOOOOOOOOOO",
"OOOOOOOOOOOOOOOOOOO..oOOOOOOOOOOOOOOOOOOOOOOOOOO",
"OOOOOOOOOOOOOOOOOO..ooO+OOOOOOOOOOOOOOOOOOOOOOOO",
"OOOOOOOOOOOOOOOOO..Xoo++OOOOOOOOOOOOOOOOOOOOOOOO",
"OOOOOOOOOOOOOOOO..XXoo++OOOOOOOOOOOOOOOOOOOOOOOO",
"OOOOOOOOOOOOOOO..XXXoo++OOOOOOOOOOOOOOOOOOOOOOOO",
"OOOOOOOOOOOOOO..XXXXoo++OOOOOOOOOOOOOOOOOOOOOOOO",
"OOOOOOOOOOOOO..XXXXXoo++OOOOOOOOOOOOOOOOOOOOOOOO",
"OOOOOOOOOOOO..XXXXXXXX..............oOOOOOOOOOOO",
"OOOOOOOOOOO..XXXXXXXXX.............ooOOOOOOOOOOO",
"OOOOOOOOOO..XXXXXXXXXXXXXXXXXXXXXXXooOOOOOOOOOOO",
"OOOOOOOOOOOooXXXXXXXooooooooooooooooo++OOOOOOOOO",
"OOOOOOOOOOOOooXXXXXXooooooooooooooooo++OOOOOOOOO",
"OOOOOOOOOOOO+ooXXXXXoo+++++++++++++++++OOOOOOOOO",
"OOOOOOOOOOOOO+ooXXXXoo+++++++++++++++++OOOOOOOOO",
"OOOOOOOOOOOOOO+ooXXXoo+++++++++++++++++OOOOOOOOO",
"OOOOOOOOOOOOOOO+ooXXoo++OOOOOOOOOOOOOOOOOOOOOOOO",
"OOOOOOOOOOOOOOOO+ooXoo++OOOOOOOOOOOOOOOOOOOOOOOO",
"OOOOOOOOOOOOOOOOO+oooo++OOOOOOOOOOOOOOOOOOOOOOOO",
"OOOOOOOOOOOOOOOOOO+ooo++OOOOOOOOOOOOOOOOOOOOOOOO",
"OOOOOOOOOOOOOOOOOOO+oo++OOOOOOOOOOOOOOOOOOOOOOOO",
"OOOOOOOOOOOOOOOOOOOO+o++OOOOOOOOOOOOOOOOOOOOOOOO",
"OOOOOOOOOOOOOOOOOOOOO+++OOOOOOOOOOOOOOOOOOOOOOOO",
"OOOOOOOOOOOOOOOOOOOOOO++OOOOOOOOOOOOOOOOOOOOOOOO",
"OOOOOOOOOOOOOOOOOOOOOOO+OOOOOOOOOOOOOOOOOOOOOOOO",
"OOOOOOOOOOOOOOOOOOOOOOOOOOOOOO OOOOOOOOOOOOOOOOO",
"OOOOOOOOOOOO    OOOOOOOOOOOOOO OOOOOOOOOOOOOOOOO",
"OOOOOOOOOOOO OOO OOOOOOOOOOOOO OOOOOOOOOOOOOOOOO",
"OOOOOOOOOOOO OOO OO   OOOO   O OOO OOOOOOOOOOOOO",
"OOOOOOOOOOOO OOO O OOO OO OOOO OO OOOOOOOOOOOOOO",
"OOOOOOOOOOOO    OOOOOO O OOOOO O OOOOOOOOOOOOOOO",
"OOOOOOOOOOOO OOO OO    O OOOOO   OOOOOOOOOOOOOOO",
"OOOOOOOOOOOO OOO O OOO O OOOOO OO OOOOOOOOOOOOOO",
"OOOOOOOOOOOO OOO O OOO OO OOOO OO  OOOOOOOOOOOOO",
"OOOOOOOOOOOO    OOO   O OO   O OOO OOOOOOOOOOOOO",
"OOOOOOOOOOOOOOOOOOOOOOOOOOOOOOOOOOOOOOOOOOOOOOOO",
"OOOOOOOOOOOOOOOOOOOOOOOOOOOOOOOOOOOOOOOOOOOOOOOO"
};
