/* XPM */
static char *noname[] = {
/* width height ncolors chars_per_pixel */
"32 18 18 1",
/* colors */
"  c #717B7C",
". c #4B944C",
"X c #C0C0BF",
"o c #56EA55",
"O c #C4C5C5",
"+ c #B6C5B7",
"@ c #D7D8D7",
"# c #D2D2D2",
"$ c #A5A5A9",
"% c #B5E0B5",
"& c #A9D0A9",
"* c #5D8161",
"= c #ADABAC",
"- c #DBDAD9",
"; c #4DC450",
": c #30B030",
"> c none",
", c #BBBBBB",
/* pixels */
">>>>>>>>>>>>>>%>>>>>>>>>>>>>>>>>",
">>>>>>>>>>>>>&o>>>>>>>>>>>>>>>>>",
">>>>>>>>>>>>o:*@>>>>>>>>>>>>>>>>",
">>>>>>>>>>>&::*X>>>>>>>>>>>>>>>>",
">>>>>>>>>>o::.*,>>>>>>>>>>>>>>>>",
">>>>>>>>>&:::.*,>>>>>>>>>>>>>>>>",
">>>>>>>>o::::::oooooooo:*>>>>>>>",
">>>>>>>&::::::::::::::::*>>>>>>>",
">>>>>>%;:::::::::::::::.*#>>>>>>",
">>>>>>>+.:::::..........*,>>>>>>",
">>>>>>>>$.:::..********* ,>>>>>>",
">>>>>>>>-=.::.*,,,,,,,,,,,>>>>>>",
">>>>>>>>>>$.:.*,OOOOOOOOOO>>>>>>",
">>>>>>>>>>-=..*,>>>>>>>>>>>>>>>>",
">>>>>>>>>>>>$.*,>>>>>>>>>>>>>>>>",
">>>>>>>>>>>>-$*,>>>>>>>>>>>>>>>>",
">>>>>>>>>>>>>>X,>>>>>>>>>>>>>>>>",
">>>>>>>>>>>>>>-O>>>>>>>>>>>>>>>>"
};
