/* XPM */
static char *noname[] = {
/* width height ncolors chars_per_pixel */
"32 18 11 1",
/* colors */
"  c #D3CDC8",
". c #D5D5D3",
"X c #C4C5C5",
"o c #B6C5B7",
"O c #D7D8D7",
"+ c #D2D2D2",
"@ c #B5E0B5",
"# c #A9D0A9",
"$ c #DBDAD9",
"% c #ADB3B2",
"& c none",
/* pixels */
"&&&&&&&&&&&&&&.&&&&&&&&&&&&&&&&&",
"&&&&&&&&&&&&&+@&&&&&&&&&&&&&&&&&",
"&&&&&&&&&&&&@#o$&&&&&&&&&&&&&&&&",
"&&&&&&&&&&&+##o+&&&&&&&&&&&&&&&&",
"&&&&&&&&&&@###o+&&&&&&&&&&&&&&&&",
"&&&&&&&&&+####o+&&&&&&&&&&&&&&&&",
"&&&&&&&&@######@@@@@@@@#o&&&&&&&",
"&&&&&&&+################o&&&&&&&",
"&&&&&&.#################o$&&&&&&",
"&&&&&&&+%##############%o+&&&&&&",
"&&&&&&&& %####%oooooooooX+&&&&&&",
"&&&&&&&&$ %###o+++++++++++&&&&&&",
"&&&&&&&&&& %##o+OOOOOOOOOO&&&&&&",
"&&&&&&&&&&$ %%o+&&&&&&&&&&&&&&&&",
"&&&&&&&&&&&& %o+&&&&&&&&&&&&&&&&",
"&&&&&&&&&&&&$ o+&&&&&&&&&&&&&&&&",
"&&&&&&&&&&&&&&.+&&&&&&&&&&&&&&&&",
"&&&&&&&&&&&&&&$.&&&&&&&&&&&&&&&&"
};
