/* XPM */
static char *noname[] = {
/* width height ncolors chars_per_pixel */
"32 18 21 1",
/* colors */
"  c #832321",
". c #D9D5D1",
"X c #49EB49",
"o c #EF7070",
"O c #D3A9A0",
"+ c #A53434",
"@ c #32B332",
"# c #C9A8A6",
"$ c #D0B9B5",
"% c #B04040",
"& c #9A8F79",
"* c #E9302C",
"= c #AD2B1F",
"- c #CECECC",
"; c #327832",
": c #624E3A",
"> c #ACC0AA",
", c none",
"< c #CBD7CB",
"1 c #D0523F",
"2 c #BBBBBB",
/* pixels */
",,,,,,,,,,.OO.,,,,2,,$OO,,,,,,,,",
",,,,,,,,,,O**o,,<&2,$**+,,,,,,,,",
",,,,,,,,,,O*++1>@@,$*=+ .,,,,,,,",
",,,,,,,,,,-%++%@@-#*=+ &2.,,,,,,",
",,,,,,,,,,,,:@@;&O*=+ &22.,,,,,,",
",,,,,,,,,,,,X@;++==+ &222,,,,,,,",
",,,,,,,,,,<X@;:++++ &222,,,,,,,,",
",,,,,,,,,>X@;&#+++++222,,,,,,,,,",
",,,<<,,,XX@;&#*=++++1$,,,,,,,,,,",
",,,X@2,>X@@;#*=+  +++1,,,,,,,,,,",
",,,>@;XX@@;&*=+ &-%+++1.,,,,,,,,",
",,,,>@@@@;&*=+ &,,2%+++1,,,,,,,,",
",,,,.X@@;>O*+ &,,,,-%+  .,,,,,,,",
",,,,,<@;>2#  &,,,,,,2:  2.,,,,,,",
",,,,,,>>22-,,,,,,,,,,-222.,,,,,,",
",,,,,,,22-,,,,,,,,,,,,-22.,,,,,,",
",,,,,,,,-,,,,,,,,,,,,,,,,,,,,,,,",
",,,,,,,,,,,,,,,,,,,,,,,,,,,,,,,,"
};
