/* XPM */
static char *noname[] = {
/* width height ncolors chars_per_pixel */
"32 18 10 1",
/* colors */
"  c #D9D6D3",
". c #D4B3B0",
"X c #D1D2D1",
"o c #C7A3A3",
"O c #D5E0C4",
"+ c #C8C5C1",
"@ c #A3C8A3",
"# c #B2BAAD",
"$ c none",
"% c #BBBBBB",
/* pixels */
"$$$$$$$$$$    $$$$X$$   $$$$$$$$",
"$$$$$$$$$$ ...$$ +X$ ...$$$$$$$$",
"$$$$$$$$$$X.oo.X@#$ ..oo $$$$$$$",
"$$$$$$$$$$ .oo.@# X..oo%X $$$$$$",
"$$$$$$$$$$$$%@@#%X..oo+XX $$$$$$",
"$$$$$$$$$$$$@@#o...oo%XX $$$$$$$",
"$$$$$$$$$$ @@#%ooooo+XX $$$$$$$$",
"$$$$$$$$$O@@#%+.ooo.XX $$$$$$$$$",
"$$$  $$$O@@#+X..oooo. $$$$$$$$$$",
"$$$O@X$O@@@#X..ooooo..$$$$$$$$$$",
"$$$O@@O@@@#+..oo+ .ooo. $$$$$$$$",
"$$$$O@@@@#+..oo+$$X.oo..$$$$$$$$",
"$$$$$+@@#++.oo+$$$$ .ooo$$$$$$$$",
"$$$$$ @#+X+oo+$$$$$$X%ooX$$$$$$$",
"$$$$$$XXXX $$$$$$$$$$ XXX $$$$$$",
"$$$$$$$ X $$$$$$$$$$$$ XX $$$$$$",
"$$$$$$$$ $$$$$$$$$$$$$$$$$$$$$$$",
"$$$$$$$$$$$$$$$$$$$$$$$$$$$$$$$$"
};
