/* XPM */
static char *noname[] = {
/* width height ncolors chars_per_pixel */
"48 39 6 1",
/* colors */
"  c #D4B3B0",
". c #D1D2D1",
"X c #C7A3A3",
"o c #A3C8A3",
"O c #B2BAAD",
"+ c none",
/* pixels */
"++++++++++++++++++++++++++++++++++++++++++++++++",
"++++++++++++++++    +++++++o++++    ++++++++++++",
"++++++++++++++++     ++++oO++++    X++++++++++++",
"++++++++++++++++  XXX ++ooO+++  XXXX++++++++++++",
"++++++++++++++++XXXXXX ooO++.  XXXXX..++++++++++",
"+++++++++++++++++XXXXXooO++.  XXXXX...++++++++++",
"++++++++++++++++++XXoooOO+.  XXXXX....++++++++++",
"++++++++++++++++++.oooOXX   XXXXX.....++++++++++",
"++++++++++++++++++oooOOXXXXXXXXX.....+++++++++++",
"+++++++++++++++++oooOOXXXXXXXXX.....++++++++++++",
"++++++++++++++++oooOO.XXXXXXXX.....+++++++++++++",
"++++++++++++++ooooOO.. XXXXXX ....++++++++++++++",
"+++++++++++++ooooOO..  XXXXXXX +.+++++++++++++++",
"+++++oo+++++ooooOO..  XXXXXXXXX ++++++++++++++++",
"+++++ooO+++oooooOO.  XXXXXXXXXXX +++++++++++++++",
"+++++oooO+oooooOO.  XXXXX+.XXXXXX ++++++++++++++",
"++++++ooooooooOO.  XXXXX+++.XXXXXX +++++++++++++",
"+++++++ooooooOO.  XXXXX+++++.XXXXXXX++++++++++++",
"+++++++.ooooOO..  XXXX+++++++.XXXXXX++++++++++++",
"++++++++oooOO... XXXX+++++++++.XXXXX.+++++++++++",
"+++++++++oOO....XXXX+++++++++++.XXXX..++++++++++",
"++++++++++o.....++++++++++++++++......++++++++++",
"++++++++++.....++++++++++++++++++.....++++++++++",
"+++++++++++...++++++++++++++++++++....++++++++++",
"++++++++++++.+++++++++++++++++++++++++++++++++++",
"++++++++++++++++++++++++++++++++++++++++++++++++",
"++++++++++++++++++++++++++++++++++++++++++++++++",
"++++++++++++++O+++++++++++++++++O+++++++++++++++",
"++++++++OOOO++O+++++++++++++++++O+++++++++++++++",
"+++++++O++++O+O+++++++++++++++++O+++++++++++++++",
"++++++O+++++++O+OO+++OOO++++OOO+O+++O+++++++++++",
"++++++O+++++++OO++O+O+++O++O++++O++O++++++++++++",
"++++++O+++++++O+++O+O+++O+O+++++O+O+++++++++++++",
"++++++O+++++++O+++O+OOOOO+O+++++OOO+++++++++++++",
"++++++O+++++++O+++O+O+++++O+++++O++O++++++++++++",
"+++++++O++++O+O+++O+O+++O++O++++O++OO+++++++++++",
"++++++++OOOO++O+++O++OOO++++OOO+O+++O+++++++++++",
"++++++++++++++++++++++++++++++++++++++++++++++++",
"++++++++++++++++++++++++++++++++++++++++++++++++"
};
