/* XPM */
static char *noname[] = {
/* width height ncolors chars_per_pixel */
"32 18 9 1",
/* colors */
"  c #DAD7D2",
". c #D2ADA8",
"X c #D2D4D2",
"o c #ADCCAD",
"O c #CAC2BC",
"+ c #D1D1D0",
"@ c #B0B0AB",
"# c none",
"$ c #BBBBBB",
/* pixels */
"##########    ####X##   ########",
"########## ...##XoX# ...########",
"##########+....Xoo# ...@########",
"########## $...oo +...@OX#######",
"############$oo@$+...@OXX#######",
"############ooo.....@OXXX#######",
"########## ooo$.....OXXX########",
"#########Xooo$O.....XXX#########",
"###XX###+oooO+....... ##########",
"###ooX#Xooo@+.........##########",
"###Xoo+ooooO...@O $.... ########",
"####+oooooO...@O##X$....########",
"#####oooo+O..@O#### $..@########",
"#####Xoo+XO.@O######X$@@X#######",
"######X+XX ########## XXX#######",
"#######XX ############ XX#######",
"######## #######################",
"################################"
};
