/* XPM */
static char *noname[] = {
/* width height ncolors chars_per_pixel */
"32 18 33 1",
/* colors */
"  c #AEC5B1",
". c #BC2F10",
"X c #7F7754",
"o c #AFA3A4",
"O c #D1CCC2",
"+ c #D5D5D3",
"@ c #BFBEC4",
"# c #30C130",
"$ c #A23231",
"% c #56EA55",
"& c #922824",
"* c #C5C5C9",
"= c #B2B0A9",
"- c #D7D8D7",
"; c #D2D2D2",
": c #DFB6B4",
"> c #B5E0B5",
", c #DA5C56",
"< c #AC5453",
"1 c #426129",
"2 c #4B8F4C",
"3 c #817C6A",
"4 c #DDD9CE",
"5 c #D2A89F",
"6 c #AE3F3D",
"7 c #30B030",
"8 c #CBC5C2",
"9 c none",
"0 c #B1937D",
"q c #8E8F96",
"w c #BBBBBB",
"e c #A9CDA9",
"r c #72C476",
/* pixels */
"999999999945549999>99:5599999999",
"99999999995..,99>r>9:,.$99999999",
"99999999995.$$,e#2-:.6$&;-999999",
"9999999999O<$$6#2;5,6$&3w;999999",
"999999999999X##1X5.6$&0ww;999999",
"999999999999%#1&$66$&3ww@-999999",
"9999999999;%#1X$$$$&0ww@99999999",
"999999999e%#130$$$$6ww@-99999999",
"999>>999r#71q5.6$$$$,89999999999",
"999%7 9e#7715,6$&&$$$,9999999999",
"999e#7r#7720.6$&0;<$$$,499999999",
"9999r##7710,6$&099w<$$$<99999999",
"9999+%772o0.$&09999;<$&&-9999999",
"99999>#1ow0&&0999999wX&&@+999999",
"999999 =ww;9999999999;www;999999",
"999999-@w*999999999999*ww;999999",
"99999999;99999999999999999999999",
"99999999999999999999999999999999"
};
