/* XPM */
static char *noname[] = {
/* width height ncolors chars_per_pixel */
"32 18 21 1",
/* colors */
"  c #E8312B",
". c #49EB49",
"X c #CDBEBB",
"o c #825143",
"O c #31B331",
"+ c #CCAAA9",
"@ c #6C8B5E",
"# c #7D2220",
"$ c #D0D0CD",
"% c #D9D5D2",
"& c #A62D26",
"* c #BA9C8F",
"= c #B04040",
"- c #E8685F",
"; c #D8E0C5",
": c #ACC0AA",
"> c #307030",
", c none",
"< c #BC391B",
"1 c #BBBBBB",
"2 c #D5ACA3",
/* pixels */
",,,,,,,,,,%22%,,,,1,,X22,,,,,,,,",
",,,,,,,,,,2  -,,:@1,X  &,,,,,,,,",
",,,,,,,,,,2 &&-:O@,2 <&#$,,,,,,,",
",,,,,,,,,,$o&&oO@$+ <&#@1$,,,,,,",
",,,,,,,,,,,,oOO>@* <&#*11$,,,,,,",
",,,,,,,,,,,,.O>o&<<&#@11X,,,,,,,",
",,,,,,,,,,;.O>o&&&&#*11X,,,,,,,,",
",,,,,,,,,:.O>@*&&&&<11X,,,,,,,,,",
",,,::,,,..O>@* <&&&&-X,,,,,,,,,,",
",,,.O1,:.OO>* <&##&&&-,,,,,,,,,,",
",,,:OO..OO>* <&#*$o&&&-%,,,,,,,,",
",,,,:OOOO>* <&#*,,1o&&&=,,,,,,,,",
",,,,%.OO>:* &#*,,,,$o&##%,,,,,,,",
",,,,,;O>:1*##*,,,,,,1o##1%,,,,,,",
",,,,,,::11$,,,,,,,,,,$111$,,,,,,",
",,,,,,,X1$,,,,,,,,,,,,$11$,,,,,,",
",,,,,,,,$,,,,,,,,,,,,,,,,,,,,,,,",
",,,,,,,,,,,,,,,,,,,,,,,,,,,,,,,,"
};
