/* XPM */
static char *noname[] = {
/* width height ncolors chars_per_pixel */
"48 39 9 1",
/* colors */
"  c #000000",
". c #30EF30",
"X c #703030",
"o c #30B030",
"O c #307030",
"+ c #EF3030",
"@ c none",
"# c #B03030",
"$ c #BBBBBB",
/* pixels */
"@@@@@@@@@@@@@@@@@@@@@@@@@@@@@@@@@@@@@@@@@@@@@@@@",
"@@@@@@@@@@@@@@@@++++@@@@@@@o@@@@++++@@@@@@@@@@@@",
"@@@@@@@@@@@@@@@@+++++@@@@.O@@@@++++X@@@@@@@@@@@@",
"@@@@@@@@@@@@@@@@++###+@@.oO@@@++##XX@@@@@@@@@@@@",
"@@@@@@@@@@@@@@@@X#####+.oO@@$++###XX$$@@@@@@@@@@",
"@@@@@@@@@@@@@@@@@X####.oO@@$++###XX$$$@@@@@@@@@@",
"@@@@@@@@@@@@@@@@@@X#..oOO@$++###XX$$$$@@@@@@@@@@",
"@@@@@@@@@@@@@@@@@@$..oO##+++###XX$$$$$@@@@@@@@@@",
"@@@@@@@@@@@@@@@@@@..oOO#######XX$$$$$@@@@@@@@@@@",
"@@@@@@@@@@@@@@@@@..oOO#######XX$$$$$@@@@@@@@@@@@",
"@@@@@@@@@@@@@@@@..oOO$X######X$$$$$@@@@@@@@@@@@@",
"@@@@@@@@@@@@@@..ooOO$$+######+$$$$@@@@@@@@@@@@@@",
"@@@@@@@@@@@@@..ooOO$$++#######+@$@@@@@@@@@@@@@@@",
"@@@@@..@@@@@..ooOO$$++#########+@@@@@@@@@@@@@@@@",
"@@@@@.oO@@@..oooOO$++###XXX#####+@@@@@@@@@@@@@@@",
"@@@@@.ooO@..oooOO$++###XX@$X#####+@@@@@@@@@@@@@@",
"@@@@@@.oo..oooOO$++###XX@@@$X#####+@@@@@@@@@@@@@",
"@@@@@@@.oooooOO$++###XX@@@@@$X######@@@@@@@@@@@@",
"@@@@@@@$.oooOO$$++##XX@@@@@@@$X###XX@@@@@@@@@@@@",
"@@@@@@@@.ooOO$$$+XXXX@@@@@@@@@$XXXXX$@@@@@@@@@@@",
"@@@@@@@@@.OO$$$$#XXX@@@@@@@@@@@$XXXX$$@@@@@@@@@@",
"@@@@@@@@@@o$$$$$@@@@@@@@@@@@@@@@$$$$$$@@@@@@@@@@",
"@@@@@@@@@@$$$$$@@@@@@@@@@@@@@@@@@$$$$$@@@@@@@@@@",
"@@@@@@@@@@@$$$@@@@@@@@@@@@@@@@@@@@$$$$@@@@@@@@@@",
"@@@@@@@@@@@@$@@@@@@@@@@@@@@@@@@@@@@@@@@@@@@@@@@@",
"@@@@@@@@@@@@@@@@@@@@@@@@@@@@@@@@@@@@@@@@@@@@@@@@",
"@@@@@@@@@@@@@@@@@@@@@@@@@@@@@@@@@@@@@@@@@@@@@@@@",
"@@@@@@@@@@@@@@ @@@@@@@@@@@@@@@@@ @@@@@@@@@@@@@@@",
"@@@@@@@@    @@ @@@@@@@@@@@@@@@@@ @@@@@@@@@@@@@@@",
"@@@@@@@ @@@@ @ @@@@@@@@@@@@@@@@@ @@@@@@@@@@@@@@@",
"@@@@@@ @@@@@@@ @  @@@   @@@@   @ @@@ @@@@@@@@@@@",
"@@@@@@ @@@@@@@  @@ @ @@@ @@ @@@@ @@ @@@@@@@@@@@@",
"@@@@@@ @@@@@@@ @@@ @ @@@ @ @@@@@ @ @@@@@@@@@@@@@",
"@@@@@@ @@@@@@@ @@@ @     @ @@@@@   @@@@@@@@@@@@@",
"@@@@@@ @@@@@@@ @@@ @ @@@@@ @@@@@ @@ @@@@@@@@@@@@",
"@@@@@@@ @@@@ @ @@@ @ @@@ @@ @@@@ @@  @@@@@@@@@@@",
"@@@@@@@@    @@ @@@ @@   @@@@   @ @@@ @@@@@@@@@@@",
"@@@@@@@@@@@@@@@@@@@@@@@@@@@@@@@@@@@@@@@@@@@@@@@@",
"@@@@@@@@@@@@@@@@@@@@@@@@@@@@@@@@@@@@@@@@@@@@@@@@"
};
