/* XPM */
static char *noname[] = {
/* width height ncolors chars_per_pixel */
"48 39 6 1",
/* colors */
"  c #BB9F93",
". c #D2ADA8",
"X c #D2D4D2",
"o c #ADCCAD",
"O c #B0B0AB",
"+ c none",
/* pixels */
"++++++++++++++++++++++++++++++++++++++++++++++++",
"++++++++++++++++....+++++++o++++....++++++++++++",
"++++++++++++++++.....++++oO++++....O++++++++++++",
"++++++++++++++++......++ooO+++....OO++++++++++++",
"++++++++++++++++O......ooO++X.....OOXX++++++++++",
"+++++++++++++++++O....ooO++X.....OOXXX++++++++++",
"++++++++++++++++++O.oooOO+X.....OOXXXX++++++++++",
"++++++++++++++++++XoooO........OOXXXXX++++++++++",
"++++++++++++++++++oooOO.......OOXXXXX+++++++++++",
"+++++++++++++++++oooOO.......OOXXXXX++++++++++++",
"++++++++++++++++oooOOXO......OXXXXX+++++++++++++",
"++++++++++++++ooooOOXX........XXXX++++++++++++++",
"+++++++++++++ooooOOXX..........+X+++++++++++++++",
"+++++oo+++++ooooOOXX............++++++++++++++++",
"+++++ooO+++oooooOOX.....OOO......+++++++++++++++",
"+++++oooO+oooooOOX.....OO+XO......++++++++++++++",
"++++++ooooooooOOX.....OO+++XO......+++++++++++++",
"+++++++ooooooOOX.....OO+++++XO......++++++++++++",
"+++++++XooooOOXX....OO+++++++XO...OO++++++++++++",
"++++++++oooOOXXX.OOOO+++++++++XOOOOOX+++++++++++",
"+++++++++oOOXXXX.OOO+++++++++++XOOOOXX++++++++++",
"++++++++++oXXXXX++++++++++++++++XXXXXX++++++++++",
"++++++++++XXXXX++++++++++++++++++XXXXX++++++++++",
"+++++++++++XXX++++++++++++++++++++XXXX++++++++++",
"++++++++++++X+++++++++++++++++++++++++++++++++++",
"++++++++++++++++++++++++++++++++++++++++++++++++",
"++++++++++++++++++++++++++++++++++++++++++++++++",
"++++++++++++++ +++++++++++++++++ +++++++++++++++",
"++++++++    ++ +++++++++++++++++ +++++++++++++++",
"+++++++ ++++ + +++++++++++++++++ +++++++++++++++",
"++++++ +++++++ +  +++   ++++   + +++ +++++++++++",
"++++++ +++++++  ++ + +++ ++ ++++ ++ ++++++++++++",
"++++++ +++++++ +++ + +++ + +++++ + +++++++++++++",
"++++++ +++++++ +++ +     + +++++   +++++++++++++",
"++++++ +++++++ +++ + +++++ +++++ ++ ++++++++++++",
"+++++++ ++++ + +++ + +++ ++ ++++ ++  +++++++++++",
"++++++++    ++ +++ ++   ++++   + +++ +++++++++++",
"++++++++++++++++++++++++++++++++++++++++++++++++",
"++++++++++++++++++++++++++++++++++++++++++++++++"
};
