/* XPM */
static char *noname[] = {
/* width height ncolors chars_per_pixel */
"32 18 29 1",
/* colors */
"  c #495A2D",
". c #ADC5B0",
"X c #AF413F",
"o c #965E72",
"O c #CCCBC4",
"+ c #912724",
"@ c #D5D5D3",
"# c #30C730",
"$ c #BFBEC4",
"% c #56EA55",
"& c #8B8D97",
"* c #D3A89F",
"= c #D7D8D7",
"- c #D2D2D2",
"; c #DFB6B4",
": c #B5E0B5",
"> c #DA5C56",
", c #4A8F4B",
"< c #817C6A",
"1 c #ADA195",
"2 c #30B030",
"3 c #7F7750",
"4 c #BB2F11",
"5 c none",
"6 c #A23230",
"7 c #9BC49F",
"8 c #BBBBBB",
"9 c #D9CCBE",
"0 c #C8C4C1",
/* pixels */
"55555555559**95555:55;**55555555",
"5555555555*44>55:,:5;>4655555555",
"5555555555*466>.#,=;4X6+-=555555",
"5555555555Oo66X#,O*>X6+o8-555555",
"5555555555553## 3*4X6+<88-555555",
"555555555555%#,66XX6+o880=555555",
"5555555555-%#,36666+<88055555555",
"5555555557%#,<16666X880=55555555",
"555::555%#2,&*4X6666>05555555555",
"555%2.57#22 *>X6++666>5555555555",
"5557#2%#22,14X6+1-X666>955555555",
"55557##22 1>X6+o558X666>55555555",
"5555@%22,1*46+15555-X6++=5555555",
"55555:# 181++o55555583++$@555555",
"555555.788-5555555555-888-555555",
"555555=08O555555555555O88-555555",
"55555555-55555555555555555555555",
"55555555555555555555555555555555"
};
