/* XPM */
static char * chkbtn_xpm[] = {
"45 46 3 1",
" 	c none",
".	c #6F6F6F6F6F6F",
"X	c #000000000000",
"                                           .X",
"                                           .X",
"                                           .X",
"                                           .X",
"                                           .X",
"                                           .X",
"                                           .X",
"                XXXXXXXXXX                 .X",
"             XXX          XXX              .X",
"            X                X             .X",
"            X                X             .X",
"            XXXX          XXXX             .X",
"            X   XXXXXXXXXX   X             .X",
"            X                X             .X",
"            X                X             .X",
"            X                X             .X",
"            X                X             .X",
"            X                X             .X",
"            X                X             .X",
"            X                X             .X",
"            X                X             .X",
"            X                X             .X",
"            X                X             .X",
"            X                X             .X",
"             XXX          XXX              .X",
"                XXXXXXXXXX                 .X",
"                                           .X",
"                                           .X",
"                                           .X",
"                                           .X",
"          XXXXXXX           XX             .X",
"         XX   X X            X             .X",
"         X      XXX   XX  XX X  X          .X",
"         X      X  X X X X   X X           .X",
"         X      X  X XX  X   XXX           .X",
"         XX   X X  X X   X   X  X          .X",
"          XXXX  XX XX XX  XX X  XX         .X",
"                                           .X",
"                                           .X",
"                                           .X",
"                                           .X",
"                                           .X",
"                                           .X",
"                                           .X",
"                                           .X",
"............................................X"};
