/* XPM */
static char *noname[] = {
/* width height ncolors chars_per_pixel */
"32 18 20 1",
/* colors */
"  c #728769",
". c #BB9F93",
"X c #E8312B",
"o c #DAD7D2",
"O c #66C166",
"+ c #4AEB4A",
"@ c #D2ADA8",
"# c #742321",
"$ c #D2D4D2",
"% c #ADCCAD",
"& c #AC312F",
"* c #B04040",
"= c #CAC2BC",
"- c #D1D1D0",
"; c #30B030",
": c #B0B0AB",
"> c none",
", c #DF635B",
"< c #425E37",
"1 c #BBBBBB",
/* pixels */
">>>>>>>>>>o@@o>>>>%>>@@@>>>>>>>>",
">>>>>>>>>>@XX,>>%O%>@XX&>>>>>>>>",
">>>>>>>>>>@X&&,%; >@X&&#$>>>>>>>",
">>>>>>>>>>-*&&*; -@X&&# 1$>>>>>>",
">>>>>>>>>>>> ;;< .X&&# 11$>>>>>>",
">>>>>>>>>>>>+;<#&&&&# 11=>>>>>>>",
">>>>>>>>>>$+;< &&&&# 11=>>>>>>>>",
">>>>>>>>>%+;< .&&&&&11=>>>>>>>>>",
">>>%%>>>O+;< .X&&&&&,=>>>>>>>>>>",
">>>O;1>%+;;<.X&&##&&&,>>>>>>>>>>",
">>>%;;O+;;<.X&&#.-*&&&,o>>>>>>>>",
">>>>O;;;;<.X&&#.>>1*&&&,>>>>>>>>",
">>>>$O;;<:.X&#.>>>>-*&##o>>>>>>>",
">>>>>%;<:1.##.>>>>>>1*##1$>>>>>>",
">>>>>>%:11->>>>>>>>>>-111$>>>>>>",
">>>>>>>=1->>>>>>>>>>>>-11$>>>>>>",
">>>>>>>>->>>>>>>>>>>>>>>>>>>>>>>",
">>>>>>>>>>>>>>>>>>>>>>>>>>>>>>>>"
};
