/* XPM */
static char *noname[] = {
/* width height ncolors chars_per_pixel */
"32 18 33 1",
/* colors */
"  c #717B7C",
". c #C3300A",
"X c #4B944C",
"o c #D3CDC8",
"O c #A8322E",
"+ c #C0C0BF",
"@ c #857E64",
"# c #504E3D",
"$ c #D5D5D3",
"% c #56EA55",
"& c #C4C5C5",
"* c #962A28",
"= c #B6C5B7",
"- c #D7D8D7",
"; c #807750",
": c #CCA9A8",
"> c #B03C37",
", c #D2D2D2",
"< c #A5A5A9",
"1 c #A89781",
"2 c #B5E0B5",
"3 c #A9D0A9",
"4 c #C7A49F",
"5 c #DBDAD9",
"6 c #4DC450",
"7 c #D5A99B",
"8 c #30B030",
"9 c #9F5B5F",
"0 c none",
"q c #C9C7C6",
"w c #E2BAAD",
"e c #BBBBBB",
"r c #DD6452",
/* pixels */
"0000000000o77o0000200w7700000000",
"00000000007..r002620wr.>00000000",
"00000000007>OOr38X5w.>**,5000000",
"0000000000o9OO>8Xo:r>O*@e,000000",
"000000000000;68#;7.>O*1ee,000000",
"000000000000%8X*O>>O*@ee&5000000",
"0000000000,%8X;OOOO*1ee&00000000",
"0000000003%8X 1OOOO>ee&500000000",
"00022000%88X 4.>OOOOr+0000000000",
"000%6=03888#4r>O**OOOr0000000000",
"000388%888X1.>O*1o9OOOro00000000",
"0000%8888X1r>O*100+9OOOr00000000",
"0000$%88X<4>**10000o9***-0000000",
"0000028X<e1**1000000+9**+$000000",
"000000=<ee,0000000000oeee,000000",
"0000005&eq000000000000qee,000000",
"00000000,00000000000000000000000",
"00000000000000000000000000000000"
};
