/* XPM */
static char *noname[] = {
/* width height ncolors chars_per_pixel */
"32 18 15 1",
/* colors */
"  c #D6D6D5",
". c #CDC9C2",
"X c #DBD0CC",
"o c #D8B8B8",
"O c #C3ADAD",
"+ c #C5C5C9",
"@ c #D2D2D2",
"# c #CBD0CB",
"$ c #B0BEAD",
"% c #BABABA",
"& c #C0BDBC",
"* c #B7C5B6",
"= c #CCA69F",
"- c #9AE298",
"; c none",
/* pixels */
";;;;;;;;;; XX ;;;; ;;XXX;;;;;;;;",
";;;;;;;;;;Xooo;; * ;Xoo=;;;;;;;;",
";;;;;;;;;;X===o@$*;X==OO ;;;;;;;",
";;;;;;;;;; O==O** Xo==O&@ ;;;;;;",
";;;;;;;;;;;;&*$$&X===O&@@ ;;;;;;",
";;;;;;;;;;;;*-$O====O&@@ ;;;;;;;",
";;;;;;;;;; *$$%====O&@@ ;;;;;;;;",
";;;;;;;;;#*$$*.=====@@ ;;;;;;;;;",
";;;  ;;;#-$$+X======o ;;;;;;;;;;",
";;;**@;#-$$$Xo==OO===o;;;;;;;;;;",
";;;#$$#-$$$.===O. O===o ;;;;;;;;",
";;;;#$$$$$.o==O.;;@O===o;;;;;;;;",
";;;;;*$$$#.=OO.;;;; OOOO;;;;;;;;",
";;;;; $$#@.OO.;;;;;;@OOO@;;;;;;;",
";;;;;;@#@@ ;;;;;;;;;; @@@ ;;;;;;",
";;;;;;; @ ;;;;;;;;;;;; @@ ;;;;;;",
";;;;;;;; ;;;;;;;;;;;;;;;;;;;;;;;",
";;;;;;;;;;;;;;;;;;;;;;;;;;;;;;;;"
};
