/* XPM */
static char *noname[] = {
/* width height ncolors chars_per_pixel */
"32 18 21 1",
/* colors */
"  c #D6D6D5",
". c #BABAB9",
"X c #BE5E64",
"o c #932926",
"O c #D8B8B5",
"+ c #C4C5C5",
"@ c #54555A",
"# c #D2D2D2",
"$ c #CDCECD",
"% c #AC3836",
"& c #AFBFAB",
"* c #B7C5B6",
"= c #A6A498",
"- c #DBCFCC",
"; c #C39D9A",
": c #D0A8A0",
"> c #C1300A",
", c #6EC16D",
"< c #9AE298",
"1 c none",
"2 c #8B8793",
/* pixels */
"1111111111-::-1111*11O::11111111",
"1111111111:>>X11*,*1OX>%11111111",
"1111111111:%%%X&,, O>%oo# 111111",
"1111111111$X%%%,,$:%%%o2.#111111",
"111111111111@,,@X;>%%o2..#111111",
"111111111111,,@o%%%%o2..+ 111111",
"1111111111#,,@@%%%%o2..+11111111",
"111111111<,,@,;%%%%%..+ 11111111",
"111**111<,,@2;>%%%%%XO1111111111",
"111,,*1<,,@@;%%%oo%%%X1111111111",
"111<,@<,,,@2>%%o=$%%%%X-11111111",
"1111,,,,,@2%%%o211.%%%%X11111111",
"1111 ,,,@=;%oo=1111$%ooo 1111111",
"11111*,@=.;oo2111111.@oo. 111111",
"111111*=..$1111111111$...#111111",
"111111 +.$111111111111$..#111111",
"11111111$11111111111111111111111",
"11111111111111111111111111111111"
};
