/* XPM */
static char *noname[] = {
/* width height ncolors chars_per_pixel */
"32 18 6 1",
/* colors */
"  c #DAD7D2",
". c #D2ADA8",
"X c #D2D4D2",
"o c #CAC2BC",
"O c #D1D1D0",
"+ c none",
/* pixels */
"++++++++++++++             +++++",
"+++++++++++++ o..........o.O++++",
"++++++++++++ oooooooooooo..O++++",
"++++++++++++...............o +++",
"++++++++++++...............o +++",
"++++++++++++...............o +++",
"+++        O...............oO ++",
"++o...................o.....o.++",
"+oooooooooo..............ooo..++",
"O.............................X+",
"O.............................X+",
"O.............................X+",
"O.............................X+",
"O...........o................OX+",
"O...........................XXX+",
" OooooooooooooooooooooooooooXX++",
"++XXXXXXXXXXXXXXXXXXXXXXXXXXX+++",
"++++++++++++++++++++++++++++++++"
};
