/* XPM */
static char *noname[] = {
/* width height ncolors chars_per_pixel */
"32 18 13 1",
/* colors */
"  c #D6D6D5",
". c #C9AAA6",
"X c #9D2D2B",
"o c #D2D2D2",
"O c #D4CEC9",
"+ c #C4C5C6",
"@ c #B5B3A6",
"# c #B69F96",
"$ c none",
"% c #D9B5B1",
"& c #BBBBBB",
"* c #C6504C",
"= c #DDD9CF",
/* pixels */
"$$$$$$$$$$$$$$%%%%%%%%%%%%%=$$$$",
"$$$$$$$$$$$$$%*************.$$$$",
"$$$$$$$$$$$$%*************X# $$$",
"$$$$$$$$$$$$*************XX#+$$$",
"$$$$$$$$$$$$XXXXXXXXXXXXXXX#+$$$",
"$$$$$$$$$$$$XX**********XXX#+$$$",
"$$=%%%%%%%%%XX**********XXX#.%$$",
"$$.*********X***********XX****$$",
"=.**********XXXXXXXXXXXX*****Xo ",
"%***********XXXXXXXXXXXX****XX&o",
".*XXXXXXXXXXX*XXXXXXXXXXXXXXXX&o",
".*X***********XX***********XXX&o",
".*X***********XX***********XXX&o",
".*X***********XX***********XX@&o",
".XXXXXXXXXXXXXXXXXXXXXXXXXXX&&& ",
"O.##########################&& $",
"$$&&&&&&&&&&&&&&&&&&&&&&&&&&&o$$",
"$$ooooooooooooooooooooooooooo $$"
};
