/* XPM */
static char *noname[] = {
/* width height ncolors chars_per_pixel */
"48 39 5 1",
/* colors */
"  c #CDBEBB",
". c #CCAAA9",
"X c #D0D0CD",
"o c #BA9C8F",
"O c none",
/* pixels */
"OOOOOOOOOOOOOOOOOOOOOOOOOOOOOOOOOOOOOOOOOOOOOOOO",
"OOOOOOOOOOOOOOOOOOOOO                    OOOOOOO",
"OOOOOOOOOOOOOOOOOOOO  ................  .OOOOOOO",
"OOOOOOOOOOOOOOOOOOO                    ..OOOOOOO",
"OOOOOOOOOOOOOOOOOO                    ...XXOOOOO",
"OOOOOOOOOOOOOOOOOO.......................XXOOOOO",
"OOOOOOOOOOOOOOOOOO.......................XXOOOOO",
"OOOOOOOOOOOOOOOOOO................. .....XXOOOOO",
"OOOOOOOOOOOOOOOOOO................. .....XXOOOOO",
"OOOOOOOOOOOOOOOOOO................. .....XXOOOOO",
"OOOO             ................. ....      OOO",
"OOO  ..............                .......  .OOO",
"OO               ....................      ..OOO",
"O                ...................      ...XXO",
"O............................................XXO",
"O............................................XXO",
"O.................. ................... .....XXO",
"O.................. ................... .....XXO",
"O.................. ................... .....XXO",
"O.................. ................... ....XXXO",
"O...                ....                ...XXXXO",
"O.........................................XXXXXO",
"O.........................................XXXXOO",
"OOOXXXXXXXXXXXXXXXXXXXXXXXXXXXXXXXXXXXXXXXXXXOOO",
"OOOXXXXXXXXXXXXXXXXXXXXXXXXXXXXXXXXXXXXXXXXXOOOO",
"OOOXXXXXXXXXXXXXXXXXXXXXXXXXXXXXXXXXXXXXXXXXOOOO",
"OOOOOOOOOOOOOOOOOOOOOOOOOOOOOOOOOOOOOOOOOOOOOOOO",
"OOOOOOOOOOOOOOOOOOOOOOOOOoOoOOOOOoOOOOOOOOOOOOOO",
"OOOOOOOOOOOOOooooOOOOOOOOoOoOOOOOoOOOOOOOOOOOOOO",
"OOOOOOOOOOOOOoOOOoOOOOOOOOOoOOOOOoOOOOOOOOOOOOOO",
"OOOOOOOOOOOOOoOOOoOoOOOoOoOoOOooooOOOOOOOOOOOOOO",
"OOOOOOOOOOOOOoOOOoOoOOOoOoOoOoOOOoOOOOOOOOOOOOOO",
"OOOOOOOOOOOOOooooOOoOOOoOoOoOoOOOoOOOOOOOOOOOOOO",
"OOOOOOOOOOOOOoOOOoOoOOOoOoOoOoOOOoOOOOOOOOOOOOOO",
"OOOOOOOOOOOOOoOOOoOoOOOoOoOoOoOOOoOOOOOOOOOOOOOO",
"OOOOOOOOOOOOOoOOOoOoOOooOoOoOoOOooOOOOOOOOOOOOOO",
"OOOOOOOOOOOOOooooOOOooOoOoOoOOooOoOOOOOOOOOOOOOO",
"OOOOOOOOOOOOOOOOOOOOOOOOOOOOOOOOOOOOOOOOOOOOOOOO",
"OOOOOOOOOOOOOOOOOOOOOOOOOOOOOOOOOOOOOOOOOOOOOOOO"
};
