/* XPM */
static char *noname[] = {
/* width height ncolors chars_per_pixel */
"32 18 10 1",
/* colors */
"  c #BCA9AB",
". c #D1CCC2",
"X c #D0B0AA",
"o c #D7D8D7",
"O c #D2D2D2",
"+ c #DFB6B4",
"@ c #DDD9CE",
"# c #D2A89F",
"$ c #CBC5C2",
"% c none",
/* pixels */
"%%%%%%%%%%%%%%@@@@@@@@@@@@@%%%%%",
"%%%%%%%%%%%%%@+XXXXXXXXXX++O%%%%",
"%%%%%%%%%%%%@+++++++++++++ .o%%%",
"%%%%%%%%%%%%XXXXXXXXXXXXX# $o%%%",
"%%%%%%%%%%%%X XXXXXXXXXXX  $o%%%",
"%%%%%%%%%%%%XXXXXXXXXXX+X  $o%%%",
"%%%@@@@@@@@OXXXXXXXXXXX+X X$O@%%",
"%%.+XXXXXXXXX++++++++++X XXX+X%%",
"%.+++++++++XXXXXXXXXXXXXX+++X o%",
"OXXXXXXXXXXXXX XXXXXXXXXXXXX  Oo",
"OX#XXXXXXXXXXXXXXXXXXXXXXXXX  Oo",
"OXXXXXXXXXXXXXXXXXXXXXXXXX+X  Oo",
"OXXXXXXXXXXXXXXXXXXXXXXXXX+X XOo",
"OXX++++++++++XXX+++++++++++XXOOo",
"OXXXXXXXXXXXXX XXXXXXXXXXXX OOOo",
"o.$$$$$$$$$$$$$$$$$$$$$$$$$$OOo%",
"%%OOOOOOOOOOOOOOOOOOOOOOOOOOOo%%",
"%%ooooooooooooooooooooooooooo%%%"
};
