/* XPM */
static char *noname[] = {
/* width height ncolors chars_per_pixel */
"48 39 6 1",
/* colors */
"  c #CFADAD",
". c #E2BCBC",
"X c #D2D2D2",
"o c #9A9A9A",
"O c none",
"+ c #C5A4A4",
/* pixels */
"OOOOOOOOOOOOOOOOOOOOOOOOOOOOOOOOOOOOOOOOOOOOOOOO",
"OOOOOOOOOOOOOOOOOOOOO....................OOOOOOO",
"OOOOOOOOOOOOOOOOOOOO..                ..+OOOOOOO",
"OOOOOOOOOOOOOOOOOOO....................++OOOOOOO",
"OOOOOOOOOOOOOOOOOO....................+++XXOOOOO",
"OOOOOOOOOOOOOOOOOO                   ++++XXOOOOO",
"OOOOOOOOOOOOOOOOOO +++++++++++++++++ ++++XXOOOOO",
"OOOOOOOOOOOOOOOOOO +               . ++++XXOOOOO",
"OOOOOOOOOOOOOOOOOO +               . ++++XXOOOOO",
"OOOOOOOOOOOOOOOOOO +               . ++++XXOOOOO",
"OOOO............. +               . +++......OOO",
"OOO..             +................ ++    ..+OOO",
"OO...............                   +......++OOO",
"O................+++++++++++++++++++......+++XXO",
"O                    +                   ++++XXO",
"O  +++++++++++++++++ + +++++++++++++++++ ++++XXO",
"O  +               . + +               . ++++XXO",
"O  +               . + +               . ++++XXO",
"O  +               . + +               . ++++XXO",
"O  +               . + +               . +++XXXO",
"O  +................ + +................ ++XXXXO",
"O                    +                   +XXXXXO",
"O+++++++++++++++++++++++++++++++++++++++++XXXXOO",
"OOOXXXXXXXXXXXXXXXXXXXXXXXXXXXXXXXXXXXXXXXXXXOOO",
"OOOXXXXXXXXXXXXXXXXXXXXXXXXXXXXXXXXXXXXXXXXXOOOO",
"OOOXXXXXXXXXXXXXXXXXXXXXXXXXXXXXXXXXXXXXXXXXOOOO",
"OOOOOOOOOOOOOOOOOOOOOOOOOOOOOOOOOOOOOOOOOOOOOOOO",
"OOOOOOOOOOOOOOOOOOOOOOOOOoOoOOOOOoOOOOOOOOOOOOOO",
"OOOOOOOOOOOOOooooOOOOOOOOoOoOOOOOoOOOOOOOOOOOOOO",
"OOOOOOOOOOOOOoOOOoOOOOOOOOOoOOOOOoOOOOOOOOOOOOOO",
"OOOOOOOOOOOOOoOOOoOoOOOoOoOoOOooooOOOOOOOOOOOOOO",
"OOOOOOOOOOOOOoOOOoOoOOOoOoOoOoOOOoOOOOOOOOOOOOOO",
"OOOOOOOOOOOOOooooOOoOOOoOoOoOoOOOoOOOOOOOOOOOOOO",
"OOOOOOOOOOOOOoOOOoOoOOOoOoOoOoOOOoOOOOOOOOOOOOOO",
"OOOOOOOOOOOOOoOOOoOoOOOoOoOoOoOOOoOOOOOOOOOOOOOO",
"OOOOOOOOOOOOOoOOOoOoOOooOoOoOoOOooOOOOOOOOOOOOOO",
"OOOOOOOOOOOOOooooOOOooOoOoOoOOooOoOOOOOOOOOOOOOO",
"OOOOOOOOOOOOOOOOOOOOOOOOOOOOOOOOOOOOOOOOOOOOOOOO",
"OOOOOOOOOOOOOOOOOOOOOOOOOOOOOOOOOOOOOOOOOOOOOOOO"
};
