/* XPM */
static char *noname[] = {
/* width height ncolors chars_per_pixel */
"32 18 8 1",
/* colors */
"  c #D6D6D5",
". c #C9AAA6",
"X c #D2D2D2",
"o c #D4CEC9",
"O c #CCC7C3",
"+ c none",
"@ c #D9B5B1",
"# c #DDD9CF",
/* pixels */
"++++++++++++++#############+++++",
"+++++++++++++#@@@@@@@@@@@@@o++++",
"++++++++++++o@@@@@@@@@@@@@.o++++",
"++++++++++++@@@@@@@@@@@@@..O +++",
"++++++++++++...............O +++",
"++++++++++++...........@...O +++",
"+++########o..........@@...Oo#++",
"++o@@@@@@@@@.@@@@@@@@@@@..@@@@++",
"+o@@@@@@@@@@............@@@@@. +",
"o@@@@@@@@@@.............@@@@..X ",
"o.............................X ",
"o...........@@............@...X ",
"o...........@@............@...X ",
"o..@@@@@@@@@@@..@@@@@@@@@@@..oX ",
"o...........................XXX+",
" oOOOOOOOOOOOOOOOOOOOOOOOOOOXX++",
"++XXXXXXXXXXXXXXXXXXXXXXXXXXX ++",
"++                           +++"
};
