/* XPM */
static char *noname[] = {
/* width height ncolors chars_per_pixel */
"32 18 11 1",
/* colors */
"  c #D6D6D5",
". c #D8B8B5",
"X c #DDD9D0",
"o c #D2D2D2",
"O c #CDCECD",
"+ c #DBCFCC",
"@ c #C39D9A",
"# c #D0A8A0",
"$ c #C0ACAD",
"% c none",
"& c #CDC8C3",
/* pixels */
"%%%%%%%%%%%%%%XXXXXXXXXXXXX%%%%%",
"%%%%%%%%%%%%%+.............+%%%%",
"%%%%%%%%%%%%+.............@&%%%%",
"%%%%%%%%%%%%.............#@& %%%",
"%%%%%%%%%%%%#############@@& %%%",
"%%%%%%%%%%%%###########.#@@& %%%",
"%%%+++++++++##########..#@#&++%%",
"%%+.........#...........@#....%%",
"%+..........############.....@ %",
"+..........#############....@@o ",
"+###########################@@o ",
"+###########..############.#@@o ",
"+###########..############.#@$o ",
"+##...........##...........#$Oo ",
"+###########################ooo%",
" +&&&&&&&&&&&&&&&&&&&&&&&&&&oo%%",
"%%ooooooooooooooooooooooooooo %%",
"%%                           %%%"
};
