/* XPM */
static char *noname[] = {
/* width height ncolors chars_per_pixel */
"32 18 13 1",
/* colors */
"  c #832321",
". c #D9D5D1",
"X c #EF7070",
"o c #D3A9A0",
"O c #A53434",
"+ c #C9A8A6",
"@ c #D0B9B5",
"# c #B04040",
"$ c #9A8F79",
"% c #CECECC",
"& c none",
"* c #D0523F",
"= c #BBBBBB",
/* pixels */
"&&&&&&&&&&&&&&@@@@@@@@@@@@@.&&&&",
"&&&&&&&&&&&&&oX**********XX+&&&&",
"&&&&&&&&&&&&oXXXXXXXXXXXX* +.&&&",
"&&&&&&&&&&&&************#O $%&&&",
"&&&&&&&&&&&&O OOOOOOOOOOO  $%&&&",
"&&&&&&&&&&&&OO#########XO  $%&&&",
"&&.@@@@@@@@oOO#########*O #$o@&&",
"&&X********#OXXXXXXXXXX* O**X*&&",
".XXXXXXXXXX#OOOOOOOOOOOO*XXX# .&",
"@**********#OO OOOOOOOOO***#  =.",
"+# OOOOOOOOOO#OOOOOOOOOOOO#O  =.",
"+#O#########**OO##########XO  =.",
"+#O#########**OO##########XO #=.",
"+#OXXXXXXXXXX*OOXXXXXXXXXXXO#+=.",
"+OOOOOOOOOOOOO OOOOOOOOOOOO ===.",
"%+$$$$$$$$$$$$$$$$$$$$$$$$$$==.&",
"&&===========================.&&",
"&&...........................&&&"
};
