/* XPM */
static char *noname[] = {
/* width height ncolors chars_per_pixel */
"32 18 10 1",
/* colors */
"  c #CCCBC4",
". c #D7D8D7",
"X c #D2D2D2",
"o c #DFB6B4",
"O c #CFB0AA",
"+ c #CAA8A8",
"@ c #DDD9CE",
"# c none",
"$ c #D9CCBE",
"% c #C8C4C1",
/* pixels */
"##############@@@@@@@@@@@@@#####",
"#############@oOOOOOOOOOOooX####",
"############$ooooooooooooo+ .###",
"############OOOOOOOOOOOOO++%.###",
"############+++++++++++++++%.###",
"############++OOOOOOOOOo+++%.###",
"###@@@@@@@@X++OOOOOOOOOo++O$X@##",
"##$oOOOOOOOO+ooooooooooO++OOoO##",
"#$oooooooooO++++++++++++OoooO+.#",
"XOOOOOOOOOOO++++++++++++OOOO++X.",
"XO+++++++++++O++++++++++++O+++X.",
"XO+OOOOOOOOOOO++OOOOOOOOOOo+++X.",
"XO+OOOOOOOOOOO++OOOOOOOOOOo++OX.",
"XO+ooooooooooO++ooooooooooo+OXX.",
"X+++++++++++++++++++++++++++XXX.",
". %%%%%%%%%%%%%%%%%%%%%%%%%%XX.#",
"##XXXXXXXXXXXXXXXXXXXXXXXXXXX.##",
"##...........................###"
};
