/* XPM */
static char *noname[] = {
/* width height ncolors chars_per_pixel */
"32 18 19 1",
/* colors */
"  c #AF413F",
". c #CCCBC4",
"X c #912724",
"o c #BFBEC4",
"O c #D3A89F",
"+ c #D7D8D7",
"@ c #D2D2D2",
"# c #DFB6B4",
"$ c #DA5C56",
"% c #9F929C",
"& c #CFB0AA",
"* c #CAA8A8",
"= c #DDD9CE",
"- c #ADA195",
"; c #B1B0A9",
": c none",
"> c #A23230",
", c #BBBBBB",
"< c #C8C4C1",
/* pixels */
"::::::::::::::#############=::::",
":::::::::::::#$$$$$$$$$$$$$*::::",
"::::::::::::O$$$$$$$$$$$$$X-+:::",
"::::::::::::$$$$$$$$$$$$ XX%<:::",
"::::::::::::>X>>>>>>>>>>>XX%<:::",
"::::::::::::>>         $>XX%<:::",
"::=########&>          $>X -&#::",
"::O$$$$$$$$ >$$$$$$$$$$$X>$$$ ::",
"=O$$$$$$$$$ >>>>>>>>>>>>$$$$ X@+",
"&$$$$$$$$$$ >>X>>>>>>>>>$$$ XX,@",
"* X>>>>>>>>>> >>>>>>>>>>>> XXX,@",
"* >         $$>>          $XXX,@",
"* >         $$>>          $XX ,@",
"* >$$$$$$$$$$$>>$$$$$$$$$$$X ;,@",
"*>>>>>>>>>>>>>X>>>>>>>>>>>>X,,o+",
".*%%%%%%%%%%%%%%%%%%%%%%%%%%,,+:",
"::,,,,,,,,,,,,,,,,,,,,,,,,,,,@::",
"::@@@@@@@@@@@@@@@@@@@@@@@@@@@+::"
};
