/* XPM */
static char *noname[] = {
/* width height ncolors chars_per_pixel */
"48 39 5 1",
/* colors */
"  c #D4B3B0",
". c #D1D2D1",
"X c #C7A3A3",
"o c #B2BAAD",
"O c none",
/* pixels */
"OOOOOOOOOOOOOOOOOOOOOOOOOOOOOOOOOOOOOOOOOOOOOOOO",
"OOOOOOOOOOOOOOOOOOOOO                    OOOOOOO",
"OOOOOOOOOOOOOOOOOOOO                    XOOOOOOO",
"OOOOOOOOOOOOOOOOOOO                    XXOOOOOOO",
"OOOOOOOOOOOOOOOOOO                    XXX..OOOOO",
"OOOOOOOOOOOOOOOOOO                   XXXX..OOOOO",
"OOOOOOOOOOOOOOOOOO XXXXXXXXXXXXXXXXX XXXX..OOOOO",
"OOOOOOOOOOOOOOOOOO X                 XXXX..OOOOO",
"OOOOOOOOOOOOOOOOOO X                 XXXX..OOOOO",
"OOOOOOOOOOOOOOOOOO X                 XXXX..OOOOO",
"OOOO              X                 XXX      OOO",
"OOO               X                 XX      XOOO",
"OO                                  X      XXOOO",
"O                XXXXXXXXXXXXXXXXXXX      XXX..O",
"O                    X                   XXXX..O",
"O  XXXXXXXXXXXXXXXXX X XXXXXXXXXXXXXXXXX XXXX..O",
"O  X                 X X                 XXXX..O",
"O  X                 X X                 XXXX..O",
"O  X                 X X                 XXXX..O",
"O  X                 X X                 XXX...O",
"O  X                 X X                 XX....O",
"O                    X                   X.....O",
"OXXXXXXXXXXXXXXXXXXXXXXXXXXXXXXXXXXXXXXXXX....OO",
"OOO..........................................OOO",
"OOO.........................................OOOO",
"OOO.........................................OOOO",
"OOOOOOOOOOOOOOOOOOOOOOOOOOOOOOOOOOOOOOOOOOOOOOOO",
"OOOOOOOOOOOOOOOOOOOOOOOOOoOoOOOOOoOOOOOOOOOOOOOO",
"OOOOOOOOOOOOOooooOOOOOOOOoOoOOOOOoOOOOOOOOOOOOOO",
"OOOOOOOOOOOOOoOOOoOOOOOOOOOoOOOOOoOOOOOOOOOOOOOO",
"OOOOOOOOOOOOOoOOOoOoOOOoOoOoOOooooOOOOOOOOOOOOOO",
"OOOOOOOOOOOOOoOOOoOoOOOoOoOoOoOOOoOOOOOOOOOOOOOO",
"OOOOOOOOOOOOOooooOOoOOOoOoOoOoOOOoOOOOOOOOOOOOOO",
"OOOOOOOOOOOOOoOOOoOoOOOoOoOoOoOOOoOOOOOOOOOOOOOO",
"OOOOOOOOOOOOOoOOOoOoOOOoOoOoOoOOOoOOOOOOOOOOOOOO",
"OOOOOOOOOOOOOoOOOoOoOOooOoOoOoOOooOOOOOOOOOOOOOO",
"OOOOOOOOOOOOOooooOOOooOoOoOoOOooOoOOOOOOOOOOOOOO",
"OOOOOOOOOOOOOOOOOOOOOOOOOOOOOOOOOOOOOOOOOOOOOOOO",
"OOOOOOOOOOOOOOOOOOOOOOOOOOOOOOOOOOOOOOOOOOOOOOOO"
};
