/* XPM */
static char *noname[] = {
/* width height ncolors chars_per_pixel */
"32 18 12 1",
/* colors */
"  c #D3CDC8",
". c #D5D5D3",
"X c #CFABA8",
"o c #D7D8D7",
"O c #CCA9A8",
"+ c #D2D2D2",
"@ c #C7A49F",
"# c #D4B3AB",
"$ c #DBDAD9",
"% c none",
"& c #C9C7C6",
"* c #E2BAAD",
/* pixels */
"%%%%%%%%%%%%%%.............$%%%%",
"%%%%%%%%%%%%%.*##########** %%%%",
"%%%%%%%%%%%% *************@ $%%%",
"%%%%%%%%%%%%#############O@&o%%%",
"%%%%%%%%%%%%OOOOOOOOOOOOO@@&o%%%",
"%%%%%%%%%%%%OOXXXXXXXXX*O@@&o%%%",
"%%$........ OXXXXXXXXX##O@X  .%%",
"%% #########O**********#@O##*#%%",
"$ *********#OOOOOOOOOOOO#***#@$$",
" ##########XOOOOOOOOOOOO####@@+$",
" X@OOOOOOOOOOXOOOOOOOOOOOOXO@@+$",
" XOXXXXXXXXX##OOXXXXXXXXXX*O@@+$",
" XOXXXXXXXXX##OOXXXXXXXXXX*O@O+$",
" XO**********#OO***********OO +$",
" OOOOOOOOOOOOOOOOOOOOOOOOOOO+++$",
"o &&&&&&&&&&&&&&&&&&&&&&&&&&++$%",
"%%+++++++++++++++++++++++++++$%%",
"%%$$$$$$$$$$$$$$$$$$$$$$$$$$$$%%"
};
