/* XPM */
static char *noname[] = {
/* width height ncolors chars_per_pixel */
"32 18 15 1",
/* colors */
"  c #D6D6D5",
". c #BABAB9",
"X c #BE5E64",
"o c #932926",
"O c #D8B8B5",
"+ c #C4C5C5",
"@ c #D2D2D2",
"# c #AC3836",
"$ c #A6A498",
"% c #DBCFCC",
"& c #C39D9A",
"* c #D0A8A0",
"= c #C0ACAD",
"- c none",
"; c #CDC8C3",
/* pixels */
"--------------OOOOOOOOOOOOO%----",
"-------------OXXXXXXXXXXXXX*----",
"------------*XXXXXXXXXXXXXo& ---",
"------------XXXXXXXXXXXX#oo$+---",
"------------#oooooooooo##oo$+---",
"------------###########X#oo$+---",
"--%OOOOOOOOO###########Xoo#&*O--",
"--*XXXXXXXX##XXXXXXXXXXXooXXXX--",
"%*XXXXXXXXX#############XXXX#o@ ",
"OXXXXXXXXXX###o#########XXX#oo.@",
"*#oooooooooo##oooooooooooo#ooo.@",
"*#o#########XXoo##########Xooo.@",
"*#o#########XXoo##########Xoo#.@",
"*##XXXXXXXXXXXooXXXXXXXXXXXo#=.@",
"*#############o############o... ",
";&$$$$$$$$$$$$$$$$$$$$$$$$$$.. -",
"--...........................@--",
"--@@@@@@@@@@@@@@@@@@@@@@@@@@@ --"
};
