/* XPM */
static char *noname[] = {
/* width height ncolors chars_per_pixel */
"32 18 14 1",
/* colors */
"  c #D6D6D5",
". c #CDC9C2",
"X c #DBD0CC",
"o c #D8B8B8",
"O c #AB3733",
"+ c #C3ADAD",
"@ c #C5C5C9",
"# c #D2D2D2",
"$ c #A8A198",
"% c #BABABA",
"& c #CD5D59",
"* c #C0BDBC",
"= c #CCA69F",
"- c none",
/* pixels */
"--------------oooooooooooooX----",
"-------------o&&&&&&&&&&&&&=----",
"------------=&&&&&&&&&&&&&O$ ---",
"------------&&&&&&&&&&&&&OO$@---",
"------------OOOOOOOOOOOOOOO$@---",
"------------OOOOOOOOOOO&OOO$@---",
"--XoooooooooOOOOOOOOOOO&OOO$=o--",
"--=&&&&&&&&OO&&&&&&&&&&&OO&&&&--",
"X=&&&&&&&&&&OOOOOOOOOOOO&&&&OO# ",
"o&&&&&&&&&&OOOOOOOOOOOOO&&&OOO%#",
"=OOOOOOOOOOOOOOOOOOOOOOOOOOOOO%#",
"=OOOOOOOOOOO&&OOOOOOOOOOOO&OOO%#",
"=OOOOOOOOOOO&&OOOOOOOOOOOO&OOO%#",
"=OO&&&&&&&&&&&OO&&&&&&&&&&&OO+%#",
"=OOOOOOOOOOOOOOOOOOOOOOOOOOO%%* ",
".=$$$$$$$$$$$$$$$$$$$$$$$$$$%% -",
"--%%%%%%%%%%%%%%%%%%%%%%%%%%%#--",
"--########################### --"
};
