/* XPM */
static char *noname[] = {
/* width height ncolors chars_per_pixel */
"32 18 5 1",
/* colors */
"  c #CDBEBB",
". c #CCAAA9",
"X c #D0D0CD",
"o c #D9D5D2",
"O c none",
/* pixels */
"OOOOOOOOOOOOOOoooooooooooooOOOOO",
"OOOOOOOOOOOOOo ..........  XOOOO",
"OOOOOOOOOOOOo             .XOOOO",
"OOOOOOOOOOOO............... oOOO",
"OOOOOOOOOOOO............... oOOO",
"OOOOOOOOOOOO........... ... oOOO",
"OOOooooooooo........... ... ooOO",
"OO  .........          ..... .OO",
"O          ..............   ..OO",
"o.............................XO",
"X.............................XO",
"X......................... ...XO",
"X......................... ...XO",
"X..          ...           ..XXO",
"X...........................XXoO",
"oX                          XXOO",
"OOXXXXXXXXXXXXXXXXXXXXXXXXXXXOOO",
"OOOOOOOOOOOOOOOOOOOOOOOOOOOOOOOO"
};
