/* XPM */
static char *noname[] = {
/* width height ncolors chars_per_pixel */
"32 18 5 1",
/* colors */
"  c #D9D5D1",
". c #C9A8A6",
"X c #D0B9B5",
"o c #CECECC",
"O c none",
/* pixels */
"OOOOOOOOOOOOOO             OOOOO",
"OOOOOOOOOOOOO XXXXXXXXXXXXX OOOO",
"OOOOOOOOOOOO XXXXXXXXXXXXX.oOOOO",
"OOOOOOOOOOOOXXXXXXXXXXXXX..o OOO",
"OOOOOOOOOOOO...............o OOO",
"OOOOOOOOOOOO...........X...o OOO",
"OOO         ..........XX...X  OO",
"OOoXXXXXXXXX.XXXXXXXXXXX..XXXXOO",
"OoXXXXXXXXXX............XXXXX.OO",
" XXXXXXXXXX.............XXX... O",
" ............................. O",
" ...........XX............X... O",
" ...........XX............X... O",
" ..XXXXXXXXXXX..XXXXXXXXXXX..o O",
"o...........................   O",
" ooooooooooooooooooooooooooo  OO",
"OO                           OOO",
"OOOOOOOOOOOOOOOOOOOOOOOOOOOOOOOO"
};
