/* XPM */
static char *noname[] = {
/* width height ncolors chars_per_pixel */
"32 18 9 1",
/* colors */
"  c #D6D6D5",
". c #CDC9C2",
"X c #DBD0CC",
"o c #D8B8B8",
"O c #C3ADAD",
"+ c #D2D2D2",
"@ c #CBD0CB",
"# c #CCA69F",
"$ c none",
/* pixels */
"$$$$$$$$$$$$$$XXXXXXXXXXXXX$$$$$",
"$$$$$$$$$$$$$XoooooooooooooX$$$$",
"$$$$$$$$$$$$Xooooooooooooo#.$$$$",
"$$$$$$$$$$$$ooooooooooooo##. $$$",
"$$$$$$$$$$$$O##########OO##. $$$",
"$$$$$$$$$$$$OOOOOOOOOOOoO##. $$$",
"$$$XXXXXXXXXOOOOOOOOOOOo##O.XX$$",
"$$XooooooooOOooooooooooo##oooo$$",
"$XooooooooooOOOOOOOOOOOOooooO# $",
"XooooooooooOOO#OOOOOOOOOoooO##+ ",
"XO##########OO############O###+ ",
"XO#OOOOOOOOOoo##OOOOOOOOOOo###+ ",
"XO#OOOOOOOOOoo##OOOOOOOOOOo##O+ ",
"XOOooooooooooo##ooooooooooo#O@+ ",
"XOOOOOOOOOOOOO#OOOOOOOOOOOO#+++$",
" X..........................++$$",
"$$+++++++++++++++++++++++++++ $$",
"$$                           $$$"
};
