/* XPM */
static char *noname[] = {
/* width height ncolors chars_per_pixel */
"48 39 6 1",
/* colors */
"  c #CCAAA9",
". c #D0D0CD",
"X c #D9D5D2",
"o c #BA9C8F",
"O c none",
"+ c #D5ACA3",
/* pixels */
"OOOOOOOOOOOOOOOOOOOOOOOOOOOOOOOOOOOOOOOOOOOOOOOO",
"OOOOOOOOOOOOOOOOOOOOoOOOOOOOOOOOOOOOOOOOOOOOOOOO",
"OOOOOOOOOOOOOOOOOOOOoOOOOOOOOOOOOOOOOOOOOOOOOOOO",
"OOOOOOOOOOOOOOOOOO++++++++++OOOOOoOOOOOOOOOOOOOO",
"OOOOOOOOOOOOOOOO++++++++++++++OOoOOOOOOOOOOOOOOO",
"OOOOOOOOOOoOOOO+++oo++++++++++++OOOOOOOOOOOOOOOO",
"OOOOOOOOOOOoOO+++oo++++++++oo++++OO.OOOOOOOOOOOO",
"OOOOOOOOOOOOo++++XOX++++++++oo++++.OOOOOOOOOOOOO",
"OOOOOOOOOOOOo++++OOO+++++++++++++++OOOOOOOOOOOOO",
"OOOOOOOOOOOoo+o++XOX+++++++++++++++OOOOOOOOOOOOO",
"OOOOOOOOOOOooooo+++++ooo+++++++++++.OOOOOOOOOOOO",
"OOOOOOOOoOooo+o++++++oo+++++++++++++.OOOOOOOOOOO",
"OOOOOOOOOoooo++++++++++++++++o++++++.OOOOOOOOOOO",
"OOOOOOOOOoooo               ooo     .OOOOOOOOOOO",
"OOOOOOOOOoooo++++++++++++++++o++++  ..OOOOOOOOOO",
"OOOOOOOOoOooo+++++++++++++++++++++  ..OOOOOOOOOO",
"OOOOOOOOOOOoo+o++++++oo++++++++++  ...OOOOOOOOOO",
"OOOOOOOOOOOooooo+++++ooo+++++++++  ...OOOOOOOOOO",
"OOOOOOOOOO.Oo+o++++++++++++++++++  ...OOOOOOOOOO",
"OOOOOOOOOOOOo ++++++++++++++oo++  ...OOOOOOOOOOO",
"OOOOOOOOOOOoO. ++ooo+++++++oo++  ....OOOOOOOOOOO",
"OOOOOOOOOOoOOO. ++ooo+++++++++  .....OOOOOOOOOOO",
"OOOOOOOOOOOOOO.. +++++++++++  ..o...OOOOOOOOOOOO",
"OOOOOOOOOOOOO.OO..  ++++++  .....o.OOOOOOOOOOOOO",
"OOOOOOOOOOOO.OOOO...o.............OOOOOOOOOOOOOO",
"OOOOOOOOOOOOOOOOOO..o...........OO.OOOOOOOOOOOOO",
"OOOOOOOOOOOOOOOOOOOO..........OOOOO.OOOOOOOOOOOO",
"OOOOOOOOOOOOOOOOOOOOOOoOOOOOOOOOOOOOOOOOOOOOOOOO",
"OOOOOOOOoooooOOOOOOOOOoOOOOOOOOOOOOOOOOOOOOOOOOO",
"OOOOOOOOoOOOOoOOOOOOOOoOOOOOOOOOOOOOOOOOOOOOOOOO",
"OOOOOOOOoOOOOOoOOoooOOoOooOOoOOOoOOooooOOOOOOOOO",
"OOOOOOOOoOOOOOoOoOOOoOooOOoOoOOOoOoOOOoOOOOOOOOO",
"OOOOOOOOoOOOOOoOoOOOoOoOOOoOoOOOoOoOOOoOOOOOOOOO",
"OOOOOOOOoOOOOOoOoooooOoOOOoOoOOOoOoOOOoOOOOOOOOO",
"OOOOOOOOoOOOOOoOoOOOOOoOOOoOoOOOoOoOOOoOOOOOOOOO",
"OOOOOOOOoOOOOoOOoOOOoOoOOOoOoOOooOoOOooOOOOOOOOO",
"OOOOOOOOoooooOOOOoooOOooooOOOooOoOOooOoOOOOOOOOO",
"OOOOOOOOOOOOOOOOOOOOOOOOOOOOOOOOOOOOOOoOOOOOOOOO",
"OOOOOOOOOOOOOOOOOOOOOOOOOOOOOOOOOOOooooOOOOOOOOO"
};
