/* XPM */
static char *noname[] = {
/* width height ncolors chars_per_pixel */
"32 18 9 1",
/* colors */
"  c #CDBEBB",
". c #CCAAA9",
"X c #D0D0CD",
"o c #D9D5D2",
"O c #BA9C8F",
"+ c #ACC0AA",
"@ c none",
"# c #BBBBBB",
"$ c #D5ACA3",
/* pixels */
"@@@@@@@@@@@@@X@@@@@@@@@@@@@@@@@@",
"@@@@@@@@@@@@@+@@@@@@@@@@@@@@@@@@",
"@@@@@@@@@@oX$$$$$$$X@X#@@@@@@@@@",
"@@@@@@XX@@$$O.$$$$$$  @@@@@@@@@@",
"@@@@@@@#X$$..$$$$$OO$$oo@@@@@@@@",
"@@@@@@@@O$$o@ $$$$$O$$$o@@@@@@@@",
"@@@@@@@+OO.$o$OO$$$$$$$X@@@@@@@@",
"@@@@@#XOOO$$$$OO$$$$$$$$o@@@@@@@",
"@@@@@@OOO$$$$$$$$$$O.$$$o@@@@@@@",
"@@@@@@OOO$$$$$$$$$$O$$$.o@@@@@@@",
"@@@@@#XOO.$$$$O$$$$$$$$.X@@@@@@@",
"@@@@@@@+OOO$$$OO$$$$$$. X@@@@@@@",
"@@@@@@@@OO$$$$$$$$$O$$.Xo@@@@@@@",
"@@@@@@@# .$OO.$$$$OO$$XXo@@@@@@@",
"@@@@@@XX@o.$OO$$$$$$.#XXo@@@@@@@",
"@@@@@@@@@oo $$$$$$. X #o@@@@@@@@",
"@@@@@@@@o@@oX+XXXXXXXoo@@@@@@@@@",
"@@@@@@@@@@@@@XXXXXXX@@@o@@@@@@@@"
};
