/* XPM */
static char *noname[] = {
/* width height ncolors chars_per_pixel */
"32 18 16 1",
/* colors */
"  c #D6D6D5",
". c #BABAB9",
"X c #98959E",
"o c #D8B8B5",
"O c #C4C5C5",
"+ c #DDD9D0",
"@ c #D2D2D2",
"# c #CDCECD",
"$ c #AFBFAB",
"% c #A6A498",
"& c #DBCFCC",
"* c #C39D9A",
"= c #D0A8A0",
"- c #C0ACAD",
"; c none",
": c #CDC8C3",
/* pixels */
";;;;;;;;;;;;;#;;;;;;;;;;;;;;;;;;",
";;;;;;;;;;;;;$;;;;;;;;;;;;;;;;;;",
";;;;;;;;;;+&======o&;#.;;;;;;;;;",
";;;;;;##;;o=%*======o:;;;;;;;;;;",
";;;;;;;.:o=--=====%%==& ;;;;;;;;",
";;;;;;;;%==&+o=====*===&;;;;;;;;",
";;;;;;;$%%=o&o**=======:;;;;;;;;",
";;;;;.#%%%====X%======== ;;;;;;;",
";;;;;;XX%==========%*=== ;;;;;;;",
";;;;;;XX%==========%====@;;;;;;;",
";;;;;.#%%*====*=========@ ;;;;;;",
";;;;;;;$%%*===X%=======:@ ;;;;;;",
";;;;;;;;%*=========*===:@;;;;;;;",
";;;;;;;.:==*%*====%%==:@ ;;;;;;;",
";;;;;;##; ==%%======o.@@ ;;;;;;;",
";;;;;;;;; @:=======:@O. ;;;;;;;;",
";;;;;;;; ;; @$@@@@@@@  ;;;;;;;;;",
";;;;;;;;;;;; O@@@@@@ ;; ;;;;;;;;"
};
