/* XPM */
static char *noname[] = {
/* width height ncolors chars_per_pixel */
"32 18 22 1",
/* colors */
"  c #D3CDC8",
". c #C0C0BF",
"X c #B4B3A9",
"o c #D5D5D3",
"O c #E0D6C0",
"+ c #E7E2CA",
"@ c #C4C5C5",
"# c #CFABA8",
"$ c #D7D8D7",
"% c #969BAB",
"& c #D2D2D2",
"* c #A5A5A9",
"= c #C7A49F",
"- c #D4B3AB",
"; c #ADABAC",
": c #DBDAD9",
"> c #D5A99B",
", c #ADB3B2",
"< c none",
"1 c #C9C7C6",
"2 c #E2BAAD",
"3 c #BBBBBB",
/* pixels */
"<<<<<<<<<<<<<&<<<<<<<<<<<<<<<<<<",
"<<<<<<<<<<<<<,<<<<<<<<<<<<<<<<<<",
"<<<<<<<<<<: >>>>>>- < .<<<<<<<<<",
"<<<<<<&&<<->*=>>>>>>-1<<<<<<<<<<",
"<<<<<<<.1->=X>>>>>*=>> $<<<<<<<<",
"<<<<<<<<*>>O+2>>>>>=>>> <<<<<<<<",
"<<<<<<<,**=2O-==>>>>>>> <<<<<<<<",
"<<<<<. ***>>>>%=>>>>>>>-$<<<<<<<",
"<<<<<<%%*>>>>>>>>>=*=>>>$<<<<<<<",
"<<<<<<%%*>>>>>>>>>>*>>>=&:<<<<<<",
"<<<<<.&**=>>>>=>>>>>>>>#&:<<<<<<",
"<<<<<<<,**=>>>%*>>>>>>=1&:<<<<<<",
"<<<<<<::*=>>>>>>>>>=>>= &:<<<<<<",
"<<<<<<<.1#>=*=>>>>*=>= &$<<<<<<<",
"<<<<<<&&<$#>**>>>>>>-.&&$<<<<<<<",
"<<<<<<<<:$o1=>>>>>#1&@3$<<<<<<<<",
"<<<<<<<<$<<$&;&&&&&&&o$:<<<<<<<<",
"<<<<<<<<<<<<:1&&&&&&:::$<<<<<<<<"
};
