/* XPM */
static char *noname[] = {
/* width height ncolors chars_per_pixel */
"32 18 17 1",
/* colors */
"  c #D6D6D5",
". c #CDC9C2",
"X c #DBD0CC",
"o c #9392A3",
"O c #E7E2CA",
"+ c #D8B8B8",
"@ c #C3ADAD",
"# c #C5C5C9",
"$ c #D2D2D2",
"% c #CBD0CB",
"& c #B0BEAD",
"* c #A8A198",
"= c #BABABA",
"- c #C0BDBC",
"; c #DCD9D0",
": c #CCA69F",
"> c none",
/* pixels */
">>>>>>>>>>>>>%>>>>>>>>>>>>>>>>>>",
">>>>>>>>>>>>>&>>>>>>>>>>>>>>>>>>",
">>>>>>>>>>;X::::::+X>%->>>>>>>>>",
">>>>>>%%>>+:*:::::::+.>>>>>>>>>>",
">>>>>>>-.+:@@:::::**::X >>>>>>>>",
">>>>>>>>*::XO+:::::::::X>>>>>>>>",
">>>>>>>&**:+X+:::::::::.>>>>>>>>",
">>>>>-%***::::o*:::::::: >>>>>>>",
">>>>>>oo*::::::::::*:::: >>>>>>>",
">>>>>>oo*::::::::::*::::$>>>>>>>",
">>>>>-%**::::::::::::::@$ >>>>>>",
">>>>>>>&***:::o*:::::::.$ >>>>>>",
">>>>>>>>**:::::::::::::.$>>>>>>>",
">>>>>>>-.::**:::::**::.$ >>>>>>>",
">>>>>>%%> ::**::::::@-$$ >>>>>>>",
">>>>>>>>> $.:::::::.$#= >>>>>>>>",
">>>>>>>> >> $&$$$$$$$  >>>>>>>>>",
">>>>>>>>>>>> #$$$$$$ >> >>>>>>>>"
};
