/* XPM */
static char *noname[] = {
/* width height ncolors chars_per_pixel */
"32 18 21 1",
/* colors */
"  c #D6D6D5",
". c #BABAB9",
"X c #BE5E64",
"o c #932926",
"O c #98959E",
"+ c #D8B8B5",
"@ c #E7E2CA",
"# c #C4C5C5",
"$ c #54555A",
"% c #D2D2D2",
"& c #CDCECD",
"* c #AC3836",
"= c #272333",
"- c #AFBFAB",
"; c #A6A498",
": c #DBCFCC",
"> c #C39D9A",
", c #D0A8A0",
"< c #C1300A",
"1 c none",
"2 c #8B8793",
/* pixels */
"1111111111111-111111111111111111",
"1111111111111$111111111111111111",
"1111111111:,<<<<<<*,1-2111111111",
"111111--11*<=o<<<<<<X21111111111",
"11111112;*<o*<<<<<==<<,&11111111",
"11111111=<<,@X<<<<<o<<<+11111111",
"1111111$==oX,<oo<<<<<<<>11111111",
"111112-===<<<<==<<<<<<<*&1111111",
"111111===<<<<<<<<<<=o<<<#1111111",
"111111===<<<<<<<<<<=<<<<. 111111",
"111112-==o<<<<o<<<<<<<<*.%111111",
"1111111$==o<<<==<<<<<<<>.%111111",
"111111  =o<<<<<<<<<o<<o>. 111111",
"11111112O*<o=o<<<<==<<>.#1111111",
"111111--1#*<==<<<<<<*2..&1111111",
"11111111 &.><<<<<<*>.2$&11111111",
"11111111&11&.=.......#& 11111111",
"111111111111%O......%  &11111111"
};
