/* XPM */
static char *noname[] = {
/* width height ncolors chars_per_pixel */
"32 18 21 1",
/* colors */
"  c #000000",
". c #E8312B",
"X c #FFEEA0",
"o c #CDBEBB",
"O c #825143",
"+ c #6C8B5E",
"@ c #7D2220",
"# c #D0D0CD",
"$ c #D9D5D2",
"% c #A62D26",
"& c #BA9C8F",
"* c #B04040",
"= c #B42F15",
"- c #E8685F",
"; c #ACC0AA",
": c #307030",
"> c #BF2F01",
", c none",
"< c #BC391B",
"1 c #BBBBBB",
"2 c #D5ACA3",
/* pixels */
",,,,,,,,,,,,,;,,,,,,,,,,,,,,,,,,",
",,,,,,,,,,,,,:,,,,,,,,,,,,,,,,,,",
",,,,,,,,,,#2>>>>>>*2,;+,,,,,,,,,",
",,,,,,;;,,*> =>>>>>>-&,,,,,,,,,,",
",,,,,,,+&*>@O<>>>> @>>2#,,,,,,,,",
",,,,,,,, >>2X->>>>>@>><2,,,,,,,,",
",,,,,,,:  =-2.@@>>>>>>>&,,,,,,,,",
",,,,,+;   =>>> @>>>>>>><#,,,,,,,",
",,,,,,   >>>>>>>>>= @>>>#,,,,,,,",
",,,,,,  @<<<<<<<<<< =<>=1$,,,,,,",
",,,,,+;  =>>>>@>>>>>>>>%1#,,,,,,",
",,,,,,,:  @>>>  >>>>>>=&1#,,,,,,",
",,,,,,$$ @>>>>>>>>>@>>=&1$,,,,,,",
",,,,,,,+&*>@ =>>>> @>=&1#,,,,,,,",
",,,,,,;;,o*>  >>>>>>*+11#,,,,,,,",
",,,,,,,,$#o&>>>>>>*&1&+#,,,,,,,,",
",,,,,,,,#,,#1:11111111#,,,,,,,,,",
",,,,,,,,,,,,#&111111#,,#,,,,,,,,"
};
