/* XPM */
static char *noname[] = {
/* width height ncolors chars_per_pixel */
"32 18 14 1",
/* colors */
"  c #000000",
". c #832321",
"X c #FFEEA0",
"o c #D3A9A0",
"O c #D0B9B5",
"+ c #B04040",
"@ c #9A8F79",
"# c #AD2B1F",
"$ c #C03000",
"% c #CECECC",
"& c #624E3A",
"* c #ACC0AA",
"= c none",
"- c #D0523F",
/* pixels */
"=============*==================",
"=============&==================",
"==========%o$$$$$$-o=*@=========",
"======**==-$ .$$$$$$-@==========",
"=======@@-$.&$$$$$ .$$O=========",
"======== $$oX-$$$$$.$$$O========",
"=======&  #-o-..$$$$$$$o========",
"=====@*   #$$$ .$$$$$$$-========",
"======   $$$$$$$$$$ .$$$========",
"======  .$$$$$$$$$$ #$$#========",
"=====@*  .$$$$.$$$$$$$$+========",
"=======&  .$$$  $$$$$$#o========",
"======== .$$$$$$$$$.$$#O========",
"=======@@+$. .$$$$ .$$O=========",
"======**==+$  $$$$$$-===========",
"==========%o$$$$$$+o@*==========",
"=============&=======@==========",
"=============*=================="
};
