/* XPM */
static char *noname[] = {
/* width height ncolors chars_per_pixel */
"32 18 10 1",
/* colors */
"  c #BB9F93",
". c #DAD7D2",
"X c #DFE1C6",
"o c #D2ADA8",
"O c #D2D4D2",
"+ c #CAC2BC",
"@ c #D1D1D0",
"# c #B0B0AB",
"$ c none",
"% c #BBBBBB",
/* pixels */
"$$$$$$$$$$$$$@$$$$$$$$$$$$$$$$$$",
"$$$$$$$$$$$$$#$$$$$$$$$$$$$$$$$$",
"$$$$$$$$$$.@ooooooo@$@%$$$$$$$$$",
"$$$$$$@@$$oo  ooooooo+$$$$$$$$$$",
"$$$$$$$%+oo#oooooo  oo@.$$$$$$$$",
"$$$$$$$$ ooX.oooooo ooo@$$$$$$$$",
"$$$$$$$#  ooXo  ooooooo@$$$$$$$$",
"$$$$$%@#  oooo  oooooooo.$$$$$$$",
"$$$$$$   oooooooooo  ooo.$$$$$$$",
"$$$$$$   oooooooooo ooo O$$$$$$$",
"$$$$$%@#  oooo oooooooooO$$$$$$$",
"$$$$$$$#   ooo  oooooo +O$$$$$$$",
"$$$$$$$$  ooooooooo ooo+O$$$$$$$",
"$$$$$$$%+oo   oooo  oo+O.$$$$$$$",
"$$$$$$@@$.oo  ooooooo%OO.$$$$$$$",
"$$$$$$$$$.O+ooooooo+O+%.$$$$$$$$",
"$$$$$$$$.$$.O#OOOOOOOO.$$$$$$$$$",
"$$$$$$$$$$$$$+OOOOOO$$$.$$$$$$$$"
};
