/* XPM */
static char *noname[] = {
/* width height ncolors chars_per_pixel */
"32 18 18 1",
/* colors */
"  c #AFAFB5",
". c #CCCBC4",
"X c #D5D5D3",
"o c #BFBEC4",
"O c #E7E2CA",
"+ c #D3A89F",
"@ c #ACA7AD",
"# c #D7D8D7",
"$ c #D2D2D2",
"% c #DFB6B4",
"& c #9F929C",
"* c #CFB0AA",
"= c #CAA8A8",
"- c #ADA195",
"; c none",
": c #BBBBBB",
"> c #D9CCBE",
", c #C8C4C1",
/* pixels */
";;;;;;;;;;;;;$;;;;;;;;;;;;;;;;;;",
";;;;;;;;;;;;; ;;;;;;;;;;;;;;;;;;",
";;;;;;;;;;#>++++++*>;$o;;;;;;;;;",
";;;;;;$$;;*+-+++++++%,;;;;;;;;;;",
";;;;;;;o.*+=*+++++--++X#;;;;;;;;",
";;;;;;;;-++>O%+++++=+++X;;;;;;;;",
";;;;;;; --+%>*==+++++++>;;;;;;;;",
";;;;;o$&--++++&-+++++++*#;;;;;;;",
";;;;;;&&-++++++++++-++++#;;;;;;;",
";;;;;;&&-++++++++++-++++$#;;;;;;",
";;;;;o$@-+++++=++++++++*$#;;;;;;",
";;;;;;; &&-+++&-+++++++,$#;;;;;;",
";;;;;;##--+++++++++=+++.$#;;;;;;",
";;;;;;;o,*+--+++++--++.$#;;;;;;;",
";;;;;;$$;#*+--++++++*:$$#;;;;;;;",
";;;;;;;;##X.++++++*,$,:#;;;;;;;;",
";;;;;;;;#;;#$@$$$$$$$X#;;;;;;;;;",
";;;;;;;;;;;;#.$$$$$$#;;#;;;;;;;;"
};
