/* XPM */
static char *noname[] = {
/* width height ncolors chars_per_pixel */
"32 18 29 1",
/* colors */
"  c #717B7C",
". c #C3300A",
"X c #D3CDC8",
"o c #C0C0BF",
"O c #857E64",
"+ c #49484A",
"@ c #D5D5D3",
"# c #C4C5C5",
"$ c #962A28",
"% c #807750",
"& c #B03C37",
"* c #969BAB",
"= c #D2D2D2",
"- c #A89781",
"; c #F6ECC0",
": c #EE833B",
"> c #C7A49F",
", c #39343B",
"< c #585B6D",
"1 c #D4B3AB",
"2 c #1C1114",
"3 c #ADABAC",
"4 c #DBDAD9",
"5 c #D5A99B",
"6 c #9191AA",
"7 c none",
"8 c #C9C7C6",
"9 c #BBBBBB",
"0 c #DD6452",
/* pixels */
"77777777777773777777777777777777",
"7777777777777+777777777777777777",
"7777777777X5......&573 777777777",
"7777773377&.2$......0-7777777777",
"7777777 -&.$%.....22..1877777777",
"777777772..5;:.....$...177777777",
"7777777+22$:50$$.......>77777777",
"77777 3222....22.......&=7777777",
"777777222..........2$...87777777",
"777777222..........2....o@777777",
"77777 322$....$........&9=777777",
"7777777+22$...22.......-9=777777",
"777777@@2$.........$..$-o@777777",
"7777777 -&.$2$....22..-987777777",
"777777337#&.22......&O99=7777777",
"77777777@=9-......&-96<877777777",
"77777777=77=9,9999999o8477777777",
"777777777777=*999999=44877777777"
};
