/* XPM */
static char *noname[] = {
/* width height ncolors chars_per_pixel */
"48 39 7 1",
/* colors */
"  c #000000",
". c #FFEEA0",
"X c #D3A9A0",
"o c #E9302C",
"O c #AD2B1F",
"+ c #C03000",
"@ c none",
/* pixels */
"@@@@@@@@@@@@@@@@@@@@@@@@@@@@@@@@@@@@@@@@@@@@@@@@",
"@@@@@@@@@@@@@@@@@@@@ @@@@@@@@@@@@@@@@@@@@@@@@@@@",
"@@@@@@@@@@@@@@@@@@@@ @@@@@@@@@@@@@@@@@@@@@@@@@@@",
"@@@@@@@@@@@@@@@@@@++++++++++@@@@@ @@@@@@@@@@@@@@",
"@@@@@@@@@@@@@@@@++++++++++++++@@ @@@@@@@@@@@@@@@",
"@@@@@@@@@@ @@@@+++  ++++++++++++@@@@@@@@@@@@@@@@",
"@@@@@@@@@@@ @@+++  o+++++++  ++++@@@@@@@@@@@@@@@",
"@@@@@@@@@@@@ +++oX.Xo+++++++  ++++@@@@@@@@@@@@@@",
"@@@@@@@@@@@@ +++o...o++++++++++++++@@@@@@@@@@@@@",
"@@@@@@@@@@@  + +oX.Xo++++++++++++++@@@@@@@@@@@@@",
"@@@@@@@@@@@     +ooo+   +++++++++++@@@@@@@@@@@@@",
"@@@@@@@@ @   + oo++++  +++++++++++++@@@@@@@@@@@@",
"@@@@@@@@@    ++++++++++++++++ ++++++@@@@@@@@@@@@",
"@@@@@@@@@    OOOOOOOOOOOOOOO   OOOOO@@@@@@@@@@@@",
"@@@@@@@@@    oooooooooooooooo ooo+OO@@@@@@@@@@@@",
"@@@@@@@@ @   +++++++++++++++++++++OO@@@@@@@@@@@@",
"@@@@@@@@@@@  + ++++++  ++++++++++OO@@@@@@@@@@@@@",
"@@@@@@@@@@@     +++++   +++++++++OO@@@@@@@@@@@@@",
"@@@@@@@@@@@@ + ++++++++++++++++++OO@@@@@@@@@@@@@",
"@@@@@@@@@@@@ O++++++++++++++  ++OO@@@@@@@@@@@@@@",
"@@@@@@@@@@@ @@O++   +++++++  ++OO@@@@@@@@@@@@@@@",
"@@@@@@@@@@ @@@@O++   ++++++++OO@@@@@@@@@@@@@@@@@",
"@@@@@@@@@@@@@@@@O+++++++++++OO+@@@@@@@@@@@@@@@@@",
"@@@@@@@@@@@@@@@@@@OO++++++OO@@@ @@@@@@@@@@@@@@@@",
"@@@@@@@@@@@@@@@@@@@@ @@@@@@@@@@@ @@@@@@@@@@@@@@@",
"@@@@@@@@@@@@@@@@@@@@ @@@@@@@@@@@@@@@@@@@@@@@@@@@",
"@@@@@@@@@@@@@@@@@@@@@@@@@@@@@@@@@@@@@@@@@@@@@@@@",
"@@@@@@@@@@@@@@@@@@@@@@ @@@@@@@@@@@@@@@@@@@@@@@@@",
"@@@@@@@@     @@@@@@@@@ @@@@@@@@@@@@@@@@@@@@@@@@@",
"@@@@@@@@ @@@@ @@@@@@@@ @@@@@@@@@@@@@@@@@@@@@@@@@",
"@@@@@@@@ @@@@@ @@   @@ @  @@ @@@ @@    @@@@@@@@@",
"@@@@@@@@ @@@@@ @ @@@ @  @@ @ @@@ @ @@@ @@@@@@@@@",
"@@@@@@@@ @@@@@ @ @@@ @ @@@ @ @@@ @ @@@ @@@@@@@@@",
"@@@@@@@@ @@@@@ @     @ @@@ @ @@@ @ @@@ @@@@@@@@@",
"@@@@@@@@ @@@@@ @ @@@@@ @@@ @ @@@ @ @@@ @@@@@@@@@",
"@@@@@@@@ @@@@ @@ @@@ @ @@@ @ @@  @ @@  @@@@@@@@@",
"@@@@@@@@     @@@@   @@    @@@  @ @@  @ @@@@@@@@@",
"@@@@@@@@@@@@@@@@@@@@@@@@@@@@@@@@@@@@@@ @@@@@@@@@",
"@@@@@@@@@@@@@@@@@@@@@@@@@@@@@@@@@@@    @@@@@@@@@"
};
