/* XPM */
static char *noname[] = {
/* width height ncolors chars_per_pixel */
"32 18 13 1",
/* colors */
"  c #D6D6D5",
". c #C9AAA6",
"X c #D2D2D2",
"o c #D4CEC9",
"O c #C4C5C6",
"+ c #B5B3A6",
"@ c #CCC7C3",
"# c #B69F96",
"$ c none",
"% c #ADBAB1",
"& c #D9B5B1",
"* c #BBBBBB",
"= c #DDD9CF",
/* pixels */
"$$$$$$$$$$$$$X$$$$$$$$$$$$$$$$$$",
"$$$$$$$$$$$$$%$$$$$$$$$$$$$$$$$$",
"$$$$$$$$$$ o......&o$o*$$$$$$$$$",
"$$$$$$XX$$&.#.......&@$$$$$$$$$$",
"$$$$$$$*@&...&....##..o $$$$$$$$",
"$$$$$$$$#..o=&.....#...o$$$$$$$$",
"$$$$$$$%##.&o&##.......o$$$$$$$$",
"$$$$$*o###....##.......& $$$$$$$",
"$$$$$$###..........#.... $$$$$$$",
"$$$$$$###..........#....X$$$$$$$",
"$$$$$*X##.....#.........X $$$$$$",
"$$$$$$$%###...##.......@X $$$$$$",
"$$$$$$$$##.........#...@X$$$$$$$",
"$$$$$$$*@..##.....##..@X $$$$$$$",
"$$$$$$XX$ ..##.......*XX $$$$$$$",
"$$$$$$$$$ X@.......@XO* $$$$$$$$",
"$$$$$$$$ $$ X+XXXXXXX  $$$$$$$$$",
"$$$$$$$$$$$$ OXXXXXX $$ $$$$$$$$"
};
