/* XPM */
static char *noname[] = {
/* width height ncolors chars_per_pixel */
"32 18 18 1",
/* colors */
"  c #BCA9AB",
". c #AFAFB5",
"X c #AFA3A4",
"o c #D1CCC2",
"O c #D0B0AA",
"+ c #D5D5D3",
"@ c #BFBEC4",
"# c #E7E2CA",
"$ c #9B97A7",
"% c #C5C5C9",
"& c #B2B0A9",
"* c #D7D8D7",
"= c #D2D2D2",
"- c #DFB6B4",
"; c #D2A89F",
": c #CBC5C2",
"> c none",
", c #BBBBBB",
/* pixels */
">>>>>>>>>>>>>=>>>>>>>>>>>>>>>>>>",
">>>>>>>>>>>>>.>>>>>>>>>>>>>>>>>>",
">>>>>>>>>>*o;;;;;;Oo>=@>>>>>>>>>",
">>>>>>==>>O;X;;;;;;;-:>>>>>>>>>>",
">>>>>>>@:O;  ;;;;;XX;;+*>>>>>>>>",
">>>>>>>>X;;o#-;;;;;;;;;+>>>>>>>>",
">>>>>>>.XX;-oO;;;;;;;;;o>>>>>>>>",
">>>>>@=$XX;;;;$X;;;;;;;O*>>>>>>>",
">>>>>>$$X;;;;;;;;;;X;;;;*>>>>>>>",
">>>>>>$$X;;;;;;;;;;X;;;;=*>>>>>>",
">>>>>@=XX;;;;;;;;;;;;;;O=*>>>>>>",
">>>>>>>.$$X;;;$X;;;;;;;:=*>>>>>>",
">>>>>>**XX;;;;;;;;; ;;;o=*>>>>>>",
">>>>>>>@:O;XX;;;;;XX;;o=*>>>>>>>",
">>>>>>==>*O;XX;;;;;;O,==*>>>>>>>",
">>>>>>>>**+:;;;;;;O:=%,*>>>>>>>>",
">>>>>>>>*>>*=&=======+*>>>>>>>>>",
">>>>>>>>>>>>*%======*>>*>>>>>>>>"
};
