/* XPM */
static char *noname[] = {
/* width height ncolors chars_per_pixel */
"32 18 28 1",
/* colors */
"  c #BC2F10",
". c #7F7754",
"X c #AFA3A4",
"o c #D1CCC2",
"O c #D0B0AA",
"+ c #D5D5D3",
"@ c #BFBEC4",
"# c #A23231",
"$ c #9B97A7",
"% c #922824",
"& c #1E1318",
"* c #C5C5C9",
"= c #B2B0A9",
"- c #D7D8D7",
"; c #D2D2D2",
": c #DA5C56",
"> c #F6ECC0",
", c #37364A",
"< c #AC5453",
"1 c #817C6A",
"2 c #D2A89F",
"3 c #AE3F3D",
"4 c #504D43",
"5 c #5A5D81",
"6 c none",
"7 c #B1937D",
"8 c #8E8F96",
"9 c #BBBBBB",
/* pixels */
"6666666666666=666666666666666666",
"66666666666664666666666666666666",
"6666666666o2      326=1666666666",
"666666==663 &%      :76666666666",
"66666661X3 %.     &&  O*66666666",
"66666666&  2>:     %   O66666666",
"66666664&& :2:%%       266666666",
"666661=&&&    &&       3;6666666",
"666666&&&          &%   *6666666",
"666666&&&          &    @+666666",
"666661=&&%    %        #9;666666",
"66666664&&%   &&       79;666666",
"666666++&%         %  %X@+666666",
"6666666183 %&%    &&  X9*6666666",
"666666==6*3 &&      <199;6666666",
"66666666+;97      37985*66666666",
"66666666;66;9,9999999@*-66666666",
"666666666666;$999999;--*66666666"
};
