/* XPM */
static char *noname[] = {
/* width height ncolors chars_per_pixel */
"32 18 21 1",
/* colors */
"  c #D6D6D5",
". c #DBD0CC",
"X c #9392A3",
"o c #E7E2CA",
"O c #D8B8B8",
"+ c #AB3733",
"@ c #C5C5C9",
"# c #D2D2D2",
"$ c #CBD0CB",
"% c #C2320D",
"& c #B0BEAD",
"* c #A8A198",
"= c #6C7888",
"- c #BABABA",
"; c #6E3634",
": c #CD5D59",
"> c #C0BDBC",
", c #272333",
"< c #CCA69F",
"1 c none",
"2 c #5A575F",
/* pixels */
"1111111111111&111111111111111111",
"11111111111112111111111111111111",
"1111111111.<%%%%%%:<1&=111111111",
"111111&&11:%,%%%%%%%:*1111111111",
"1111111=*+%;;%%%%%,;%%<$11111111",
"11111111,%%<o:%%%%%;%%%O11111111",
"11111112,,%:<:;;%%%%%%%<11111111",
"11111=&,,,%%%%,;%%%%%%%+$1111111",
"111111,,,%%%%%%%%%%,%%%%@1111111",
"111111,,,%%%%%%%%%%,%%%%> 111111",
"11111=&,,%%%%%;%%%%%%%%+-#111111",
"11111112,,;%%%,,%%%%%%%*-#111111",
"111111  ,;%%%%%%%%%;%%+*> 111111",
"1111111=*+%;,%%%%%,;%%*-@1111111",
"111111&&1@+%,,%%%%%%+=--$1111111",
"11111111 $>*%%%%%%+*-X2$11111111",
"11111111$11$-,------->$ 11111111",
"111111111111#X------#  $11111111"
};
