/* XPM */
static char *noname[] = {
/* width height ncolors chars_per_pixel */
"32 18 27 1",
/* colors */
"  c #AF413F",
". c #CCCBC4",
"X c #912724",
"o c #D5D5D3",
"O c #BFBEC4",
"+ c #8B8D97",
"@ c #D3A89F",
"# c #ACA7AD",
"$ c #D7D8D7",
"% c #D2D2D2",
"& c #DA5C56",
"* c #F6ECC0",
"= c #9F929C",
"- c #CFB0AA",
"; c #191015",
": c #817C6A",
"> c #ADA195",
", c #7F7750",
"< c #BB2F11",
"1 c none",
"2 c #A23230",
"3 c #4D4D49",
"4 c #565A79",
"5 c #BBBBBB",
"6 c #D9CCBE",
"7 c #35343E",
"8 c #C8C4C1",
/* pixels */
"1111111111111#111111111111111111",
"11111111111113111111111111111111",
"11111111116@<<<<<< @1#:111111111",
"111111##11 <;X<<<<<<&=1111111111",
"1111111:> <X,<<<<<;;<<-.11111111",
"11111111;<<@*&<<<<<X<<<-11111111",
"11111113;;<&@&XX<<<<<<<@11111111",
"11111:#;;;<<<<;;<<<<<<< %1111111",
"111111;;;<<<<<<<<<<;X<<<81111111",
"111111;;;<<<<<<<<<<;<<<<Oo111111",
"11111:#;;X<<<<X<<<<<<<<25%111111",
"11111113;;X<<<;;<<<<<<<>5%111111",
"111111oo;X<<<<<<<<<X<<<>Oo111111",
"1111111:= <X;X<<<<;;<<>581111111",
"111111##18 <;;<<<<<< :55%1111111",
"11111111o%5><<<<<< >5+4.11111111",
"11111111%11%575555555O.$11111111",
"111111111111%=555555%$$.11111111"
};
