/* XPM */
static char *noname[] = {
/* width height ncolors chars_per_pixel */
"48 39 8 1",
/* colors */
"  c #000000",
". c #E8312B",
"X c #DFE1C6",
"o c #D2ADA8",
"O c #9C2516",
"+ c #BF2F01",
"@ c none",
"# c #BBBBBB",
/* pixels */
"@@@@@@@@@@@@@@@@@@@@@@@@@@@@@@@@@@@@@@@@@@@@@@@@",
"@@@@@@@@@@@@@@@@@@@@ @@@@@@@@@@@@@@@@@@@@@@@@@@@",
"@@@@@@@@@@@@@@@@@@@@ @@@@@@@@@@@@@@@@@@@@@@@@@@@",
"@@@@@@@@@@@@@@@@@@++++++++++@@@@@ @@@@@@@@@@@@@@",
"@@@@@@@@@@@@@@@@++++++++++++++@@ @@@@@@@@@@@@@@@",
"@@@@@@@@@@ @@@@+++  ++++++++++++@@@@@@@@@@@@@@@@",
"@@@@@@@@@@@ @@+++  .+++++++  ++++@@#@@@@@@@@@@@@",
"@@@@@@@@@@@@ +++.oXo.+++++++  ++++#@@@@@@@@@@@@@",
"@@@@@@@@@@@@ +++.XXX.++++++++++++++@@@@@@@@@@@@@",
"@@@@@@@@@@@  + +.oXo.++++++++++++++@@@@@@@@@@@@@",
"@@@@@@@@@@@     +...+   +++++++++++#@@@@@@@@@@@@",
"@@@@@@@@ @   + ..++++  +++++++++++++#@@@@@@@@@@@",
"@@@@@@@@@    ++++++++++++++++ ++++++#@@@@@@@@@@@",
"@@@@@@@@@    OOOOOOOOOOOOOOO   OOOOO#@@@@@@@@@@@",
"@@@@@@@@@    ................ ...+OO##@@@@@@@@@@",
"@@@@@@@@ @   +++++++++++++++++++++OO##@@@@@@@@@@",
"@@@@@@@@@@@  + ++++++  ++++++++++OO###@@@@@@@@@@",
"@@@@@@@@@@@     +++++   +++++++++OO###@@@@@@@@@@",
"@@@@@@@@@@#@ + ++++++++++++++++++OO###@@@@@@@@@@",
"@@@@@@@@@@@@ O++++++++++++++  ++OO###@@@@@@@@@@@",
"@@@@@@@@@@@ @#O++   +++++++  ++OO####@@@@@@@@@@@",
"@@@@@@@@@@ @@@#O++   +++++++++OO#####@@@@@@@@@@@",
"@@@@@@@@@@@@@@##O+++++++++++OO## ###@@@@@@@@@@@@",
"@@@@@@@@@@@@@#@@##OO++++++OO##### #@@@@@@@@@@@@@",
"@@@@@@@@@@@@#@@@@### #############@@@@@@@@@@@@@@",
"@@@@@@@@@@@@@@@@@@## ###########@@#@@@@@@@@@@@@@",
"@@@@@@@@@@@@@@@@@@@@##########@@@@@#@@@@@@@@@@@@",
"@@@@@@@@@@@@@@@@@@@@@@ @@@@@@@@@@@@@@@@@@@@@@@@@",
"@@@@@@@@     @@@@@@@@@ @@@@@@@@@@@@@@@@@@@@@@@@@",
"@@@@@@@@ @@@@ @@@@@@@@ @@@@@@@@@@@@@@@@@@@@@@@@@",
"@@@@@@@@ @@@@@ @@   @@ @  @@ @@@ @@    @@@@@@@@@",
"@@@@@@@@ @@@@@ @ @@@ @  @@ @ @@@ @ @@@ @@@@@@@@@",
"@@@@@@@@ @@@@@ @ @@@ @ @@@ @ @@@ @ @@@ @@@@@@@@@",
"@@@@@@@@ @@@@@ @     @ @@@ @ @@@ @ @@@ @@@@@@@@@",
"@@@@@@@@ @@@@@ @ @@@@@ @@@ @ @@@ @ @@@ @@@@@@@@@",
"@@@@@@@@ @@@@ @@ @@@ @ @@@ @ @@  @ @@  @@@@@@@@@",
"@@@@@@@@     @@@@   @@    @@@  @ @@  @ @@@@@@@@@",
"@@@@@@@@@@@@@@@@@@@@@@@@@@@@@@@@@@@@@@ @@@@@@@@@",
"@@@@@@@@@@@@@@@@@@@@@@@@@@@@@@@@@@@    @@@@@@@@@"
};
