/* XPM */
static char *noname[] = {
/* width height ncolors chars_per_pixel */
"32 18 8 1",
/* colors */
"  c #CDBEBB",
". c #D0D0CD",
"X c #D9D5D2",
"o c #BA9C8F",
"O c #D8E0C5",
"+ c #ACC0AA",
"@ c none",
"# c #BBBBBB",
/* pixels */
"@@@@@@@@@.ooooooooooo.@@@@@@@@@@",
"@@@@@@@@@+ooooooooooo.@@@@@@@@@@",
"@@@@@@@@@+OOOOOOOOO++#X@@@@@@@@@",
"@@@@@@@@@+OO  OOOOO++#X@@@@@@@@@",
"@@@@@@@@@+OOooOOOOO++#X@@@@@@@@@",
"@@@@@@@@@+O .. OOOO++#X@@@@@@@@@",
"@@@@@@@@@+OOOOOOOOO++#X@@@@@@@@@",
"@@@@@@@@@+OOOOOOOOO++#X@@@@@@@@@",
"@@@@@@@@@+OOOOOOOOO++#X@@@@@@@@@",
"@@@@@@@@@+OOOOOOOOO++#X@@@@@@@@@",
"@@@@@@@@@+OOOOO   O++#X@@@@@@@@@",
"@@@@@@@@@+OOOOO ##O++#X@@@@@@@@@",
"@@@@@@@@@+OOOOO. OO++#X@@@@@@@@@",
"@@@@@@@@@+OOOO.o++O++#X@@@@@@@@@",
"@@@@@@@@@+         +#.X@@@@@@@@@",
"@@@@@@@@@. #########..X@@@@@@@@@",
"@@@@@@@@@@@..........X@@@@@@@@@@",
"@@@@@@@@@@@@@@@@@@@@@@@@@@@@@@@@"
};
