/* XPM */
static char *noname[] = {
/* width height ncolors chars_per_pixel */
"48 39 4 1",
/* colors */
"  c #D1D2D1",
". c #D5E0C4",
"X c #B2BAAD",
"o c none",
/* pixels */
"oooooooooooooooXXXXXXXXXXXXXXXXXoooooooooooooooo",
"ooooooooooooooXXXXXXXXXXXXXXXXXXoooooooooooooooo",
"ooooooooooooooXXXXXXXXXXXXXXXXXXoooooooooooooooo",
"ooooooooooooooX..............XXX  oooooooooooooo",
"ooooooooooooooX....X.........XXX  oooooooooooooo",
"ooooooooooooooX....X.........XXX  oooooooooooooo",
"ooooooooooooooX...XXX........XXX  oooooooooooooo",
"ooooooooooooooX...X.X........XXX  oooooooooooooo",
"ooooooooooooooX..X...X.......XXX  oooooooooooooo",
"ooooooooooooooX..............XXX  oooooooooooooo",
"ooooooooooooooX..............XXX  oooooooooooooo",
"ooooooooooooooX..............XXX  oooooooooooooo",
"ooooooooooooooX..............XXX  oooooooooooooo",
"ooooooooooooooX..............XXX  oooooooooooooo",
"ooooooooooooooX..............XXX  oooooooooooooo",
"ooooooooooooooX..............XXX  oooooooooooooo",
"ooooooooooooooX.......XXXXX..XXX  oooooooooooooo",
"ooooooooooooooX..........X...XXX  oooooooooooooo",
"ooooooooooooooX.........X....XXX  oooooooooooooo",
"ooooooooooooooX........X.....XXX  oooooooooooooo",
"ooooooooooooooX.......XXXXX..XXX  oooooooooooooo",
"ooooooooooooooX..............XX   oooooooooooooo",
"ooooooooooooooXXXXXXXXXXXXXXXX    oooooooooooooo",
"oooooooooooooooo                  oooooooooooooo",
"oooooooooooooooo                 ooooooooooooooo",
"oooooooooooooooo                oooooooooooooooo",
"oooooooooooooooooooooooooooooooooooooooooooooooo",
"ooooooooooooooooXXoXoooooooXooooooXooooooooooooo",
"XXXXXooooooooooXoooXoooooooXooXoooXooooooooooooo",
"XooooXoooooooooXooooooooooooooXooooooooooooooooo",
"XoooooXooXXXooXXXXoXoXoXXooXoXXXXoXoooXXoooXoXXo",
"XoooooXoXoooXooXoooXoXXooXoXooXoooXooXooXooXXooX",
"XoooooXoXoooXooXoooXoXoooXoXooXoooXoXooooXoXoooX",
"XoooooXoXXXXXooXoooXoXoooXoXooXoooXoXooooXoXoooX",
"XoooooXoXooooooXoooXoXoooXoXooXoooXoXooooXoXoooX",
"XooooXooXoooXooXoooXoXoooXoXooXoooXooXooXooXoooX",
"XXXXXooooXXXoooXoooXoXoooXoXoooXXoXoooXXoooXoooX",
"oooooooooooooooooooooooooooooooooooooooooooooooo",
"oooooooooooooooooooooooooooooooooooooooooooooooo"
};
