/* XPM */
static char *noname[] = {
/* width height ncolors chars_per_pixel */
"32 18 14 1",
/* colors */
"  c #D6D6D5",
". c #9392A3",
"X c #C5C5C9",
"o c #D2D2D2",
"O c #B0BEAD",
"+ c #A8A198",
"@ c #6C7888",
"# c #BABABA",
"$ c #6E3634",
"% c #272333",
"& c #FEED9F",
"* c #CCA69F",
"= c none",
"- c #5A575F",
/* pixels */
"=========O%%%%%%%%%%%.==========",
"=========-%%%%%%%%%%%.==========",
"=========-&&&&&&&&&$$@X=========",
"=========-&&++&&&&&$$@X=========",
"=========-&&%%&&&&&$$@X=========",
"=========-&@**@&&&&$$@X=========",
"=========-&&&&&&&&&$$@X=========",
"=========-&&&&&&&&&$$@X=========",
"=========-&&&&&&&&&$$@X=========",
"=========-&&&&&&&&&$$@X=========",
"=========-&&&&&+++&$$@X=========",
"=========-&&&&&+--&$$@X=========",
"=========-&&&&&*@&&$$@X=========",
"=========-&&&&*%$$&$$@X=========",
"=========-+++++++++%-#X=========",
"=========O.@@@@@@@@@##X=========",
"==========o##########X==========",
"========== oooooooooo =========="
};
