/* XPM */
static char *noname[] = {
/* width height ncolors chars_per_pixel */
"32 18 11 1",
/* colors */
"  c #000000",
". c #FFEEA0",
"X c #CDBEBB",
"o c #825143",
"O c #6C8B5E",
"+ c #D0D0CD",
"@ c #BA9C8F",
"# c #ACC0AA",
"$ c #307030",
"% c none",
"& c #BBBBBB",
/* pixels */
"%%%%%%%%%#           @%%%%%%%%%%",
"%%%%%%%%%$          $@%%%%%%%%%%",
"%%%%%%%%%$.........o$O+%%%%%%%%%",
"%%%%%%%%%$..@@.....o$O+%%%%%%%%%",
"%%%%%%%%%$..  .....o$O+%%%%%%%%%",
"%%%%%%%%%$.O@@O....o$O+%%%%%%%%%",
"%%%%%%%%%$.........o$O+%%%%%%%%%",
"%%%%%%%%%$.........o$O+%%%%%%%%%",
"%%%%%%%%%$.........o$O+%%%%%%%%%",
"%%%%%%%%%$.........o$O+%%%%%%%%%",
"%%%%%%%%%$.....@@@.o$O+%%%%%%%%%",
"%%%%%%%%%$.....@oo.o$O+%%%%%%%%%",
"%%%%%%%%%$.....@O..o$O+%%%%%%%%%",
"%%%%%%%%%$....@ oo.o$O+%%%%%%%%%",
"%%%%%%%%%$@@@@@@@@@$O&+%%%%%%%%%",
"%%%%%%%%%#@OOOOOOOOO&&+%%%%%%%%%",
"%%%%%%%%%%+&&&&&&&&&&X%%%%%%%%%%",
"%%%%%%%%%%%++++++++++%%%%%%%%%%%"
};
