/* XPM */
static char *noname[] = {
/* width height ncolors chars_per_pixel */
"32 18 10 1",
/* colors */
"  c #000000",
". c #728769",
"X c #BB9F93",
"o c #FFEEA0",
"O c #D2D4D2",
"+ c #CAC2BC",
"@ c #B0B0AB",
"# c none",
"$ c #425E37",
"% c #BBBBBB",
/* pixels */
"#########@           X##########",
"#########$          $X##########",
"#########$ooooooooo$$.+#########",
"#########$ooXXooooo$$.+#########",
"#########$oo  ooooo$$.+#########",
"#########$o.XX.oooo$$.+#########",
"#########$ooooooooo$$.+#########",
"#########$ooooooooo$$.+#########",
"#########$ooooooooo$$.+#########",
"#########$ooooooooo$$.+#########",
"#########$oooooXXXo$$.+#########",
"#########$oooooX..o$$.+#########",
"#########$oooooX.oo$$.+#########",
"#########$ooooX $$o$$.+#########",
"#########$XXXXXXXXX$.%+#########",
"#########@..........%%+#########",
"##########O%%%%%%%%%%+##########",
"###########OOOOOOOOOO###########"
};
