/* XPM */
static char *noname[] = {
/* width height ncolors chars_per_pixel */
"48 39 5 1",
/* colors */
"  c #BB9F93",
". c #DFE1C6",
"X c #D2D4D2",
"o c #B0B0AB",
"O c none",
/* pixels */
"OOOOOOOOOOOOOOO                 OOOOOOOOOOOOOOOO",
"OOOOOOOOOOOOOO                  OOOOOOOOOOOOOOOO",
"OOOOOOOOOOOOOO                o OOOOOOOOOOOOOOOO",
"OOOOOOOOOOOOOO .............. o XXOOOOOOOOOOOOOO",
"OOOOOOOOOOOOOO .... ......... o XXOOOOOOOOOOOOOO",
"OOOOOOOOOOOOOO .... ......... o XXOOOOOOOOOOOOOO",
"OOOOOOOOOOOOOO ...   ........ o XXOOOOOOOOOOOOOO",
"OOOOOOOOOOOOOO ... . ........ o XXOOOOOOOOOOOOOO",
"OOOOOOOOOOOOOO .. ... ....... o XXOOOOOOOOOOOOOO",
"OOOOOOOOOOOOOO .............. o XXOOOOOOOOOOOOOO",
"OOOOOOOOOOOOOO .............. o XXOOOOOOOOOOOOOO",
"OOOOOOOOOOOOOO .............. o XXOOOOOOOOOOOOOO",
"OOOOOOOOOOOOOO .............. o XXOOOOOOOOOOOOOO",
"OOOOOOOOOOOOOO .............. o XXOOOOOOOOOOOOOO",
"OOOOOOOOOOOOOO .............. o XXOOOOOOOOOOOOOO",
"OOOOOOOOOOOOOO .............. o XXOOOOOOOOOOOOOO",
"OOOOOOOOOOOOOO .......     .. o XXOOOOOOOOOOOOOO",
"OOOOOOOOOOOOOO .......... ... o XXOOOOOOOOOOOOOO",
"OOOOOOOOOOOOOO ......... .... o XXOOOOOOOOOOOOOO",
"OOOOOOOOOOOOOO ........ ..... o XXOOOOOOOOOOOOOO",
"OOOOOOOOOOOOOO .......     .. o XXOOOOOOOOOOOOOO",
"OOOOOOOOOOOOOO ..............  XXXOOOOOOOOOOOOOO",
"OOOOOOOOOOOOOO                XXXXOOOOOOOOOOOOOO",
"OOOOOOOOOOOOOOOOXXXXXXXXXXXXXXXXXXOOOOOOOOOOOOOO",
"OOOOOOOOOOOOOOOOXXXXXXXXXXXXXXXXXOOOOOOOOOOOOOOO",
"OOOOOOOOOOOOOOOOXXXXXXXXXXXXXXXXOOOOOOOOOOOOOOOO",
"OOOOOOOOOOOOOOOOOOOOOOOOOOOOOOOOOOOOOOOOOOOOOOOO",
"OOOOOOOOOOOOOOOO  O OOOOOOO OOOOOO OOOOOOOOOOOOO",
"     OOOOOOOOOO OOO OOOOOOO OO OOO OOOOOOOOOOOOO",
" OOOO OOOOOOOOO OOOOOOOOOOOOOO OOOOOOOOOOOOOOOOO",
" OOOOO OO   OO    O O O  OO O    O OOO  OOO O  O",
" OOOOO O OOO OO OOO O  OO O OO OOO OO OO OO  OO ",
" OOOOO O OOO OO OOO O OOO O OO OOO O OOOO O OOO ",
" OOOOO O     OO OOO O OOO O OO OOO O OOOO O OOO ",
" OOOOO O OOOOOO OOO O OOO O OO OOO O OOOO O OOO ",
" OOOO OO OOO OO OOO O OOO O OO OOO OO OO OO OOO ",
"     OOOO   OOO OOO O OOO O OOO  O OOO  OOO OOO ",
"OOOOOOOOOOOOOOOOOOOOOOOOOOOOOOOOOOOOOOOOOOOOOOOO",
"OOOOOOOOOOOOOOOOOOOOOOOOOOOOOOOOOOOOOOOOOOOOOOOO"
};
