/* XPM */
static char *noname[] = {
/* width height ncolors chars_per_pixel */
"32 18 8 1",
/* colors */
"  c #D9D5D1",
". c #D0B9B5",
"X c #9A8F79",
"o c #CECECC",
"O c #D8E0C5",
"+ c #ACC0AA",
"@ c none",
"# c #BBBBBB",
/* pixels */
"@@@@@@@@@oXXXXXXXXXXXo@@@@@@@@@@",
"@@@@@@@@@+XXXXXXXXXX+o@@@@@@@@@@",
"@@@@@@@@@+OOOOOOOOO++# @@@@@@@@@",
"@@@@@@@@@+OO..OOOOO++# @@@@@@@@@",
"@@@@@@@@@+OO++OOOOO++# @@@@@@@@@",
"@@@@@@@@@+O#oO#OOOO++# @@@@@@@@@",
"@@@@@@@@@+OOOOOOOOO++# @@@@@@@@@",
"@@@@@@@@@+OOOOOOOOO++# @@@@@@@@@",
"@@@@@@@@@+OOOOOOOOO++# @@@@@@@@@",
"@@@@@@@@@+OOOOOOOOO++# @@@@@@@@@",
"@@@@@@@@@+OOOOO...O++# @@@@@@@@@",
"@@@@@@@@@+OOOOO.##O++# @@@@@@@@@",
"@@@@@@@@@+OOOOOo#OO++# @@@@@@@@@",
"@@@@@@@@@+OOOOo+++O++# @@@@@@@@@",
"@@@@@@@@@+.........+#  @@@@@@@@@",
"@@@@@@@@@o##########   @@@@@@@@@",
"@@@@@@@@@@@           @@@@@@@@@@",
"@@@@@@@@@@@@@@@@@@@@@@@@@@@@@@@@"
};
