/* XPM */
static char *magick[] = {
/* columns rows colors chars-per-pixel */
"48 34 6 1",
"  c Gray0",
", c #bbbbbb",
". c none",
"+ c #808000",
"# c #ffff00",
"* c #ffee00"
/* pixels */
"................ . . . . . . . .................",
"............... . . . . . . . . ................",
".............. . . . . . . . .+.................",
"...............*.*.*.*.*.*.*. . .,..............",
".............. .*.*.*.*.*.*.*.+.,...............",
"...............*.*. .*.*.*.*. . .,..............",
".............. .*. . .*.*.*.*.+.,...............",
"...............*.*.*.*.*.*.*. . .,..............",
".............. .*.*.*.*.*.*.*.+.,...............",
"...............*.*.*.*.*.*.*. . .,..............",
".............. .*.*.*.*.*.*.*.+.,...............",
"...............*.*.*.*.*.*.*. . .,..............",
".............. .*.*.*.*.*.*.*.+.,...............",
"...............*.*.*.*.*.*.*. . .,..............",
".............. .*.*.*.*.*.*.*.+.,...............",
"...............*.*.*.*.*.*.*. . .,..............",
".............. .*.*.*. . . .*.+.,...............",
"...............*.*.*.*.*. .*. . .,..............",
".............. .*.*.*.*. .*.*.+.,...............",
"...............*.*.*.*. .*.*. . .,..............",
".............. .*.*.*. . . .*.+.,...............",
"...............*.*.*.*.*.*.*. .,.,..............",
".............. . . . . . . . .,.,...............",
".................,.,.,.,.,.,.,.,.,..............",
"................ .,.,.,.,.,.,.,.,. .............",
". . ........... .,. .,.,.,. .,.,................",
" ............................. .................",
"......... . ... . . . . ... . . ....... ... . ..",
" ..... . ... ......... ....... ... ..... ... ...",
"............... ... . ... . ............. . ... ",
" ..... . . . ................. ... . ...........",
"............... ... . ... . ............. . ... ",
" ....... ... ................. ... ..... .......",
". . ..... . ... ... . ... . ... ....... ... ... ",
};
