/* XPM */
static char *noname[] = {
/* width height ncolors chars_per_pixel */
"32 18 12 1",
/* colors */
"  c #D6D6D5",
". c #595967",
"X c #EEDE95",
"o c #80938F",
"O c #D2D2D2",
"+ c #C4C5C6",
"@ c #FEED9F",
"# c #B5B3A6",
"$ c #30222A",
"% c #B69F96",
"& c none",
"* c #BBBBBB",
/* pixels */
"&&&&&&&&&#$$$$$$$$$$$o&&&&&&&&&&",
"&&&&&&&&&.$$$$$$$$$$$o&&&&&&&&&&",
"&&&&&&&&&.@@XX@@@@@.$o+&&&&&&&&&",
"&&&&&&&&&.@@%%@@@@@.$o+&&&&&&&&&",
"&&&&&&&&&.@@$$@@@@@.$o+&&&&&&&&&",
"&&&&&&&&&.@o%%o@@@@.$o+&&&&&&&&&",
"&&&&&&&&&.@@@@@@@@@.$o+&&&&&&&&&",
"&&&&&&&&&.@@@@@@@@@.$o+&&&&&&&&&",
"&&&&&&&&&.@@@@@@@@@.$o+&&&&&&&&&",
"&&&&&&&&&.@@@@@@@@@.$o+&&&&&&&&&",
"&&&&&&&&&.@@@@X%%%@.$o+&&&&&&&&&",
"&&&&&&&&&.@@@@X%..@.$o+&&&&&&&&&",
"&&&&&&&&&.@@@@@%o@@.$o+&&&&&&&&&",
"&&&&&&&&&.@@@@%$..@.$o+&&&&&&&&&",
"&&&&&&&&&.%%%%%%%%%$.*+&&&&&&&&&",
"&&&&&&&&&#oooooooooo**+&&&&&&&&&",
"&&&&&&&&&&O**********+&&&&&&&&&&",
"&&&&&&&&&& OOOOOOOOOO &&&&&&&&&&"
};
