/* XPM */
static char *noname[] = {
/* width height ncolors chars_per_pixel */
"32 18 10 1",
/* colors */
"  c #000000",
". c #D9D5D1",
"X c #FFEEA0",
"o c #D3A9A0",
"O c #9A8F79",
"+ c #CECECC",
"@ c #624E3A",
"# c #ACC0AA",
"$ c none",
"% c #BBBBBB",
/* pixels */
"$$$$$$$$$#           O$$$$$$$$$$",
"$$$$$$$$$@          @O$$$$$$$$$$",
"$$$$$$$$$@XXXXXXXXX@@O+$$$$$$$$$",
"$$$$$$$$$@XXOOXXXXX@@O+$$$$$$$$$",
"$$$$$$$$$@XX  XXXXX@@O+$$$$$$$$$",
"$$$$$$$$$@XOooOXXXX@@O+$$$$$$$$$",
"$$$$$$$$$@XXXXXXXXX@@O+$$$$$$$$$",
"$$$$$$$$$@XXXXXXXXX@@O+$$$$$$$$$",
"$$$$$$$$$@XXXXXXXXX@@O+$$$$$$$$$",
"$$$$$$$$$@XXXXXXXXX@@O+$$$$$$$$$",
"$$$$$$$$$@XXXXXOOOX@@O+$$$$$$$$$",
"$$$$$$$$$@XXXXXO@@X@@O+$$$$$$$$$",
"$$$$$$$$$@XXXXXoOXX@@O+$$$$$$$$$",
"$$$$$$$$$@XXXXo @@X@@O+$$$$$$$$$",
"$$$$$$$$$@OOOOOOOOO@@%+$$$$$$$$$",
"$$$$$$$$$#OOOOOOOOOO%%+$$$$$$$$$",
"$$$$$$$$$$.%%%%%%%%%%%$$$$$$$$$$",
"$$$$$$$$$$$..........$$$$$$$$$$$"
};
