/* XPM */
static char *noname[] = {
/* width height ncolors chars_per_pixel */
"32 18 9 1",
/* colors */
"  c #BB9F93",
". c #DAD7D2",
"X c #DFE1C6",
"o c #D2D4D2",
"O c #CAC2BC",
"+ c #D1D1D0",
"@ c #B0B0AB",
"# c none",
"$ c #BBBBBB",
/* pixels */
"#########+           O##########",
"#########@          @O##########",
"#########@XXXXXXXXX@@$.#########",
"#########@XXOOXXXXX@@$.#########",
"#########@XX@@XXXXX@@$.#########",
"#########@XO++OXXXX@@$.#########",
"#########@XXXXXXXXX@@$.#########",
"#########@XXXXXXXXX@@$.#########",
"#########@XXXXXXXXX@@$.#########",
"#########@XXXXXXXXX@@$.#########",
"#########@XXXXXOOOX@@$.#########",
"#########@XXXXXO$$X@@$.#########",
"#########@XXXXX+OXX@@$.#########",
"#########@XXXX+@@@X@@$.#########",
"#########@OOOOOOOOO@$o.#########",
"#########+O$$$$$$$$$oo.#########",
"###########ooooooooooo##########",
"################################"
};
