/* XPM */
static char *noname[] = {
/* width height ncolors chars_per_pixel */
"32 18 14 1",
/* colors */
"  c #D6D6D5",
". c #BABAB9",
"X c #98959E",
"o c #C4C5C5",
"O c #54555A",
"+ c #D2D2D2",
"@ c #272333",
"# c #AFBFAB",
"$ c #FEED9F",
"% c #A6A498",
"& c #C39D9A",
"* c #D0A8A0",
"= c none",
"- c #8B8793",
/* pixels */
"=========#@@@@@@@@@@@X==========",
"=========O@@@@@@@@@@@X==========",
"=========O$$$$$$$$$O@-o=========",
"=========O$$%%$$$$$O@-o=========",
"=========O$$@@$$$$$O@-o=========",
"=========O$-**-$$$$O@-o=========",
"=========O$$$$$$$$$O@-o=========",
"=========O$$$$$$$$$O@-o=========",
"=========O$$$$$$$$$O@-o=========",
"=========O$$$$$$$$$O@-o=========",
"=========O$$$$$%%%$O@-o=========",
"=========O$$$$$%OO$O@-o=========",
"=========O$$$$$&-$$O@-o=========",
"=========O$$$$&@OO$O@-o=========",
"=========O%%%%%%%%%@O.o=========",
"=========#----------..o=========",
"==========+..........o==========",
"========== ++++++++++ =========="
};
