/* XPM */
static char *noname[] = {
/* width height ncolors chars_per_pixel */
"32 18 12 1",
/* colors */
"  c #000000",
". c #FFEEA0",
"X c #D9D6D3",
"o c #D1D2D1",
"O c #C7A3A3",
"+ c #758F5F",
"@ c #64523E",
"# c #C8C5C1",
"$ c #652F2D",
"% c #B2BAAD",
"& c none",
"* c #BBBBBB",
/* pixels */
"&&&&&&&&&%           %&&&&&&&&&&",
"&&&&&&&&&@          $%&&&&&&&&&&",
"&&&&&&&&&@.........@$+#&&&&&&&&&",
"&&&&&&&&&@..++.....@$+#&&&&&&&&&",
"&&&&&&&&&@..  .....@$+#&&&&&&&&&",
"&&&&&&&&&@.+OO+....@$+#&&&&&&&&&",
"&&&&&&&&&@.........@$+#&&&&&&&&&",
"&&&&&&&&&@.........@$+#&&&&&&&&&",
"&&&&&&&&&@.........@$+#&&&&&&&&&",
"&&&&&&&&&@.........@$+#&&&&&&&&&",
"&&&&&&&&&@.....+++.@$+#&&&&&&&&&",
"&&&&&&&&&@.....+@@.@$+#&&&&&&&&&",
"&&&&&&&&&@.....O+..@$+#&&&&&&&&&",
"&&&&&&&&&@....O @@.@$+#&&&&&&&&&",
"&&&&&&&&&@+++++++++$+*#&&&&&&&&&",
"&&&&&&&&&%++++++++++**#&&&&&&&&&",
"&&&&&&&&&&o**********#&&&&&&&&&&",
"&&&&&&&&&&XooooooooooX&&&&&&&&&&"
};
