/* XPM */
static char *noname[] = {
/* width height ncolors chars_per_pixel */
"32 18 16 1",
/* colors */
"  c #AFAFB5",
". c #CCCBC4",
"X c #D5D5D3",
"o c #BFBEC4",
"O c #E7E2CA",
"+ c #ACA7AD",
"@ c #D7D8D7",
"# c #D2D2D2",
"$ c #9F929C",
"% c #DDD9CE",
"& c #ADA195",
"* c #B1B0A9",
"= c none",
"- c #BBBBBB",
"; c #D9CCBE",
": c #C8C4C1",
/* pixels */
"=========#$$$$$$$$$$$:==========",
"========= $$$$$$$$$$&:==========",
"========= OO%%OOOOO**o@=========",
"========= OO..OOOOO**o@=========",
"========= OO&&OOOOO**o@=========",
"========= O:;;:OOOO**o@=========",
"========= OOOOOOOOO**o@=========",
"========= OOOOOOOOO**o@=========",
"========= OOOOOOOOO**o@=========",
"========= OOOOOOOOO**o@=========",
"========= OOOO%...O**o@=========",
"========= OOOO%.--O**o@=========",
"========= OOOOO;:OO**o@=========",
"========= OOOO;&**O**o@=========",
"========= .........+-#@=========",
"=========#:ooooooooo##@=========",
"==========@##########X==========",
"===========@@@@@@@@@@==========="
};
