/* XPM */
static char *magick[] = {
/* columns rows colors chars-per-pixel */
"34 36 5 1",
"* c Gray0",
". c none",
", c #999999",
"y c #ffeea0",
"b c #7fffd4",
/* pixels */
"..................................",
"..................................",
".........****.....................",
".......**yyyy**...................",
"......*yyyyyyyy*..................",
".....*yyyyyyyyyy*.................",
"....*yyyyyyyyyyyy*..........*.....",
"....*yyyyyyyyyyyyy*........**,....",
"....*yyyyyyyyyyyyyy**....**y*,....",
"....*yyyyyyyyyyyyyyyy****yyy*,....",
"....*yy*yy*yyy*yyyyyyyyyyyyy*,....",
"....*yy******y*******yyyyyyy*,....",
"....*yyyyyyyyyyyyyyyyyyyyyyy*,....",
"....*yyyyyyyyyyyyyyyyyyyyyyy*,....",
"....*yy*yyyyyyyyyyyyyyyyyyyy*,....",
"....*yy**y*****y**y**yyyyyyy*,....",
"....*yyyyyyyyyyyyyyyyyyyyyyy*,....",
"....*yyyyyyyyyyyyyyyyyyyyyyy*,....",
"....*yy*yyyyyyyyyyyyyyyyyyyy*,....",
"....*yy***y**y*****y**y*yyyy*,....",
"....*yyyyyyyyyyyyyyyyyyyyyyy*,....",
"....*yyyyyyyyyyyyyyyyyyyyyyy*,....",
"....*yy*yyyyyy*yyyy*yyyyyyyy*,....",
"....*yy***y*y****yy****yyyyy*,....",
"....*yyyyyyyyyyyyyyyyyyyyyyy*,....",
"....*yyyyyyyyyyyyyyyyyyyyyyy*,....",
"....*yyyyyyyyyyyyyyyyyyyyyyy*,....",
"....*yyyy****yyyyyyyyyyyyyyy*,....",
"....*yy**....**yyyyyyyyyyyyy*,....",
"....*y*........*yyyyyyyyyyyy*,....",
"....**..........*yyyyyyyyyyy*,....",
"....*............*yyyyyyyyyy*,....",
"..................*yyyyyyyy*,,....",
"...................**yyyy**,,.....",
"....................,****,,,......",
"......................,,,,........"
};
