/* XPM */
static char *magick[] = {
/* columns rows colors chars-per-pixel */
"34 36 5 1",
"* c Gray0",
". c none",
", c #999999",
"y c #ffeea0",
"b c #7fffd4",
/* pixels */
"..................................",
"..................................",
".........***************..........",
".........*yyyyyyyyyyyyy**.........",
".........*yyyyyyyyyyyyy*y*........",
".........*yyyyyyyyyyyyy*yy*.......",
".........*yyyyyyyyyyyyy*yyy*......",
".........*yyyyyyyyyyyyy*yyyy*.....",
".........*yyyyyyyyyyyyy*yyyyy*....",
".........*yyyyyyyyyyyyy*yyyyyy*...",
".........*yyyyyyyyyyyyy*yyyyyyy*..",
".........*yyyyyyyyyyyyy**********.",
".........*yyyyyyyyyyyyyyyyyyyyyy*,",
".........*yyyyyyyyyyyyyyyyyyyyyy*,",
".........*yyyyyyyyyyyyyyyyyyyyyy*,",
".........*yyyyyyyyyyyyyyyyyyyyyy*,",
".........*yyyyyyyyyyyyyyyyyyyyyy*,",
".........*yyyyyyyyyyyyyyyyyyyyyy*,",
".........*yyyyyyyyyyyyyyyyyyyyyy*,",
".........*yyyyyyyyyyyyyyyyyyyyyy*,",
".........*yyyyyyyyyyyyyyyyyyyyyy*,",
".........*yyyyyyyyyyyyyyyyyyyyyy*,",
".........*yyyyyyyyyyyyyyyyyyyyyy*,",
".........*yyyyyyyyyyyyyyyyyyyyyy*,",
".........*yyyyyyyyyyyyyyyyyyyyyy*,",
".........*yyyyyyyyyyyyyyyyyyyyyy*,",
".........*yyyyyyyyyyyyyyyyyyyyyy*,",
".........*yyyyyyyyyyyyyyyyyyyyyy*,",
".........*yyyyyyyyyyyyyyyyyyyyyy*,",
".........*yyyyyyyyyyyyyyyyyyyyyy*,",
".........*yyyyyyyyyyyyyyyyyyyyyy*,",
".........*yyyyyyyyyyyyyyyyyyyyyy*,",
".........*yyyyyyyyyyyyyyyyyyyyyy*,",
".........*yyyyyyyyyyyyyyyyyyyyyy*,",
".........************************,",
"..........,,,,,,,,,,,,,,,,,,,,,,,,"
};
