/* XPM */
static char *magick[] = {
/* columns rows colors chars-per-pixel */
"34 36 5 1",
"* c Gray0",
". c none",
", c #999999",
"y c #ffeea0",
"b c #7fffd4",
/* pixels */
"..................................",
"..................................",
"..................................",
"..................................",
"..................................",
"..................................",
"........****************..........",
"........*yyyyyyyyyyyyyy**.........",
"........*yyyyyyyyyyyyyy*y*........",
"........*yyyyyyyyyyyyyy*yy*.......",
"........*yyyyyyyyyyyyyy*yyy*......",
"........*yyyyyyyyyyyyyy*yyyy*.....",
"........*yyyyyyyyyyyyyy*yyyyy*....",
"........*yyyyyyyyyyyyyy*yyyyyy*...",
"........*yyyyyyyyyyyyyy*yyyyyyy*..",
".******************yyyy**********.",
".*bbbbbbbbbbbbbbbb*yyyyyyyyyyyyy*,",
".*bbbbbbbbbbbbbbbb*yyyyyyyyyyyyy*,",
".*bbbbbb****bbbbbb*yyyyyyyyyyyyy*,",
".*bbbb***bb*bbbbbb*yyyyyyyyyyyyy*,",
".*bbb****bb*bbbbbb*yyyyyyyyyyyyy*,",
".*bbb**bb**bbbbbbb*yyyyyyyyyyyyy*,",
".*bb***bb**bbbbbbb*yyyyyyyyyyyyy*,",
".*bb*bb*****bbbbbb*yyyyyyyyyyyyy*,",
".*bb*bb*b****bbbbb*yyyyyyyyyyyyy*,",
".*bb***bbb****bbbb*yyyyyyyyyyyyy*,",
".*bbbbbbbbb*****bb*yyyyyyyyyyyyy*,",
".*bbbbbbbbbb**bb*b*yyyyyyyyyyyyy*,",
".*bbbbbbbbbbbb**bb*yyyyyyyyyyyyy*,",
".*bbbbbbbbbbbbbbbb*yyyyyyyyyyyyy*,",
".*bbbbbbbbbbbbbbbb*yyyyyyyyyyyyy*,",
".******************yyyyyyyyyyyyy*,",
"..,,,,,,*yyyyyyyyyyyyyyyyyyyyyyy*,",
"........*yyyyyyyyyyyyyyyyyyyyyyy*,",
"........*************************,",
".........,,,,,,,,,,,,,,,,,,,,,,,,,"
};
