/* XPM */
static char *magick[] = {
/* columns rows colors chars-per-pixel */
"34 36 2 1",
"* c Gray0",
". c #ffffff",
/* pixels */
"..................................",
"..................................",
"..................................",
"..................................",
"..................................",
"..................................",
"..................................",
"..................................",
"..................................",
"..................................",
"..................................",
"..................................",
"..................................",
"..................................",
"..................................",
"..................................",
"..................................",
"..................................",
"..................................",
"..................................",
"..................................",
"..................................",
"*****************************.....",
"*****************************.....",
".*****************************....",
".*****************************....",
".*****************************....",
"..*****************************...",
"..*****************************...",
"..*****************************...",
"...*****************************..",
"...*****************************..",
"...*****************************..",
"....*****************************.",
"....*****************************.",
".................................."
};
