/* XPM */
static char *magick[] = {
/* columns rows colors chars-per-pixel */
"34 36 4 1",
"* c Gray0",
". c none",
", c #999999",
"y c #ffeea0",
/* pixels */
"..................................",
"..................................",
"..................................",
"..................................",
"..................................",
"..................................",
"..................................",
"..................................",
"..................................",
"..................................",
"......**********..................",
".....*yyyyyyyyyy*.................",
"....*yyyyyyyyyyyy*................",
"...*yyyyyyyyyyyyyy*...............",
"..*yyyyyyyyyyyyyyyy**************.",
"..*yyyyyyyyyyyyyyyyyyyyyyyyyyyyy*,",
"..*yyyyyyyyyyyyyyyyyyyyyyyyyyyyy*,",
"..*yyyyyyyyyyyyyyyyyyyyyyyyyyyyy*,",
"..*yyyyyyyyyyyyyyyyyyyyyyyyyyyyy*,",
"..*yyyyyyyyyyyyyyyyyyyyyyyyyyyyy*,",
"..*yyyyyyyyyyyyyyyyyyyyyyyyyyyyy*,",
"..*yyyyyyyyyyyyyyyyyyyyyyyyyyyyy*,",
"*****************************yyy*,",
"*yyyyyyyyyyyyyyyyyyyyyyyyyyy*yyy*,",
".*yyyyyyyyyyyyyyyyyyyyyyyyyyy*yy*,",
".*yyyyyyyyyyyyyyyyyyyyyyyyyyy*yy*,",
".*yyyyyyyyyyyyyyyyyyyyyyyyyyy*yy*,",
"..*yyyyyyyyyyyyyyyyyyyyyyyyyyy*y*,",
"..*yyyyyyyyyyyyyyyyyyyyyyyyyyy*y*,",
"..*yyyyyyyyyyyyyyyyyyyyyyyyyyy*y*,",
"...*yyyyyyyyyyyyyyyyyyyyyyyyyyy**,",
"...*yyyyyyyyyyyyyyyyyyyyyyyyyyy**,",
"...*yyyyyyyyyyyyyyyyyyyyyyyyyyy**,",
"....*yyyyyyyyyyyyyyyyyyyyyyyyyyy*,",
"....*****************************,",
".....,,,,,,,,,,,,,,,,,,,,,,,,,,,,,"
};
