/* XPM */
static char *noname[] = {
/* width height ncolors chars_per_pixel */
"32 18 9 1",
/* colors */
"  c #D6D6D5",
". c #B7C5B8",
"X c #D2D2D2",
"o c #D4CEC9",
"O c #C4C5C6",
"+ c #CCC7C3",
"@ c #9AE298",
"# c none",
"$ c #ADBAB1",
/* pixels */
"################  ##############",
"################X.##############",
"################X@. ############",
"################X.@.############",
"################X..@. ##########",
"################X...@.##########",
"######X@@@@@@@@@@....@. ########",
"######X@..............@.########",
"######X@..............$.o#######",
"######X.$$$$$$$$$.....$.X#######",
"######X.............$$OXX ######",
"########XXXXXXXX+...$.XX #######",
"########        o.$$OXX ########",
"################X.$.XX #########",
"################X$OXX ##########",
"################XOXX ###########",
"##################X ############",
"################## #############"
};
