/* XPM */
static char *noname[] = {
/* width height ncolors chars_per_pixel */
"48 39 6 1",
/* colors */
"  c #000000",
". c #45EC45",
"X c #30B230",
"o c #307030",
"O c none",
"+ c #BBBBBB",
/* pixels */
"OOOOOOOOOOOOOOOOOOOOOOOOOOOOOOOOOOOOOOOOOOOOOOOO",
"OOOOOOOOOOOOOOOOOOOOOOOOO.OOOOOOOOOOOOOOOOOOOOOO",
"OOOOOOOOOOOOOOOOOOOOOOOOO..OOOOOOOOOOOOOOOOOOOOO",
"OOOOOOOOOOOOOOOOOOOOOOOOO...OOOOOOOOOOOOOOOOOOOO",
"OOOOOOOOOOOOOOOOOOOOOOOOO.X..OOOOOOOOOOOOOOOOOOO",
"OOOOOOOOOOOOOOOOOOOOOOOOO.XX..OOOOOOOOOOOOOOOOOO",
"OOOOOOOOOOOOOOOOOOOOOOOOO.XXX..OOOOOOOOOOOOOOOOO",
"OOOOOOOOOOOOOOOOOOOOOOOOO.XXXX..OOOOOOOOOOOOOOOO",
"OOOOOOOOOOOOOOOOOOOOOOOOO.XXXXX..OOOOOOOOOOOOOOO",
"OOOOOOOOOOOOOOOOOOOOOOOOO.XXXXXX..OOOOOOOOOOOOOO",
"OOOOOOOOOO................XXXXXXX..OOOOOOOOOOOOO",
"OOOOOOOOOO................XXXXXXXX..OOOOOOOOOOOO",
"OOOOOOOOOO..XXXXXXXXXXXXXXXXXXXXXXX..OOOOOOOOOOO",
"OOOOOOOOOO.oooooooooooooooXXXXXXXXoo+OOOOOOOOOOO",
"OOOOOOOOOOooooooooooooooo.XXXXXXXoo+++OOOOOOOOOO",
"OOOOOOOOOOOO+++++++++++++.XXXXXXoo+++++OOOOOOOOO",
"OOOOOOOOOOOO+++++++++++++.XXXXXoo+++++OOOOOOOOOO",
"OOOOOOOOOOOO+++++++++++++.XXXXoo+++++OOOOOOOOOOO",
"OOOOOOOOOOOOOOOOOOOOOOOOO.XXXoo+++++OOOOOOOOOOOO",
"OOOOOOOOOOOOOOOOOOOOOOOOO.XXoo+++++OOOOOOOOOOOOO",
"OOOOOOOOOOOOOOOOOOOOOOOOO.Xoo+++++OOOOOOOOOOOOOO",
"OOOOOOOOOOOOOOOOOOOOOOOOO.oo+++++OOOOOOOOOOOOOOO",
"OOOOOOOOOOOOOOOOOOOOOOOOO.o+++++OOOOOOOOOOOOOOOO",
"OOOOOOOOOOOOOOOOOOOOOOOOO.O++++OOOOOOOOOOOOOOOOO",
"OOOOOOOOOOOOOOOOOOOOOOOOOOO+++OOOOOOOOOOOOOOOOOO",
"OOOOOOOOOOOOOOOOOOOOOOOOOOO++OOOOOOOOOOOOOOOOOOO",
"OOOOOOOOOOOOOOOOOOOOOOOOOOO+OOOOOOOOOOOOOOOOOOOO",
"OOOOOOOOOOOOOOOOOOOOOOOOOOOOOOOOOOOOOOOOOOOOO OO",
"OOO    OOOOOOOOOOOOOOOOOOOOOOOOOOOOOOOOOOOOOO OO",
"OOO OOOOOOOOOOOOOOOOOOOOOOOOOOOOOOOOOOOOOOOOO OO",
"OOO OOOOOO  OOO O  O OOOOOOO OO   OO O  OO    OO",
"OOO OOOOO OO OO  OOO OOO OOO O OOO O  OOO OOO OO",
"OOO    O OOOO O OOOOO OO OOO OOOOO O OOOO OOO OO",
"OOO OOOO OOOO O OOOOO O O O OOO    O OOOO OOO OO",
"OOO OOOO OOOO O OOOOO O O O OO OOO O OOOO OOO OO",
"OOO OOOOO OO OO OOOOOO OOO OOO OOO O OOOO OO  OO",
"OOO OOOOOO  OOO OOOOOO OOO OOOO   OO OOOOO  O OO",
"OOOOOOOOOOOOOOOOOOOOOOOOOOOOOOOOOOOOOOOOOOOOOOOO",
"OOOOOOOOOOOOOOOOOOOOOOOOOOOOOOOOOOOOOOOOOOOOOOOO"
};
