/* XPM */
static char *noname[] = {
/* width height ncolors chars_per_pixel */
"32 18 17 1",
/* colors */
"  c #AEC5B1",
". c #D5D5D3",
"X c #BFBEC4",
"o c #30C130",
"O c #56EA55",
"+ c #C5C5C9",
"@ c #D7D8D7",
"# c #D2D2D2",
"$ c #426129",
"% c #4B8F4C",
"& c #817C6A",
"* c #30B030",
"= c none",
"- c #8E8F96",
"; c #BBBBBB",
": c #A9CDA9",
"> c #72C476",
/* pixels */
"================##==============",
"================:O==============",
"================:oO#============",
"================:ooO============",
"================:o*oO#==========",
"================:o**oO==========",
"======:ooooooooooo***oO#========",
"======:oooooooooo*****oO========",
"======:o****************>=======",
"======:*%%%%%%%%*o****$&X.======",
"====== &%%%%%%%%%o***$-;;X======",
"========;;;;;;;;>o**$&;;X@======",
"========++++++++:o*$-;;X========",
"================:o$&;;X@========",
"================:*-;;X==========",
"================:>;;X@==========",
"==================;X============",
"==================X@============"
};
