/* XPM */
static char *noname[] = {
/* width height ncolors chars_per_pixel */
"48 39 4 1",
/* colors */
"  c #D1D2D1",
". c #A3C8A3",
"X c #B2BAAD",
"o c none",
/* pixels */
"oooooooooooooooooooooooooooooooooooooooooooooooo",
"ooooooooooooooooooooooooo.oooooooooooooooooooooo",
"ooooooooooooooooooooooooo..ooooooooooooooooooooo",
"ooooooooooooooooooooooooo...oooooooooooooooooooo",
"ooooooooooooooooooooooooo....ooooooooooooooooooo",
"ooooooooooooooooooooooooo.....oooooooooooooooooo",
"ooooooooooooooooooooooooo......ooooooooooooooooo",
"ooooooooooooooooooooooooo.......oooooooooooooooo",
"ooooooooooooooooooooooooo........ooooooooooooooo",
"ooooooooooooooooooooooooo.........oooooooooooooo",
"oooooooooo.........................ooooooooooooo",
"oooooooooo..........................oooooooooooo",
"oooooooooo...........................ooooooooooo",
"oooooooooo.XXXXXXXXXXXXXXX........XX ooooooooooo",
"ooooooooooXXXXXXXXXXXXXXX........XX   oooooooooo",
"oooooooooooo             .......XX     ooooooooo",
"oooooooooooo             ......XX     oooooooooo",
"oooooooooooo             .....XX     ooooooooooo",
"ooooooooooooooooooooooooo....XX     oooooooooooo",
"ooooooooooooooooooooooooo...XX     ooooooooooooo",
"ooooooooooooooooooooooooo..XX     oooooooooooooo",
"ooooooooooooooooooooooooo.XX     ooooooooooooooo",
"ooooooooooooooooooooooooo.X     oooooooooooooooo",
"ooooooooooooooooooooooooo.o    ooooooooooooooooo",
"ooooooooooooooooooooooooooo   oooooooooooooooooo",
"ooooooooooooooooooooooooooo  ooooooooooooooooooo",
"ooooooooooooooooooooooooooo oooooooooooooooooooo",
"oooooooooooooooooooooooooooooooooooooooooooooXoo",
"oooXXXXooooooooooooooooooooooooooooooooooooooXoo",
"oooXoooooooooooooooooooooooooooooooooooooooooXoo",
"oooXooooooXXoooXoXXoXoooooooXooXXXooXoXXooXXXXoo",
"oooXoooooXooXooXXoooXoooXoooXoXoooXoXXoooXoooXoo",
"oooXXXXoXooooXoXoooooXooXoooXoooooXoXooooXoooXoo",
"oooXooooXooooXoXoooooXoXoXoXoooXXXXoXooooXoooXoo",
"oooXooooXooooXoXoooooXoXoXoXooXoooXoXooooXoooXoo",
"oooXoooooXooXooXooooooXoooXoooXoooXoXooooXooXXoo",
"oooXooooooXXoooXooooooXoooXooooXXXooXoooooXXoXoo",
"oooooooooooooooooooooooooooooooooooooooooooooooo",
"oooooooooooooooooooooooooooooooooooooooooooooooo"
};
