/* XPM */
static char *noname[] = {
/* width height ncolors chars_per_pixel */
"48 39 4 1",
/* colors */
"  c #D9D5D1",
". c #9A8F79",
"X c #ACC0AA",
"o c none",
/* pixels */
"oooooooooooooooooooooooooooooooooooooooooooooooo",
"oooooooooooooooooooooooooXoooooooooooooooooooooo",
"oooooooooooooooooooooooooXXooooooooooooooooooooo",
"oooooooooooooooooooooooooXXXoooooooooooooooooooo",
"oooooooooooooooooooooooooXXXXooooooooooooooooooo",
"oooooooooooooooooooooooooXXXXXoooooooooooooooooo",
"oooooooooooooooooooooooooXXXXXXooooooooooooooooo",
"oooooooooooooooooooooooooXXXXXXXoooooooooooooooo",
"oooooooooooooooooooooooooXXXXXXXXooooooooooooooo",
"oooooooooooooooooooooooooXXXXXXXXXoooooooooooooo",
"ooooooooooXXXXXXXXXXXXXXXXXXXXXXXXXooooooooooooo",
"ooooooooooXXXXXXXXXXXXXXXXXXXXXXXXXXoooooooooooo",
"ooooooooooXXXXXXXXXXXXXXXXXXXXXXXXXXXooooooooooo",
"ooooooooooXXXXXXXXXXXXXXXXXXXXXXXXXX ooooooooooo",
"ooooooooooXXXXXXXXXXXXXXXXXXXXXXXXX   oooooooooo",
"oooooooooooo             XXXXXXXXX     ooooooooo",
"oooooooooooo             XXXXXXXX     oooooooooo",
"oooooooooooo             XXXXXXX     ooooooooooo",
"oooooooooooooooooooooooooXXXXXX     oooooooooooo",
"oooooooooooooooooooooooooXXXXX     ooooooooooooo",
"oooooooooooooooooooooooooXXXX     oooooooooooooo",
"oooooooooooooooooooooooooXXX     ooooooooooooooo",
"oooooooooooooooooooooooooXX     oooooooooooooooo",
"oooooooooooooooooooooooooXo    ooooooooooooooooo",
"ooooooooooooooooooooooooooo   oooooooooooooooooo",
"ooooooooooooooooooooooooooo  ooooooooooooooooooo",
"ooooooooooooooooooooooooooo oooooooooooooooooooo",
"ooooooooooooooooooooooooooooooooooooooooooooo.oo",
"ooo....oooooooooooooooooooooooooooooooooooooo.oo",
"ooo.ooooooooooooooooooooooooooooooooooooooooo.oo",
"ooo.oooooo..ooo.o..o.ooooooo.oo...oo.o..oo....oo",
"ooo.ooooo.oo.oo..ooo.ooo.ooo.o.ooo.o..ooo.ooo.oo",
"ooo....o.oooo.o.ooooo.oo.ooo.ooooo.o.oooo.ooo.oo",
"ooo.oooo.oooo.o.ooooo.o.o.o.ooo....o.oooo.ooo.oo",
"ooo.oooo.oooo.o.ooooo.o.o.o.oo.ooo.o.oooo.ooo.oo",
"ooo.ooooo.oo.oo.oooooo.ooo.ooo.ooo.o.oooo.oo..oo",
"ooo.oooooo..ooo.oooooo.ooo.oooo...oo.ooooo..o.oo",
"oooooooooooooooooooooooooooooooooooooooooooooooo",
"oooooooooooooooooooooooooooooooooooooooooooooooo"
};
