/* XPM */
static char *noname[] = {
/* width height ncolors chars_per_pixel */
"32 18 6 1",
/* colors */
"  c #D0D0CD",
". c #D9D5D2",
"X c #D8E0C5",
"o c #ACC0AA",
"O c none",
"+ c #BBBBBB",
/* pixels */
"OOOOOOOOOOOOOOOO.OOOOOOOOOOOOOOO",
"OOOOOOOOOOOOOOOOXoOOOOOOOOOOOOOO",
"OOOOOOOOOOOOOOOOXooOOOOOOOOOOOOO",
"OOOOOOOOOOOOOOOOXoooOOOOOOOOOOOO",
"OOOOOOOOOOOOOOOOXooooOOOOOOOOOOO",
"OOOOOOOOOOOOOOOOXoooooOOOOOOOOOO",
"OOOOOOOXXXXXXXXXXooooooOOOOOOOOO",
"OOOOOOXoooooooooooooooooOOOOOOOO",
"OOOOOOXooooooooooooooooo OOOOOOO",
"OOOOOO oooooooooooooooo+.OOOOOOO",
"OOOOOOOO         ooooo+  .OOOOOO",
"OOOOOOOO         oooo+  .OOOOOOO",
"OOOOOOOOOOOOOOOOXooo+  .OOOOOOOO",
"OOOOOOOOOOOOOOOOXoo+  .OOOOOOOOO",
"OOOOOOOOOOOOOOOOXo+  .OOOOOOOOOO",
"OOOOOOOOOOOOOOOOX   .OOOOOOOOOOO",
"OOOOOOOOOOOOOOOOOO .OOOOOOOOOOOO",
"OOOOOOOOOOOOOOOOOO.OOOOOOOOOOOOO"
};
