/* XPM */
static char *noname[] = {
/* width height ncolors chars_per_pixel */
"32 18 12 1",
/* colors */
"  c #D6D6D5",
". c #BABAB9",
"X c #C4C5C5",
"o c #54555A",
"O c #D2D2D2",
"+ c #CDCECD",
"@ c #B7C5B6",
"# c #6D849B",
"$ c #6EC16D",
"% c #9AE298",
"& c none",
"* c #8B8793",
/* pixels */
"&&&&&&&&&&&&&&&&+O&&&&&&&&&&&&&&",
"&&&&&&&&&&&&&&&&%$&&&&&&&&&&&&&&",
"&&&&&&&&&&&&&&&&%$$O&&&&&&&&&&&&",
"&&&&&&&&&&&&&&&&%$$$&&&&&&&&&&&&",
"&&&&&&&&&&&&&&&&%$$$$O&&&&&&&&&&",
"&&&&&&&&&&&&&&&&%$$$$$&&&&&&&&&&",
"&&&&&&%$$$$$$$$$$$$$$$$O&&&&&&&&",
"&&&&&&%$$$$$$$$$$$$$$$$$&&&&&&&&",
"&&&&&&%$$$$$$$$$$$$$$$$$%&&&&&&&",
"&&&&&&%$oooooooo$$$$$$o#. &&&&&&",
"&&&&&&@$oooooooo$$$$$o*..X&&&&&&",
"&&&&&&&&........%$$$o#..X &&&&&&",
"&&&&&&&&XXXXXXXX%$$o*..X&&&&&&&&",
"&&&&&&&&&&&&&&&&%$o#..X &&&&&&&&",
"&&&&&&&&&&&&&&&&%o*..X&&&&&&&&&&",
"&&&&&&&&&&&&&&&&%$..X &&&&&&&&&&",
"&&&&&&&&&&&&&&&&&&.X&&&&&&&&&&&&",
"&&&&&&&&&&&&&&&&&&X &&&&&&&&&&&&"
};
