/* XPM */
static char *noname[] = {
/* width height ncolors chars_per_pixel */
"32 18 10 1",
/* colors */
"  c #D9D6D3",
". c #D5E0C4",
"X c #758F5F",
"o c #C8C5C1",
"O c #A3C8A3",
"+ c #45EC45",
"@ c #30B230",
"# c #307030",
"$ c none",
"% c #BBBBBB",
/* pixels */
"$$$$$$$$$$$$$$$$..$$$$$$$$$$$$$$",
"$$$$$$$$$$$$$$$$O+$$$$$$$$$$$$$$",
"$$$$$$$$$$$$$$$$O++.$$$$$$$$$$$$",
"$$$$$$$$$$$$$$$$O@@+$$$$$$$$$$$$",
"$$$$$$$$$$$$$$$$O@@@+.$$$$$$$$$$",
"$$$$$$$$$$$$$$$$O@@@@+$$$$$$$$$$",
"$$$$$$.OOOOOOOOOO@@@@@+.$$$$$$$$",
"$$$$$$O++++++++++@@@@@@+$$$$$$$$",
"$$$$$$O@@@@@@@@@@@@@@@@@O$$$$$$$",
"$$$$$$O##########@@@@@#X% $$$$$$",
"$$$$$$$$%%%%%%%%O@@@@#X%%o$$$$$$",
"$$$$$$$$%%%%%%%%O@@@#X%%o $$$$$$",
"$$$$$$$$$$$$$$$$O@@#X%%o$$$$$$$$",
"$$$$$$$$$$$$$$$$O@#X%%o $$$$$$$$",
"$$$$$$$$$$$$$$$$O@X%%o$$$$$$$$$$",
"$$$$$$$$$$$$$$$$OO%%o $$$$$$$$$$",
"$$$$$$$$$$$$$$$$$$%o$$$$$$$$$$$$",
"$$$$$$$$$$$$$$$$$$o $$$$$$$$$$$$"
};
