/* XPM */
static char *noname[] = {
/* width height ncolors chars_per_pixel */
"32 18 5 1",
/* colors */
"  c #D9D5D1",
". c #ACC0AA",
"X c none",
"o c #CBD7CB",
"O c #BBBBBB",
/* pixels */
"XXXXXXXXXXXXXXXX XXXXXXXXXXXXXXX",
"XXXXXXXXXXXXXXXXooXXXXXXXXXXXXXX",
"XXXXXXXXXXXXXXXXo.oXXXXXXXXXXXXX",
"XXXXXXXXXXXXXXXXo..oXXXXXXXXXXXX",
"XXXXXXXXXXXXXXXXo...oXXXXXXXXXXX",
"XXXXXXXXXXXXXXXXo....oXXXXXXXXXX",
"XXXXXXXoooooooooo.....oXXXXXXXXX",
"XXXXXXo................oXXXXXXXX",
"XXXXXXo.................oXXXXXXX",
"XXXXXXo................O XXXXXXX",
"XXXXXXXX        o.....O   XXXXXX",
"XXXXXXXX        o....O   XXXXXXX",
"XXXXXXXXXXXXXXXXo...O   XXXXXXXX",
"XXXXXXXXXXXXXXXXo..O   XXXXXXXXX",
"XXXXXXXXXXXXXXXXo.O   XXXXXXXXXX",
"XXXXXXXXXXXXXXXXoo   XXXXXXXXXXX",
"XXXXXXXXXXXXXXXXXX  XXXXXXXXXXXX",
"XXXXXXXXXXXXXXXXXX XXXXXXXXXXXXX"
};
