/* XPM */
static char *noname[] = {
/* width height ncolors chars_per_pixel */
"48 39 5 1",
/* colors */
"  c #BB9F93",
". c #D2D4D2",
"X c #ADCCAD",
"o c #B0B0AB",
"O c none",
/* pixels */
"OOOOOOOOOOOOOOOOOOOOOOOOOOOOOOOOOOOOOOOOOOOOOOOO",
"OOOOOOOOOOOOOOOOOOOOOOOOOXOOOOOOOOOOOOOOOOOOOOOO",
"OOOOOOOOOOOOOOOOOOOOOOOOOXXOOOOOOOOOOOOOOOOOOOOO",
"OOOOOOOOOOOOOOOOOOOOOOOOOXXXOOOOOOOOOOOOOOOOOOOO",
"OOOOOOOOOOOOOOOOOOOOOOOOOXXXXOOOOOOOOOOOOOOOOOOO",
"OOOOOOOOOOOOOOOOOOOOOOOOOXXXXXOOOOOOOOOOOOOOOOOO",
"OOOOOOOOOOOOOOOOOOOOOOOOOXXXXXXOOOOOOOOOOOOOOOOO",
"OOOOOOOOOOOOOOOOOOOOOOOOOXXXXXXXOOOOOOOOOOOOOOOO",
"OOOOOOOOOOOOOOOOOOOOOOOOOXXXXXXXXOOOOOOOOOOOOOOO",
"OOOOOOOOOOXXXXXXXXXXXXXXXXXXXXXXXXOOOOOOOOOOOOOO",
"OOOOOOOOOOXXXXXXXXXXXXXXXXXXXXXXXXXOOOOOOOOOOOOO",
"OOOOOOOOOOXXXXXXXXXXXXXXXXXXXXXXXXXXOOOOOOOOOOOO",
"OOOOOOOOOOXXXXXXXXXXXXXXXXXXXXXXXXXXXOOOOOOOOOOO",
"OOOOOOOOOOXXXXXXXXXXXXXXXXXXXXXXXXoo.OOOOOOOOOOO",
"OOOOOOOOOOXooooooooooooooXXXXXXXXoo...OOOOOOOOOO",
"OOOOOOOOOOoooooooooooooooXXXXXXXoo.....OOOOOOOOO",
"OOOOOOOOOOOO.............XXXXXXoo.....OOOOOOOOOO",
"OOOOOOOOOOOO.............XXXXXoo.....OOOOOOOOOOO",
"OOOOOOOOOOOO.............XXXXoo.....OOOOOOOOOOOO",
"OOOOOOOOOOOOOOOOOOOOOOOOOXXXoo.....OOOOOOOOOOOOO",
"OOOOOOOOOOOOOOOOOOOOOOOOOXXoo.....OOOOOOOOOOOOOO",
"OOOOOOOOOOOOOOOOOOOOOOOOOXoo.....OOOOOOOOOOOOOOO",
"OOOOOOOOOOOOOOOOOOOOOOOOOXo.....OOOOOOOOOOOOOOOO",
"OOOOOOOOOOOOOOOOOOOOOOOOOXO....OOOOOOOOOOOOOOOOO",
"OOOOOOOOOOOOOOOOOOOOOOOOOOO...OOOOOOOOOOOOOOOOOO",
"OOOOOOOOOOOOOOOOOOOOOOOOOOO..OOOOOOOOOOOOOOOOOOO",
"OOOOOOOOOOOOOOOOOOOOOOOOOOO.OOOOOOOOOOOOOOOOOOOO",
"OOOOOOOOOOOOOOOOOOOOOOOOOOOOOOOOOOOOOOOOOOOOO OO",
"OOO    OOOOOOOOOOOOOOOOOOOOOOOOOOOOOOOOOOOOOO OO",
"OOO OOOOOOOOOOOOOOOOOOOOOOOOOOOOOOOOOOOOOOOOO OO",
"OOO OOOOOO  OOO O  O OOOOOOO OO   OO O  OO    OO",
"OOO OOOOO OO OO  OOO OOO OOO O OOO O  OOO OOO OO",
"OOO    O OOOO O OOOOO OO OOO OOOOO O OOOO OOO OO",
"OOO OOOO OOOO O OOOOO O O O OOO    O OOOO OOO OO",
"OOO OOOO OOOO O OOOOO O O O OO OOO O OOOO OOO OO",
"OOO OOOOO OO OO OOOOOO OOO OOO OOO O OOOO OO  OO",
"OOO OOOOOO  OOO OOOOOO OOO OOOO   OO OOOOO  O OO",
"OOOOOOOOOOOOOOOOOOOOOOOOOOOOOOOOOOOOOOOOOOOOOOOO",
"OOOOOOOOOOOOOOOOOOOOOOOOOOOOOOOOOOOOOOOOOOOOOOOO"
};
