/* XPM */
static char *magick[] = {
/* columns rows colors chars-per-pixel */
"48 34 6 1",
"  c Gray0",
", c #bbbbbb",
". c none",
"+ c #008000",
"# c #00ff00",
"* c #00c000"
/* pixels */
"................................................",
".........................#......................",
"..........................#.....................",
".........................#.#....................",
"..........................*.#...................",
".........................#.*.#..................",
"..........................*.*.#.................",
".........................#.*.*.#................",
"..........................*.*.*.#...............",
".........................#.*.*.*.#..............",
"..........#.#.#.#.#.#.#.#.*.*.*.*.#.............",
"...........#.#.#.#.#.#.#.#.*.*.*.*.#............",
"..........#.*.*.*.*.*.*.*.*.*.*.*.*.#...........",
"...........+.+.+.+.+.+.+.+.*.*.*.*.+............",
"..........+.+.+.+.+.+.+.+.*.*.*.*.+.,...........",
".............,.,.,.,.,.,.#.*.*.*.+.,.,..........",
"............,.,.,.,.,.,.,.*.*.*.+.,.,...........",
".............,.,.,.,.,.,.#.*.*.+.,.,............",
"..........................*.*.+.,.,.............",
".........................#.*.+.,.,..............",
"..........................*.+.,.,...............",
".........................#.+.,.,................",
"..........................+.,.,.................",
".........................#.,.,..................",
"............................,...................",
"... . .....................,................. ..",
"................................................",
"... ....... ... . ............. . ..... ... . ..",
"............ ... ... ... ... . ... . ...........",
"... . ....... . ..... ................... ... ..",
"........ ....................... . . ...........",
"... ......... . ..... . . . ............. ... ..",
"............ ......... ... ... ... . ....... ...",
"... ....... ... ............... . ......... . ..",
};
