/* XPM */
static char *noname[] = {
/* width height ncolors chars_per_pixel */
"32 18 14 1",
/* colors */
"  c #717B7C",
". c #4B944C",
"X c #C0C0BF",
"o c #D5D5D3",
"O c #56EA55",
"+ c #C4C5C5",
"@ c #B6C5B7",
"# c #D2D2D2",
"$ c #A9D0A9",
"% c #5D8161",
"& c #DBDAD9",
"* c #30B030",
"= c none",
"- c #BBBBBB",
/* pixels */
"================##==============",
"================$O==============",
"================$*O#============",
"================$**O============",
"================$***O#==========",
"================$****O==========",
"======$OOOOOOOOOO*****O#========",
"======$O***************O========",
"======$O****************$=======",
"======$*........******. Xo======",
"======@%%%%%%%%%.****. --+======",
"========--------$***. --+&======",
"========++++++++$**. --+========",
"================$*. --+&========",
"================$* --+==========",
"================$$--+&==========",
"==================-X============",
"==================+&============"
};
