/* XPM */
static char *noname[] = {
/* width height ncolors chars_per_pixel */
"32 18 8 1",
/* colors */
"  c #D6D6D5",
". c #C5C5C9",
"X c #D2D2D2",
"o c #CBD0CB",
"O c #B0BEAD",
"+ c #B7C5B6",
"@ c #9AE298",
"# c none",
/* pixels */
"################  ##############",
"################o+##############",
"################o@+ ############",
"################oO@+############",
"################oOO@+ ##########",
"################oOOO@+##########",
"######o@@@@@@@@@@OOOO@+ ########",
"######o@OOOOOOOOOOOOOO@+########",
"######o@OOOOOOOOOOOOOOOOo#######",
"######oOOOOOOOOOOOOOOOO+X#######",
"######X++++++++++OOOOO.XX ######",
"########XXXXXXXXoOOOO+XX #######",
"########        oOOO.XX ########",
"################oOO+XX #########",
"################oO.XX ##########",
"################ooXX ###########",
"##################X ############",
"################## #############"
};
