/* XPM */
static char *noname[] = {
/* width height ncolors chars_per_pixel */
"32 18 10 1",
/* colors */
"  c #728769",
". c #66C166",
"X c #4AEB4A",
"o c #D2D4D2",
"O c #ADCCAD",
"+ c #CAC2BC",
"@ c #30B030",
"# c none",
"$ c #425E37",
"% c #BBBBBB",
/* pixels */
"################oo##############",
"################OX##############",
"################OXXo############",
"################O@@X############",
"################O@@@Xo##########",
"################O@@@@X##########",
"######OXXXXXXXXXX@@@@@Xo########",
"######OX@@@@@@@@@@@@@@@X########",
"######OX@@@@@@@@@@@@@@@@O#######",
"######O@@@@@@@@@@@@@@@$ %o######",
"######%         .@@@@$ %%+######",
"########%%%%%%%%O@@@$ %%+#######",
"########++++++++O@@$ %%+########",
"################O@$ %%+#########",
"################O@ %%+##########",
"################O.%%+###########",
"##################%+############",
"##################+#############"
};
