/* XPM */
static char *noname[] = {
/* width height ncolors chars_per_pixel */
"32 18 13 1",
/* colors */
"  c #3A4570",
". c #6A7981",
"X c #8B8D97",
"o c #D7D8D7",
"O c #7F80DD",
"+ c #9F929C",
"@ c #191015",
"# c #817C6A",
"$ c none",
"% c #565A79",
"& c #BBBBBB",
"* c #35343E",
"= c #C8C4C1",
/* pixels */
"$$=XXXXXXXXXXXXXXXXXXXXXXXXXX=$$",
"$$X ........................ +$$",
"$$X.@@%O@%%O@%**%%  OOOOO*%% Xo$",
"$$X%   %   %  %%    OOOOO%   #=$",
"$$X.OOOOOOOOOOOOOOOOOOOOOOOOO+=$",
"$$X.OOOOOOOOOOOOOOOOOOOOOOOO #=$",
"$$X.OOO*%O%O@%OOOOOOOOOOOOOO #=$",
"$$X.OOO.%O%O%%OOOOOOOOOOOOOO #=$",
"$$X.OOOOOOOOOOOOOOOOOOOOOOOO #=$",
"$$X.OOO OOOOOOOOOOOOOOOOOOOO #=$",
"$$X.OOO **OOOOOOOOOOOOOOOOOO #=$",
"$$X.OOOOOOOOOO.****.O *****. #=$",
"$$X.OOO.O.OOOO%%##%%O*OXOX%% #=$",
"$$X.OOO* *.* O%@**@%O*****@% #=$",
"$$X.OOOOOOOOOOOOOOOOOOOOOOOO #=$",
"$$X@************************@#=$",
"$$$$&&&&&&&&&&&&&&&&&&&&&&&&&&=$",
"$$$$&&&&&&&&&&&&&&&&&&&&&&&&&&=$"
};
