/* XPM */
static char *noname[] = {
/* width height ncolors chars_per_pixel */
"32 18 9 1",
/* colors */
"  c #D6D6D5",
". c #9392A3",
"X c #C5C5C9",
"o c #6C7888",
"O c #BABABA",
"+ c #7F7FD6",
"@ c #272333",
"# c none",
"$ c #5A575F",
/* pixels */
"##X..........................X##",
"##.$oooooooooooooooooooooooo$.##",
"##.o@@o+@oo+@o@@oo$$+++++@oo$. #",
"##.$$$$o$$$o$$oo$$$$+++++o$$$oX#",
"##.o+++++++++++++++++++++++++.X#",
"##.o++++++++++++++++++++++++$oX#",
"##.o+++@o+o+@o++++++++++++++$oX#",
"##.o+++oo+o+oo++++++++++++++$oX#",
"##.o++++++++++++++++++++++++$oX#",
"##.o+++$++++++++++++++++++++$oX#",
"##.o+++$@@++++++++++++++++++$oX#",
"##.o++++++++++o@@@@o+$@@@@@o$oX#",
"##.o+++o+o++++oooooo+@+.+ooo$oX#",
"##.o+++@$@o@$+o@@@@o+@@@@@@o$oX#",
"##.o++++++++++++++++++++++++$oX#",
"##.@@@@@@@@@@@@@@@@@@@@@@@@@@oX#",
"####OOOOOOOOOOOOOOOOOOOOOOOOOOX#",
"####OOOOOOOOOOOOOOOOOOOOOOOOOOX#"
};
