/* XPM */
static char *noname[] = {
/* width height ncolors chars_per_pixel */
"48 39 7 1",
/* colors */
"  c #000000",
". c #7F7F7F",
"X c #A0A0FF",
"o c #8080DF",
"O c none",
"+ c #6060BF",
"@ c #BBBBBB",
/* pixels */
"OOOOOOOOOOOOOOOOOOOOOOOOOOOOOOOOOOOOOOOOOOOOOOOO",
"OOOO                                        OOOO",
"OOOO XXXXXXXXXXXXXXXXXXXXXXXXXXXXXXXXXXXXXo OOOO",
"OOOO X o ooo ooooo oo o oooo ooooooooo ooo+ OOOO",
"OOOO X     o     o    o       oooooooo    + @@OO",
"OOOO ++++++++++++++++++++++++++++++++++++++ @@OO",
"OOOO XXXXXXXXXXXXXXXXXXXXXXXXXXXXXXXXXXXXXX+@@OO",
"OOOO Xoooooooooooooooooooooooooooooooooooo+ @@OO",
"OOOO Xoooooooooooooooooooooooooooooooooooo+ @@OO",
"OOOO Xoo+oo oooooo ooooooooooooooooooooooo+ @@OO",
"OOOO Xo+oXo   o  o   ooooooooooooooooooooo+ @@OO",
"OOOO XooXooooooooooooooooooooooooooooooooo+ @@OO",
"OOOO Xoooooooooooooooooooooooooooooooooooo+ @@OO",
"OOOO Xoooooooooooooooooooooooooooooooooooo+ @@OO",
"OOOO XooXoo oooooooooooooooooooooooooooooo+ @@OO",
"OOOO XoXo+o    ooooooooooooooooooooooooooo+ @@OO",
"OOOO Xoo+ooooooooooooooooooooooooooooooooo+ @@OO",
"OOOO Xoooooooooooooooo       ooo         o+ @@OO",
"OOOO Xoooooooooooooooo o...o ooo o.ooo.o o+ @@OO",
"OOOO XooXoo oo ooooooo o...o ooo o.....o o+ @@OO",
"OOOO XoXo+o  o o   ooo       ooo         o+ @@OO",
"OOOO Xoo+ooooooooooooooooooooooooooooooooo+ @@OO",
"OOOO o+++++++++++++++++++++++++++++++++++++ @@OO",
"OOOO                                        @@OO",
"OOOOOO@@@@@@@@@@@@@@@@@@@@@@@@@@@@@@@@@@@@@@@@OO",
"OOOOOO@@@@@@@@@@@@@@@@@@@@@@@@@@@@@@@@@@@@@@@@OO",
"OOOOOO@@@@@@@@@@@@@@@@@@@@@@@@@@@@@@@@@@@@@@@@OO",
"OOOOOOOOOOOOOOOOOOOOOOOOOOOOOOOOOOOOOOOOOOOOOOOO",
"OOOOOOOOOOOOOOOOO    OOO OOOO OO OOOOOOOOOOOOOOO",
"OOOOOOOOOOOOOOOO OOOO OO OOOO OO OOOOOOOOOOOOOOO",
"OOOOOOOOOOOOOOO OOOOOOOO OOOO OO OOOOOOOOOOOOOOO",
"OOOOOOOOOOOOOOO OOOOOOOO OOOO OO OOOOOOOOOOOOOOO",
"OOOOOOOOOOOOOOO OOOOOOOO OOOO OO OOOOOOOOOOOOOOO",
"OOOOOOOOOOOOOOO OOOOO OO OOOO OO OOOOOOOOOOOOOOO",
"OOOOOOOOOOOOOOO OOOOO OO OOOO OO OOOOOOOOOOOOOOO",
"OOOOOOOOOOOOOOOO OOOO OO OOOO OO OOOOOOOOOOOOOOO",
"OOOOOOOOOOOOOOOOO     OOO    OOO OOOOOOOOOOOOOOO",
"OOOOOOOOOOOOOOOOOOOOOOOOOOOOOOOOOOOOOOOOOOOOOOOO",
"OOOOOOOOOOOOOOOOOOOOOOOOOOOOOOOOOOOOOOOOOOOOOOOO"
};
