/* XPM */
static char *noname[] = {
/* width height ncolors chars_per_pixel */
"32 18 13 1",
/* colors */
"  c #9B97A7",
". c #1E1318",
"X c #C5C5C9",
"o c #D7D8D7",
"O c #37364A",
"+ c #817C6A",
"@ c #3B466E",
"# c #8080DF",
"$ c #5A5D81",
"% c none",
"& c #8E8F96",
"* c #697982",
"= c #BBBBBB",
/* pixels */
"%%X&&&&&&&&&&&&&&&&&&&&&&&&&&X%%",
"%%&@************************@&%%",
"%%&*..$#.$$#.$OO$$@@#####O$$@&o%",
"%%&$@@@$@@@$@@$$@@@@#####$@@@+X%",
"%%&*######################### X%",
"%%&*########################@+X%",
"%%&*###O$#$#.$##############@+X%",
"%%&*###$$#$#$$##############@+X%",
"%%&*########################@+X%",
"%%&*###@####################@+X%",
"%%&*###@OO##################@+X%",
"%%&*##########$OOOO$#@OOOOO$@+X%",
"%%&*###$#$####$$++$$#O#&#&$$@+X%",
"%%&*###O@O$O@#$....$#OO....$@+X%",
"%%&$########################@+X%",
"%%&.OOOOOOOOOOOOOOOOOOOOOOOO.+X%",
"%%%%==========================X%",
"%%%%==========================X%"
};
