/* XPM */
static char *noname[] = {
/* width height ncolors chars_per_pixel */
"32 18 10 1",
/* colors */
"  c #D6D6D5",
". c #C6CCDF",
"X c #B7B7CC",
"o c #D2D2D2",
"O c #C4C5C6",
"+ c #C0BECC",
"@ c #B5B3A6",
"# c none",
"$ c #ADBAB1",
"% c #BBBBBB",
/* pixels */
"## OOOOOOOOOOOOOOOOOOOOOOOOOO ##",
"##O$XXXXXXXXXXXXXXXXXXXXXXXX$O##",
"##OX@@X+@XX+@X$$XX$$.....$XXXO##",
"##OXXXXXXXXXXXXXXXXXXXXXXXXXX% #",
"##OX........................+O #",
"##OX........................X% #",
"##OX.X.$X+X+@X..............X% #",
"##OX...XX+X+XX..............X% #",
"##OX........................X% #",
"##OX...X....................X% #",
"##OX..+X$$..................X% #",
"##OX.+........X$$$$X.X$$$$$XX% #",
"##OX...X.X....XX%%XX.$++++XXX% #",
"##OX..+$%$X$%.X@@@@X.$@@@@@XX% #",
"##OX+X++++++++++++++++++++++X% #",
"##O@@@@@@@@@@@@@@@@@@@@@@@@@@% #",
"####oooooooooooooooooooooooooo #",
"####oooooooooooooooooooooooooo #"
};
