/* XPM */
static char *noname[] = {
/* width height ncolors chars_per_pixel */
"32 18 10 1",
/* colors */
"  c #D6D6D5",
". c #595967",
"X c #B7B7CC",
"o c #80938F",
"O c #C4C5C6",
"+ c #787CA3",
"@ c #2F2229",
"# c #3B4570",
"$ c none",
"% c #BBBBBB",
/* pixels */
"$$OooooooooooooooooooooooooooO$$",
"$$o#++++++++++++++++++++++++#o$$",
"$$o+@@.+@..+@.@@..##+++++@..#o $",
"$$o####+###+########+++++####oO$",
"$$o+XXXXXXXXXXXXXXXXXXXXXXXX+oO$",
"$$o+++++++++++++++++++++++++#oO$",
"$$o++++@.+.+@.++++++++++++++#oO$",
"$$o++X++.+.+..++++++++++++++#oO$",
"$$o+++++++++++++++++++++++++#oO$",
"$$o++X+#++++++++++++++++++++#oO$",
"$$o++++#@@++++++++++++++++++#oO$",
"$$o++++++++++++@@@@++#@@@@@+#oO$",
"$$o+++++++++++..oo..+@++++..#oO$",
"$$o++X+@#@+@#+.@@@@.+@@@@@@.#oO$",
"$$o+++++++++++++++++++++++++#oO$",
"$$o@@@@@@@@@@@@@@@@@@@@@@@@@@oO$",
"$$$$%%%%%%%%%%%%%%%%%%%%%%%%%%O$",
"$$$$%%%%%%%%%%%%%%%%%%%%%%%%%%O$"
};
