/* XPM */
static char *noname[] = {
/* width height ncolors chars_per_pixel */
"32 18 13 1",
/* colors */
"  c #C0C0BF",
". c #D5D5D3",
"X c #C4C5C5",
"o c #D7D8D7",
"O c #D2D2D2",
"+ c #A5A5A9",
"@ c #CACFE3",
"# c #DBDAD9",
"$ c #ADB3B2",
"% c none",
"& c #C0C0DB",
"* c #C9C7C6",
"= c #B7B7CB",
/* pixels */
"%%.XXXXXXXXXXXXXXXXXXXXXXXXXX.%%",
"%%X$========================$*%%",
"%%X=++=&+==&+=++==$$&&&&&+==$X#%",
"%%X=$$$=$$$=$$==$$$$&&&&&=$$$ o%",
"%%X=@@@@@@@@@@@@@@@@@@@@@@@@&*o%",
"%%X=&&&&&&&&&&&&&&&&&&&&&&&&$ o%",
"%%X=&&&+=&=&+=&&&&&&&&&&&&&&$ o%",
"%%X=&&&==&=&==&&&&&&&&&&&&&&$ o%",
"%%X=&&&&&&&&&&&&&&&&&&&&&&&&$ o%",
"%%X=&&&$&&&&&&&&&&&&&&&&&&&&$ o%",
"%%X=&&&$++&&&&&&&&&&&&&&&&&&$ o%",
"%%X=&&&&&&&&&&=++++=&$+++++=$ o%",
"%%X=&&&=&=&&&&==  ==&+&X&X==$ o%",
"%%X=&&&+$+=+$&=++++=&++++++=$ o%",
"%%X=&&&&&&&&&&&&&&&&&&&&&&&&$ o%",
"%%*++++++++++++++++++++++++++ o%",
"%%%%OOOOOOOOOOOOOOOOOOOOOOOOOOo%",
"%%%%OOOOOOOOOOOOOOOOOOOOOOOOOOo%"
};
