/* XPM */
static char *noname[] = {
/* width height ncolors chars_per_pixel */
"32 18 10 1",
/* colors */
"  c #D6D6D5",
". c #C0C0DC",
"X c #B9B9CE",
"o c #C5C5C9",
"O c #D2D2D2",
"+ c #B0BEAD",
"@ c #A8A198",
"# c #BABABA",
"$ c #C0BDBC",
"% c none",
/* pixels */
"%% oooooooooooooooooooooooooo %%",
"%%o#XXXXXXXXXXXXXXXXXXXXXXXX#o%%",
"%%oX@@X.@XX.@X+@XX##.....@XX#o%%",
"%%oX###X###X##XX####XXXXXX###$ %",
"%%oX.........................o %",
"%%oX........................#$ %",
"%%oX...@X.X.@X..............#$ %",
"%%oX...XX.X.XX..............#$ %",
"%%oX........................#$ %",
"%%oX...#....................#$ %",
"%%oX...#++..................#$ %",
"%%oX..........X@@@@X.#@@@@@X#$ %",
"%%oX...X.X....XX$$XX.@.o.oXX#$ %",
"%%oX...+#+X@#.X@@@@X.@@@@@@X#$ %",
"%%oX.X......................#$ %",
"%%o@@@@@@@@@@@@@@@@@@@@@@@@@@$ %",
"%%%%OOOOOOOOOOOOOOOOOOOOOOOOOO %",
"%%%%OOOOOOOOOOOOOOOOOOOOOOOOOO %"
};
