/* XPM */
static char *magick[] = {
/* columns rows colors chars-per-pixel */
"34 36 5 1",
"* c Gray0",
". c none",
", c #999999",
"y c #ffeea0",
"Y c #ffffff",
/* pixels */
"..................................",
"..................................",
"..................................",
"..................................",
"..................................",
"..................................",
"..................................",
"..................................",
"..................................",
"..................................",
"......**********..................",
".....*yyyyyyyyyy*.................",
"....*yyyyyyyyyyyy*................",
"...*yyyyyyyyyyyyyy*...............",
"..*YYYYYYYYYYYYYYYY**************.",
"..*YYYYYYYYYYYYYYYYyyyyyyyyyyyyy*,",
"..*yyyyyyyyyyyyyyyyyyyyyyyyyyyyy*,",
"..*yyyyyyyyyyy*****yyyyyyyyyyyyy*,",
"..*yyyyyyyyy****yy*yyyyyyyyyyyyy*,",
"..*yyyyyyyy*****yy*yyyyyyyyyyyyy*,",
"..*yyyyyyy****yy**yyyyyyyyyyyyyy*,",
"..*yyyyyy*****yy*yyyyyyyyyyyyyyy*,",
"..*yyyyyy***yy**yyyyyyyyyyyyyyyy*,",
"..*yyyyy****yy***yyyyyyyyyyyyyyy*,",
"..*yyyyy**yy******yyyyyyyyyyyyyy*,",
"..*yyyyy**yy*y*****yyyyyyyyyyyyy*,",
"..*yyyyy*y**yyy*****yyyyyyyyyyyy*,",
"..*yyyyy***yyyyy*****yyyyyyyyyyy*,",
"..*yyyyyyyyyyyyyy******yyyyyyyyy*,",
"..*yyyyyyyyyyyyyyy***yy*yyyyyyyy*,",
"..*yyyyyyyyyyyyyyyy*yyy*yyyyyyyy*,",
"..*yyyyyyyyyyyyyyyy*yyy*yyyyyyyy*,",
"..*yyyyyyyyyyyyyyyyy***yyyyyyyyy*,",
"..*yyyyyyyyyyyyyyyyyyyyyyyyyyyyy*,",
"..*******************************,",
"...,,,,,,,,,,,,,,,,,,,,,,,,,,,,,,,"
};
