/* XPM */
static char *noname[] = {
/* width height ncolors chars_per_pixel */
"17 18 15 1",
/* colors */
"  c #30EF30",
". c #CCECCC",
"X c #CCDCCC",
"o c #CCCCCC",
"O c #98E898",
"+ c #64D464",
"@ c #649464",
"# c #30D030",
"$ c #30C030",
"% c #30B030",
"& c #30A030",
"* c #308030",
"= c none",
"- c #307030",
"; c #98F798",
/* pixels */
"=================",
"=================",
"======;  %o======",
"======;#%-o======",
"======O*--o======",
"=================",
"======;  %o======",
"======;#%-o======",
"======O*--o======",
"=================",
"======;$%-o======",
"==+#   #%%   $.==",
"===@&%%%%%%%*X===",
"====@&%%%%%*X====",
"=====@&%%%*X=====",
"======@&%*X======",
"=======@*X=======",
"========X========"
};
