/* XPM */
static char *noname[] = {
/* width height ncolors chars_per_pixel */
"17 18 11 1",
/* colors */
"  c #495A2D",
". c #CCCBC4",
"X c #30C730",
"o c #56EA55",
"O c #D2D2D2",
"+ c #B5E0B5",
"@ c #4A8F4B",
"# c #30B030",
"$ c none",
"% c #9BC49F",
"& c #CCF7BB",
/* pixels */
"$$$$$$$$$$$$$$$$$",
"$$$$$$$$$$$$$$$$$",
"$$$$$$+XX#.$$$$$$",
"$$$$$$+X# .$$$$$$",
"$$$$$$%@  .$$$$$$",
"$$$$$$$$$$$$$$$$$",
"$$$$$$+XX#.$$$$$$",
"$$$$$$+X# .$$$$$$",
"$$$$$$%@  .$$$$$$",
"$$$$$$$$$$$$$$$$$",
"$$$$$$+X# .$$$$$$",
"$$oXXXXX##XXXX&$$",
"$$$@########@O$$$",
"$$$$@######@O$$$$",
"$$$$$@####@O$$$$$",
"$$$$$$@##@O$$$$$$",
"$$$$$$$@@O$$$$$$$",
"$$$$$$$$O$$$$$$$$"
};
