/* XPM */
static char * tv_includeex_xpm[] = {
"24 21 24 1",
" 	c #FFFFFFFFFFFF",
".	c #FFFFFFFF0000",
"X	c #FFFFFFFFE5E5",
"o	c #FFFFFFFFD1D1",
"O	c #FFFFFFFFC1C1",
"+	c #FFFFFFFFB7B7",
"@	c #FFFFFFFFB2B2",
"#	c #FFFFFFFFCCCC",
"$	c #FFFFFFFF9E9E",
"%	c #FFFFFFFF9393",
"&	c #FFFFFFFF8E8E",
"*	c #FFFFFFFFEFEF",
"=	c #FFFFFFFF9999",
"-	c #FFFFFFFF7F7F",
";	c #FFFFFFFF7070",
":	c #FFFFFFFF6B6B",
">	c #FFFFFFFF6666",
",	c #FFFFFFFF4C4C",
"<	c #FFFFFFFF4747",
"1	c #FFFFFFFFDBDB",
"2	c #FFFFFFFF3333",
"3	c #FFFFFFFF2323",
"4	c #FFFFFFFFD6D6",
"5	c #000000000000",
"                        ",
"                        ",
"                        ",
"   ...............      ",
"   .  XoO+@+OoX  .      ",
"   . X#@$%&%$@#X .      ",
"   .*o@=-;:;-=@o*.      ",
"   .XO$->,<,>-$OX.      ",
"   .1+%;,232,;%+1.      ",
"   .4@&:<3.3<:&@4.      ",
"   .1+%;,232,;%+1.      ",
"   ...$->,<,>-$OX.      ",
" 5555.@=-;:;-=@o*.      ",
"  555.#@$%&%$@#X .      ",
" 5555.XoO+@+OoX  .      ",
"555 5.............      ",
"555 5                   ",
"55                      ",
"5                       ",
"                        ",
"                        "};
