/* XPM */
static char *ftv2doc[] = {
/* width height num_colors chars_per_pixel */
"    24    22        8            1",
/* colors */
". c #000000",
"# c #008000",
"a c #ffff00",
"b c #000080",
"c c #0000ff",
"d c #008080",
"e c #808080",
"f c none",
/* pixels */
"ffffffffffffffffffffffff",
"ffffffffffffffffffffffff",
"ffffffffffffffffffffffff",
"eeeeeeeeeeffffffffffffff",
"efffafffafefffffffffffff",
"efafffaffffeffffffffffff",
"efffafffa....fffffffffff",
"efaffdddffaf.fffffffffff",
"efffded#dfff.fffffffffff",
"efadfdcd#eaf.fffffffffff",
"effdff#bcbff.fffffffffff",
"efadfe#dcbaf.fffffffffff",
"effecc#cbbff.fffffffffff",
"efafbcbb.faf.fffffffffff",
"effff...ffff.fffffffffff",
"efafffafffaf.fffffffffff",
"efffafffafff.fffffffffff",
"efffffffffff.fffffffffff",
".............fffffffffff",
"ffffffffffffffffffffffff",
"ffffffffffffffffffffffff",
"ffffffffffffffffffffffff"
};
