/* XPM */
static char *noname[] = {
/* width height ncolors chars_per_pixel */
"22 18 8 1",
/* colors */
"  c #E7E2CA",
". c #C9AAA6",
"X c #C5504C",
"o c #9D2D2B",
"O c #B69F95",
"+ c #D4CEC9",
"@ c none",
"# c #D9B5B1",
/* pixels */
"@@@@@@@@@@@@@@@@@@@@@@",
"@@@@@@@@@@@@@@@@@@@@@@",
"@@@@@@@@@@@@@@@@@@@@@@",
"@@@@@@@@@@@@@@@@@@@@@@",
"@@@@@@@@@@@@@@@@@@@@@@",
"@@@@@@@@@@@@@@@@@@@@@@",
"@@@@@@@@@@@@@@@@@@@@@@",
"@@@@@@@@@ XXXXXXXXXX@@",
"@@@@@@@@ XXXXXXXXXXo@@",
"@@@@@@@@.ooooooooooo@@",
"@@@@@@@@.oXXXXXXXXoo@@",
"@ ######XoXXXXXXXXoX##",
" XXXXXXXoXXXXXXXXoXXXo",
"XXXXXXXXoooooooooXXXoo",
"XooooooooXoooooooooXoo",
"XoXXXXXXXXooXXXXXXXXoo",
"XoXXXXXXXXooXXXXXXXXo+",
"ooooooooooooooooooooO@"
};
