/* XPM */
static char *noname[] = {
/* width height ncolors chars_per_pixel */
"22 18 11 1",
/* colors */
"  c #A23231",
". c #E7E2CA",
"X c #922824",
"o c #DFB6B4",
"O c #DA5C56",
"+ c #AC5453",
"@ c #DDD9CE",
"# c #D2A89F",
"$ c #AE3F3D",
"% c none",
"& c #B1937D",
/* pixels */
"%%%%%%%%%%%%%%%%%%%%%%",
"%%%%%%%%%%%%%%%%%%%%%%",
"%%%%%%%%%%%%%%%%%%%%%%",
"%%%%%%%%%%%%%%%%%%%%%%",
"%%%%%%%%%%%%%%%%%%%%%%",
"%%%%%%%%%%%%%%%%%%%%%%",
"%%%%%%%%%%%%%%%%%%%%%%",
"%%%%%%%%%.OOOOOOOOOO%%",
"%%%%%%%%.OOOOOOOOOOX%%",
"%%%%%%%%#        $XX%%",
"%%%%%%%%# $$$$$$$OXX%%",
"%.oooooo+$$$$$$$+$X$oo",
".OOOOOOO$OOOOOOOO OOO ",
"OOOOOOOO  X      $OO X",
"$X       $ X       $XX",
"$ $$$$$$$O  $$$$$$$OXX",
"$$OOOOOOOO $OOOOOOOOX@",
"          X         &%"
};
