/* XPM */
static char *noname[] = {
/* width height ncolors chars_per_pixel */
"17 18 23 1",
/* colors */
"  c #AFAFB5",
". c #FFEEA0",
"X c #3A4570",
"o c #6A7981",
"O c #C0C0DC",
"+ c #8B8D97",
"@ c #B9B9CE",
"# c #C6CBE1",
"$ c #ACA7AD",
"% c #7F80DD",
"& c #CFB0AA",
"* c #817C6A",
"= c #ADA195",
"- c #B1B0A9",
"; c #7F7750",
": c none",
"> c #DDDDDD",
", c #4D4D49",
"< c #565A79",
"1 c #BEB489",
"2 c #D9CCBE",
"3 c #35343E",
"4 c #C8C4C1",
/* pixels */
":::::::::::::::::",
"::::*;;;;;;34::::",
"::::*......;14:::",
"::::*..11..;.14::",
"::::*-$$@-.;..14:",
":::>+@oX -.;;;;34",
":: $%XXX@.......,",
":%$<XXXo$.......,",
"@X XXXX@=.......,",
"+X XXX<%$.......,",
"oX XXX@XO-......,",
"oX XX<%X< &.....,",
"oX XX@XXXX++$2..,",
"oX Xo$2.&+XXo$..,",
"oX%<@-....=X< ..,",
"%XX <......++2..,",
":  #*..........1,",
"::::4,,,,,,,,,,,*"
};
