/* XPM */
static char *noname[] = {
/* width height ncolors chars_per_pixel */
"17 13 10 1",
/* colors */
"  c #FFEEA0",
". c #737373",
"X c #6F6F6F",
"o c #4D4D4D",
"O c #807750",
"+ c #403C28",
"@ c #A6A6A6",
"# c #5E5E5E",
"$ c #C0B378",
"% c #DDDDDD",
/* pixels */
"%%@OOOOO@%%%%%%%%",
"%@$     $@%%%%%%%",
"%O       $OOOOOO#",
"%O              o",
"%O              o",
"%O              o",
"+OOOOOOOOOOOOOO o",
"X             O o",
"@$            $$o",
"%O             Oo",
"%X             Oo",
"%@$            $o",
"%%#ooooooooooooo."
};
