/* XPM */
static char *noname[] = {
/* width height ncolors chars_per_pixel */
"17 18 13 1",
/* colors */
"  c #AFAFB5",
". c #CCCBC4",
"X c #FFEEA0",
"o c #BFBEC4",
"O c #6A7981",
"+ c #ACA7AD",
"@ c #817C6A",
"# c #7F7750",
"$ c none",
"% c #4D4D49",
"& c #565A79",
"* c #BEB489",
"= c #35343E",
/* pixels */
"$$$$$$$$$$$$$$$$$",
"$$$o@#@o$$$$$$$$$",
"$$o*XXX*o$$$$$$$$",
"$$#XXXXX*o$$$o&$$",
"$$#XXXXXX*@@@*%$$",
"$$###=*=##*XXX%$$",
"$$#XXXXXXXXXXX%$$",
"$$##*##*#**XXX%$$",
"$$#XXXXXXXXXXX%$$",
"$$###**##*#*XX%$$",
"$$#XXXXXXXXXXX%$$",
"$$###**=*##*XX%$$",
"$$#XXXXXXXXXXX%$$",
"$$#X*#*XXXXXXX%$$",
"$$#@o$o@XXXXXX%$$",
"$$=$$$$$@XXXXX%$$",
"$$$$$$$$$@*X*# $$",
"$$$$$$$$$$+%O.$$$"
};
