/* XPM */
static char *ftv2folderopen[] = {
/* width height num_colors chars_per_pixel */
"    24    22        4            1",
/* colors */
". c #000000",
"# c #ffff00",
"a c #808080",
"b c none",
/* pixels */
"bbbbbbbbbbbbbbbbbbbbbbbb",
"bbbbbbbbbbbbbbbbbbbbbbbb",
"bbbbbbbbbbbbbbbbbbbbbbbb",
"bbbbbbbbbbbbbbbbbbbbbbbb",
"bbbaaaaabbbbbbbbbbbbbbbb",
"bbabbbbbabbbbbbbbbbbbbbb",
"babb#b#bbaaaaaabbbbbbbbb",
"bab#b#b#bbbbbba.bbbbbbbb",
"babb#b#b#b#b#ba.bbbbbbbb",
"aaaaaaaaaaaaa#a.bbbbbbbb",
"abbbbbbbbbba.ba.bbbbbbbb",
"abb#b#b#b#b#.aa.bbbbbbbb",
"babb#b#b#b#ba.a.bbbbbbbb",
"bab#b#b#b#b#b.a.bbbbbbbb",
"bbab#b#b#b#b#a..bbbbbbbb",
"bbaaaaaaaaaaaa..bbbbbbbb",
"bbb.............bbbbbbbb",
"bbbbbbbbbbbbbbbbbbbbbbbb",
"bbbbbbbbbbbbbbbbbbbbbbbb",
"bbbbbbbbbbbbbbbbbbbbbbbb",
"bbbbbbbbbbbbbbbbbbbbbbbb",
"bbbbbbbbbbbbbbbbbbbbbbbb"
};
