/* XPM */
static char *noname[] = {
/* width height ncolors chars_per_pixel */
"17 18 9 1",
/* colors */
"  c #BEB48C",
". c #7F7754",
"X c #FFEEA0",
"o c #BFBEC4",
"O c #B2B0A9",
"+ c #817C6A",
"@ c #504D43",
"# c none",
"$ c #5A5D81",
/* pixels */
"#################",
"#################",
"#################",
"#################",
"#################",
"##o.....o########",
"#o XXXXX o#######",
"#+#######O......$",
"#.XXXXXXXXXXXXXX@",
"#.XXXXXXXXXXXXXX@",
"#.XXXXXXXXXXXXXX@",
"#.XXXXXXXXXXXXXX@",
"#.XXXXXXXXXXXXXX@",
"#.XXXXXXXXXXXXXX@",
"#.XXXXXXXXXXXXXX@",
"#.XXXXXXXXXXXXXX@",
"#.XXXXXXXXXXXXXX@",
"#$@@@@@@@@@@@@@@+"
};
