/* XPM */
static char *noname[] = {
/* width height ncolors chars_per_pixel */
"17 18 21 1",
/* colors */
"  c #BEB48C",
". c #AFAFB5",
"X c #7F7754",
"o c #FFEEA0",
"O c #AFA3A4",
"+ c #D0B0AA",
"@ c #C0C0DC",
"# c #9B97A7",
"$ c #B9B9CE",
"% c #C5C5C9",
"& c #C6CBE1",
"* c #DFB6B4",
"= c #817C6A",
"- c #3B466E",
"; c #504D43",
": c none",
"> c #8080DF",
", c #5A5D81",
"< c #DDDDDD",
"1 c #8E8F96",
"2 c #697982",
/* pixels */
":::::::::::::::::",
"::::=XXXXXX;%::::",
"::::=ooooooX %:::",
"::::=oo  ooXo %::",
"::::= ##$OoXoo %:",
":::<1$,-.OoXXXX;%",
"::.##---$ooooooo;",
":>#,---2#ooooooo;",
"$-.----$Oooooooo;",
"2-.---,##ooooooo;",
"2-.---$-@ oooooo;",
"2-.--,#-,.+ooooo;",
",-.--$---,21#ooo;",
",-.-2#oo+1--2.oo;",
"2-#,$ ooooO-,.oo;",
"#--.,oooooo1#*oo;",
":#.&=oooooooooo ;",
"::::%;;;;;;;;;;;="
};
