/* XPM */
static char *noname[] = {
/* width height ncolors chars_per_pixel */
"17 18 11 1",
/* colors */
"  c #FFEEA0",
". c #737373",
"X c #4D4D4D",
"o c #807750",
"O c #A6A6A6",
"+ c #C0BBA8",
"@ c #808080",
"# c #5E5E5E",
"$ c #FFFFFF",
"% c #C0B378",
"& c none",
/* pixels */
"&&&&&&&&&&&&&&&&&",
"&&&&&&&&&&&&&&&&&",
"&&&&&&&&&&&&&&&&&",
"&&&&&&&&&&&&&&&&&",
"&&&&&&&&&&&&&&&&&",
"&&OoooooO&&&&&&&&",
"&O%     %O&&&&&&&",
"&@$$$$$$$+oooooo#",
"&o              X",
"&o              X",
"&o              X",
"&o              X",
"&o              X",
"&o              X",
"&o              X",
"&o              X",
"&o              X",
"&#XXXXXXXXXXXXXX."
};
