/* XPM */
static char *noname[] = {
/* width height ncolors chars_per_pixel */
"17 18 23 1",
/* colors */
"  c #717B7C",
". c #FFEEA0",
"X c #49484A",
"o c #30438E",
"O c #B4B3A9",
"+ c #DCC3AF",
"@ c #C4C5C5",
"# c #4E5286",
"$ c #807750",
"% c #969BAB",
"& c #A5A5A9",
"* c #A89781",
"= c #39343B",
"- c #585B6D",
"; c #CACFE3",
": c #C0B797",
"> c #ADABAC",
", c #ADB3B2",
"< c none",
"1 c #9191AA",
"2 c #DDDDDD",
"3 c #C0C0DB",
"4 c #B7B7CB",
/* pixels */
"<<<<<<<<<<<<<<<<<",
"<<<< $$$$$$=@<<<<",
"<<<< ......$*@<<<",
"<<<< ..::..$.*@<<",
"<<<< :%%4>.$..*@<",
"<<<214#o%O.$$$$=@",
"<<4%1ooo4+......X",
"<1%#ooo1&.......X",
"4o4oooo4&.......X",
"1o4ooo#1%.......X",
" o4ooo4o3:......X",
"#o4oo#1o#%:.....X",
"#o4oo4oooo11&+..X",
"#o4o#%+.+1oo1&..X",
" o1#4:....Oo#,..X",
"%oo%#......11+..X",
"<%4; ..........+X",
"<<<<@----------- "
};
