/* XPM */
static char * tv_include_xpm[] = {
"24 21 24 1",
" 	c #FFFFFFFFFFFF",
".	c #FFFFFFFF0000",
"X	c #000000000000",
"o	c #FFFFFFFFD1D1",
"O	c #FFFFFFFFC1C1",
"+	c #FFFFFFFFB7B7",
"@	c #FFFFFFFFB2B2",
"#	c #FFFFFFFFE5E5",
"$	c #FFFFFFFFCCCC",
"%	c #FFFFFFFF9E9E",
"&	c #FFFFFFFF9393",
"*	c #FFFFFFFF8E8E",
"=	c #FFFFFFFFEFEF",
"-	c #FFFFFFFF9999",
";	c #FFFFFFFF7F7F",
":	c #FFFFFFFF7070",
">	c #FFFFFFFF6B6B",
",	c #FFFFFFFF4747",
"<	c #FFFFFFFFDBDB",
"1	c #FFFFFFFF4C4C",
"2	c #FFFFFFFF3333",
"3	c #FFFFFFFFD6D6",
"4	c #FFFFFFFF2323",
"5	c #FFFFFFFF6666",
"                        ",
"                        ",
"                        ",
"   ...............      ",
"   .  XoO+@+Oo#  .      ",
"   . #$@%&*&%@$# .      ",
"   .=o@-;:>:;-@o=.      ",
"   .#XX;XX,XX;%O#.      ",
"   .<+X:1XX2X:&+<.      ",
"   .3@X>,X.4X>*@3.      ",
"   .<+X:1X42X:&+<.      ",
"   ...X;5X,1X;%O#.      ",
" XXXXXXXXXX:XX@o=.      ",
"  XXX.$@%&*&%@$# .      ",
" XXXX.#oO+@+Oo#  .      ",
"XXX X.............      ",
"XXX X                   ",
"XX                      ",
"X                       ",
"                        ",
"                        "};
