/* XPM */
static char *noname[] = {
/* width height ncolors chars_per_pixel */
"17 18 19 1",
/* colors */
"  c #495A2D",
". c #FFEEA0",
"X c #30C730",
"o c #BFBEC4",
"O c #6A7981",
"+ c #56EA55",
"@ c #B5E0B5",
"# c #9F929C",
"$ c #CFB0AA",
"% c #4A8F4B",
"& c #817C6A",
"* c #B1B0A9",
"= c #30B030",
"- c #7F7750",
"; c none",
": c #4D4D49",
"> c #CCF7BB",
", c #BEB489",
"< c #35343E",
/* pixels */
";;;;;;;;;;;;;;;;;",
";;;;&------<o;;;;",
";;;;&......-,o;;;",
";;;;&......-.,o;;",
";;;;&......-..,o;",
";;;;&......----<o",
";;;;&...........:",
";;;;&...........:",
";;;;&..>........:",
";;;;&..X>.......:",
";@@@%++XX>......:",
";XXXXXXX=X>.....:",
";X========%.....:",
";=     ==%*.....:",
";;##:$$X%*......:",
";;;;&..%*.......:",
";;;;&...........:",
";;;;o:::::::::::O"
};
