/* XPM */
static char *ftv2link[] = {
/* width height num_colors chars_per_pixel */
"    24    22        8            1",
/* colors */
". c #000000",
"# c #008000",
"a c #ffff00",
"b c #000080",
"c c #0000ff",
"d c #008080",
"e c #808080",
"f c none",
/* pixels */
"ffffffffffffffffffffffff",
"ffffffffffffffffffffffff",
"ffffffffffffffffffffffff",
"feeeeeeeeeefffffffffffff",
"fefffafffafeffffffffffff",
"fefafffaffffefffffffffff",
"fefffafffa....ffffffffff",
"fefaffdddffaf.ffffffffff",
"fefffded#dfff.ffffffffff",
"fefadfdcd#eaf.ffffffffff",
"feffdff#bcbff.ffffffffff",
"fefadfe#dcbaf.ffffffffff",
"eeeeee.#cbbff.ffffffffff",
"efffff.bb.faf.ffffffffff",
"eff..f...ffff.ffffffffff",
"ef.e.f.afffaf.ffffffffff",
"ef.fff.ffafff.ffffffffff",
"efffff.ffffff.ffffffffff",
"..............ffffffffff",
"ffffffffffffffffffffffff",
"ffffffffffffffffffffffff",
"ffffffffffffffffffffffff"
};
