/* XPM */
static char *noname[] = {
/* width height ncolors chars_per_pixel */
"17 18 18 1",
/* colors */
"  c #717B7C",
". c #4B944C",
"X c #C0C0BF",
"o c #FFEEA0",
"O c #49484A",
"+ c #504E3D",
"@ c #B4B3A9",
"# c #DCC3AF",
"$ c #56EA55",
"% c #807750",
"& c #969BAB",
"* c #A9D0A9",
"= c #39343B",
"- c #C0B797",
"; c #4DC450",
": c #30B030",
"> c none",
", c #CCF7BB",
/* pixels */
">>>>>>>>>>>>>>>>>",
">>>> %%%%%%=X>>>>",
">>>> oooooo%-X>>>",
">>>> oooooo%o-X>>",
">>>> oooooo%oo-X>",
">>>> oooooo%%%%=X",
">>>> oooooooooooO",
">>>> oooooooooooO",
">>>> oo,ooooooooO",
">>>> oo$,oooooooO",
">***;$$$:,ooooooO",
">$::::::::,oooooO",
">$::::::::.#ooooO",
">:+++++::.@oooooO",
">>&&O--:.@ooooooO",
">>>> oo.@oooooooO",
">>>> oo#ooooooooO",
">>>>XOOOOOOOOOOO "
};
