/* XPM */
static char *ftv2mlastnode[] = {
/* width height num_colors chars_per_pixel */
"    16    22        3            1",
/* colors */
". c #000000",
"# c #808080",
"a c none",
/* pixels */
"aaaaaaaaaaaaaaaa",
"aaaaaaa#aaaaaaaa",
"aaaaaaaaaaaaaaaa",
"aaaaaaa#aaaaaaaa",
"aaaaaaaaaaaaaaaa",
"aaa#########aaaa",
"aaa#aaaaaaa#aaaa",
"aaa#aaaaaaa#aaaa",
"aaa#aaaaaaa#aaaa",
"aaa#a.....a#a#a#",
"aaa#aaaaaaa#aaaa",
"aaa#aaaaaaa#aaaa",
"aaa#aaaaaaa#aaaa",
"aaa#########aaaa",
"aaaaaaaaaaaaaaaa",
"aaaaaaaaaaaaaaaa",
"aaaaaaaaaaaaaaaa",
"aaaaaaaaaaaaaaaa",
"aaaaaaaaaaaaaaaa",
"aaaaaaaaaaaaaaaa",
"aaaaaaaaaaaaaaaa",
"aaaaaaaaaaaaaaaa"
};
