/* XPM */
static char *noname[] = {
/* width height ncolors chars_per_pixel */
"17 18 9 1",
/* colors */
"  c #4B944C",
". c #504E3D",
"X c #56EA55",
"o c #A5A5A9",
"O c #A89781",
"+ c #5D8161",
"@ c #30B030",
"# c none",
"$ c #CCF7BB",
/* pixels */
"#################",
"#################",
"#######$X########",
"######$@@X#######",
"#####$@@@@X######",
"####$@@@@@@X#####",
"###$@@@@@@@@X####",
"##$@@@@@@@@@@X###",
"##O++@@.@@@ ++o##",
"#####X@.@@@+#####",
"#####X@.@@@+#####",
"#####X@.@@@+#####",
"#####X@.@@@+#####",
"#####X@.@@@+#####",
"#####X@.@@@+#####",
"#####X@.@@@+#####",
"#####X@.@@@+#####",
"#####@..@ .+#####"
};
