/* XPM */
static char * tv_origin_xpm[] = {
"24 21 24 1",
" 	c #FFFFFFFFFFFF",
".	c #FFFFFFFF0000",
"X	c #FFFFFFFFE5E5",
"o	c #FFFFFFFFD1D1",
"O	c #FFFFFFFFC1C1",
"+	c #FFFFFFFFB7B7",
"@	c #FFFFFFFFB2B2",
"#	c #000000000000",
"$	c #FFFFFFFF9E9E",
"%	c #FFFFFFFF9393",
"&	c #FFFFFFFFCCCC",
"*	c #FFFFFFFF9999",
"=	c #FFFFFFFF7070",
"-	c #FFFFFFFF6B6B",
";	c #FFFFFFFF7F7F",
":	c #FFFFFFFFEFEF",
">	c #FFFFFFFF4C4C",
",	c #FFFFFFFF4747",
"<	c #FFFFFFFF6666",
"1	c #FFFFFFFF3333",
"2	c #FFFFFFFF2323",
"3	c #FFFFFFFFDBDB",
"4	c #FFFFFFFF8E8E",
"5	c #FFFFFFFFD6D6",
"                        ",
"                        ",
"                        ",
"   ...............      ",
"   .  XoO+@+OoX  .      ",
"   . ###$%####&X .      ",
"   .#o@*#=-#;*#o:.      ",
"   .#O$;#>,#<;#OX.      ",
"   .#+%=#12###%+3.      ",
"   .#@4-#2.#,#4@5.      ",
"   .3###>1##>=##3.      ",
"   ...$;<>,><;$OX.      ",
" ####.@*;=-=;*@o:.      ",
"  ###.&@$%4%$@&X .      ",
" ####.XoO+@+OoX  .      ",
"### #.............      ",
"### #                   ",
"##                      ",
"#                       ",
"                        ",
"                        "};
