/* XPM */
static char *noname[] = {
/* width height ncolors chars_per_pixel */
"17 18 10 1",
/* colors */
"  c #30C130",
". c #56EA55",
"X c #426129",
"o c #4B8F4C",
"O c #817C6A",
"+ c #30B030",
"@ c none",
"# c #CCF7BB",
"$ c #A9CDA9",
"% c #72C476",
/* pixels */
"@@@@@@@@@@@@@@@@@",
"@@@@@@@@@@@@@@@@@",
"@@@@@@@#.@@@@@@@@",
"@@@@@@# +.@@@@@@@",
"@@@@@# +++.@@@@@@",
"@@@@# +++++.@@@@@",
"@@@# +++++++.@@@@",
"@@#++++++++++%@@@",
"@@%OO +X+ +oOO$@@",
"@@@@@ +X  +O@@@@@",
"@@@@@ +X  +O@@@@@",
"@@@@@ +X  +O@@@@@",
"@@@@@ +X  +O@@@@@",
"@@@@@ +X  +O@@@@@",
"@@@@@ +X  +O@@@@@",
"@@@@@ +X  +O@@@@@",
"@@@@@ +X  +O@@@@@",
"@@@@@+XX XXO@@@@@"
};
