/* XPM */
static char *noname[] = {
/* width height ncolors chars_per_pixel */
"17 18 22 1",
/* colors */
"  c #495A2D",
". c #AFAFB5",
"X c #FFEEA0",
"o c #3A4570",
"O c #6A7981",
"+ c #C0C0DC",
"@ c #8B8D97",
"# c #B9B9CE",
"$ c #C6CBE1",
"% c #ACA7AD",
"& c #7F80DD",
"* c #9F929C",
"= c #817C6A",
"- c #ADA195",
"; c #7F7750",
": c none",
"> c #DDDDDD",
", c #4D4D49",
"< c #565A79",
"1 c #BBBBBB",
"2 c #BEB489",
"3 c #C8C4C1",
/* pixels */
":::::::::::::::::",
":::::::::::::::::",
":::::::::::::::::",
"::::::::::$+:::::",
"::::::::+.%##::::",
"::1;;;,<#Oo%#::::",
":12XX-%&ooo#>::::",
":;XX@%<oooO*;;;;O",
":;X-o.oooo#*XXXX,",
":;XOo.ooo<&%XXXX,",
":;XOo%ooo.o#2XXX,",
" ;;;;;;;;;;;;;;X,",
"=XXXXXXXXXXXXX;*<",
"32XXXXXXXXXXXX2<*",
":;XXXXXXXXXXXXXo%",
":=XXXXXXXXXXXXX;<",
":32XXXXXXXXXXXX-,",
"::O,,,,,,,,,,,,,="
};
