/* XPM */
static char *noname[] = {
/* width height ncolors chars_per_pixel */
"17 18 13 1",
/* colors */
"  c #000000",
". c #FFEEA0",
"X c #737373",
"o c #4D4D4D",
"O c #807750",
"+ c #403C28",
"@ c #A6A6A6",
"# c #C0BBA8",
"$ c #808080",
"% c #5E5E5E",
"& c #FFFFFF",
"* c #C0B378",
"= c none",
/* pixels */
"=================",
"=================",
"=================",
"=================",
"=================",
"==@OOOOO@========",
"=@*.....*@=======",
"=$&&&&&&&#OOOOOO%",
"=O.....OO*......o",
"=O...*  .O......o",
"=O..*  .+.......o",
"=O..+ . *.......o",
"=O.. .+  *......o",
"=O..++.*  *.....o",
"=O......* +O....o",
"=O.......O.O....o",
"=O........O*....o",
"=%ooooooooooooooX"
};
