/* XPM */
static char *noname[] = {
/* width height ncolors chars_per_pixel */
"17 18 17 1",
/* colors */
"  c #595967",
". c #C6CCDF",
"X c #EEDE95",
"o c #B7B7CC",
"O c #80938F",
"+ c #FBFBFA",
"@ c #B69F95",
"# c #C4C5C6",
"$ c #FEED9F",
"% c #787CA3",
"& c #B5B3A6",
"* c #FFFFFF",
"= c #2F2229",
"- c #3B4570",
"; c #DDDDDD",
": c #ADBAB1",
"> c #BBBBBB",
/* pixels */
"*****************",
"*****************",
"*****************",
"**********..*****",
"***+++++.o:oo****",
"**>    -o%-:o****",
"*>@$$@:%---o;++++",
"* $$%:%---%O     ",
"* $@-o----o@$$$X ",
"* $%-o---%%:$$$X ",
"+ X%-:---:-o&X$X ",
"=OOOOO ===OOO OX ",
"O$$$$$==XO$$$$ O ",
"#@$$$@=X=$$$$$@ %",
"* $$$ X===$$$$X-:",
"*O$$$@O$@==@$$$  ",
"*#@XXXXXX@  XXX@ ",
"**              O"
};
