/* XPM */
static char *noname[] = {
/* width height ncolors chars_per_pixel */
"17 18 13 1",
/* colors */
"  c #000000",
". c #FFEEA0",
"X c #737373",
"o c #676767",
"O c #4D4D4D",
"+ c #807750",
"@ c #403C28",
"# c #C0C0C0",
"$ c #C0BBA8",
"% c #808080",
"& c #666666",
"* c none",
"= c #C0B378",
/* pixels */
"*****************",
"*****************",
"*****************",
"*****************",
"*****************",
"**#+++++#********",
"*#=.....=#*******",
"*%*******$++++++&",
"*+.....++=......O",
"*+...=  .+......O",
"*+..=  .@.......O",
"*+..@ . =.......O",
"*+.. .@  =......O",
"*+..@@.=  =.....O",
"*+......= @+....O",
"*+.......+.+....O",
"*+........+=....O",
"*oOOOOOOOOOOOOOOX"
};
