/* XPM */
static char *noname[] = {
/* width height ncolors chars_per_pixel */
"17 18 11 1",
/* colors */
"  c #000000",
". c #FFEEA0",
"X c #737373",
"o c #6F6F6F",
"O c #4D4D4D",
"+ c #807750",
"@ c #403C28",
"# c #A6A6A6",
"$ c #5E5E5E",
"% c #C0B378",
"& c none",
/* pixels */
"&&&&&&&&&&&&&&&&&",
"&&&&&&&&&&&&&&&&&",
"&&&&&&&&&&&&&&&&&",
"&&&&&&&&&&&&&&&&&",
"&&&&&&&&&&&&&&&&&",
"&&#+++++#&&&&&&&&",
"&#%.....%#&&&&&&&",
"&+.......%++++++$",
"&+..............O",
"&+..............O",
"&+..............O",
"@++++++@ @+++++.O",
"o.....@ .+....+.O",
"#%...% . .....%%O",
"&+...+.@ @.....+O",
"&o...%+.% @%...+O",
"&#%......%++...%O",
"&&$OOOOOOOOOOOOOX"
};
