/* XPM */
static char *noname[] = {
/* width height ncolors chars_per_pixel */
"17 18 23 1",
/* colors */
"  c #AFAFB5",
". c #FFEEA0",
"X c #3A4570",
"o c #6A7981",
"O c #C0C0DC",
"+ c #8B8D97",
"@ c #B9B9CE",
"# c #C6CBE1",
"$ c #ACA7AD",
"% c #7F80DD",
"& c #9F929C",
"* c #CFB0AA",
"= c #817C6A",
"- c #ADA195",
"; c #B1B0A9",
": c #7F7750",
"> c none",
", c #DDDDDD",
"< c #4D4D49",
"1 c #565A79",
"2 c #BBBBBB",
"3 c #BEB489",
"4 c #D9CCBE",
/* pixels */
">>>>>>>>>>>>>>>>>",
">>>>>>>>>>>>>>>>>",
">>>>>>>>>>>>>>>>>",
">>>>>>>>>>#O>>>>>",
">>>>>>>>O $@@>>>>",
">>2:::<1@oX$@>>>>",
">23..-$%XXX@,>>>>",
">=>>%$1XXXo&::::o",
">:.-X XXXX@&....<",
">:.oX XXX1%$....<",
">:.oX XXX@XO;...<",
">:.oX XX1%X1 *..<",
">:.oX XX@XXXX++&1",
">:.oX Xo$4.4+XXo&",
">:.oX%1@;....;X1$",
">:.+XX +......&+1",
">:..++3........3<",
">o<<<<<<<<<<<<<<="
};
