/* XPM */
static char *noname[] = {
/* width height ncolors chars_per_pixel */
"17 18 19 1",
/* colors */
"  c #BEB48C",
". c #AFAFB5",
"X c #7F7754",
"o c #FFEEA0",
"O c #AFA3A4",
"+ c #C0C0DC",
"@ c #9B97A7",
"# c #B9B9CE",
"$ c #C5C5C9",
"% c #C6CBE1",
"& c #817C6A",
"* c #3B466E",
"= c #504D43",
"- c #FFFFFF",
"; c #5A5D81",
": c #DDDDDD",
"> c #B1937D",
", c #697982",
"< c #BBBBBB",
/* pixels */
"-----------------",
"-----------------",
"-----------------",
"----------%+-----",
"--------+.@##----",
"--<XXX=*#,*@#----",
"-< ooO@@***#:----",
"-Xoo,@;***,@XXXX,",
"-XoO*.****#@oooo=",
"-Xo,*.***;@@oooo=",
"-Xo,*@***.*# ooo=",
"=XXXXXXXXXXXXXXo=",
"&oooooooooooooX@;",
"$ oooooooooooo ;@",
"-Xooooooooooooo*@",
"-&oooooooooooooX;",
"-$>oooooooooooo>=",
"--&=============&"
};
