/* XPM */
static char *noname[] = {
/* width height ncolors chars_per_pixel */
"17 18 22 1",
/* colors */
"  c #BEB48C",
". c #AFAFB5",
"X c #7F7754",
"o c #FFEEA0",
"O c #AFA3A4",
"+ c #D0B0AA",
"@ c #C0C0DC",
"# c #9B97A7",
"$ c #B9B9CE",
"% c #B2B0A9",
"& c #C6CBE1",
"* c #DFB6B4",
"= c #817C6A",
"- c #3B466E",
"; c #504D43",
": c none",
"> c #8080DF",
", c #5A5D81",
"< c #DDDDDD",
"1 c #8E8F96",
"2 c #697982",
"3 c #BBBBBB",
/* pixels */
":::::::::::::::::",
":::::::::::::::::",
":::::::::::::::::",
"::::::::::&@:::::",
"::::::::@.#$$::::",
"::3XXX;-$2-#$::::",
":3 ooO##---$<::::",
":=::>#,---2#XXXX2",
":XoO-.----$#oooo;",
":Xo2-.---,##oooo;",
":Xo2-.---$-@%ooo;",
":Xo2-.--,#-,.+oo;",
":Xo2-.--$---,21#,",
":Xo2-.-,#*o*1--2#",
":Xo2-#,$%oooo%-,#",
":Xo1--.#oooooo11,",
":Xoo11 oooooooo ;",
":=;;;;;;;;;;;;;;="
};
