/* XPM */
static char *ftv2pnode[] = {
/* width height num_colors chars_per_pixel */
"    16    22        3            1",
/* colors */
". c #808080",
"# c #000000",
"a c none",
/* pixels */
"aaaaaaaaaaaaaaaa",
"aaaaaaa.aaaaaaaa",
"aaaaaaaaaaaaaaaa",
"aaaaaaa.aaaaaaaa",
"aaaaaaaaaaaaaaaa",
"aaa.........aaaa",
"aaa.aaaaaaa.aaaa",
"aaa.aaa#aaa.aaaa",
"aaa.aaa#aaa.aaaa",
"aaa.a#####a.a.a.",
"aaa.aaa#aaa.aaaa",
"aaa.aaa#aaa.aaaa",
"aaa.aaaaaaa.aaaa",
"aaa.........aaaa",
"aaaaaaaaaaaaaaaa",
"aaaaaaa.aaaaaaaa",
"aaaaaaaaaaaaaaaa",
"aaaaaaa.aaaaaaaa",
"aaaaaaaaaaaaaaaa",
"aaaaaaa.aaaaaaaa",
"aaaaaaaaaaaaaaaa",
"aaaaaaa.aaaaaaaa"
};
