/* XPM */
static char *noname[] = {
/* width height ncolors chars_per_pixel */
"32 18 13 1",
/* colors */
"  c #D6D6D5",
". c #CDC9C2",
"X c #DBD0CC",
"o c #E7E2CA",
"O c #C5C5C9",
"+ c #D2D2D2",
"@ c #CBD0CB",
"# c #B0BEAD",
"$ c #A8A198",
"% c #BABABA",
"& c #C0BDBC",
"* c #DCD9D0",
"= c none",
/* pixels */
"=========@OOOOOOOOOO@===========",
"=========#&%%%%%%...#===========",
"=========############@#=========",
"=========#*...Xooooo$$$#######&=",
"=========#X&&&.*oooo#%#=======#=",
"=========#oXXXoooooo#+@=======#=",
"=========&#####$####%+========#=",
"========== ++++#++++++========#=",
"======$##############$========#=",
"======#==============#========#=",
"=##$$$$######===O$$$$$$####$==#=",
"=##$$$$######===O$$$$$$####$==#=",
"=#oXXX*ooooo#+==O.XXXX*oooo#&O#=",
"=#X&.X*ooooo#+==O.&&&&O*ooo#&O@=",
"=#*.....Xooo#+==O.....Xoooo#+ ==",
"=############+==O$#########$+ ==",
"== +++++++++++====+++++++++++ ==",
"== +++++++++++====+++++++++++ =="
};
