/* XPM */
static char *noname[] = {
/* width height ncolors chars_per_pixel */
"48 39 5 1",
/* colors */
"  c #E7E2CA",
". c #D2D2D2",
"X c #C0C0C0",
"o c #9A9A9A",
"O c none",
/* pixels */
"OOOOOOOOOOOOOOOOOOOOOOOOOOOOOOOOOOOOOOOOOOOOOOOO",
"OOOOOOOOOOOOOOoooooooooooooooooOOOOOOOOOOOOOOOOO",
"OOOOOOOOOOOOOOo XXXXXXXXX     oOOOOOOOOOOOOOOOOO",
"OOOOOOOOOOOOOOoooooooooooooooooOOoOOOOOOOOOOOOOO",
"OOOOOOOOOOOOOOo               o.ooOOOOOOOOOOOOOO",
"OOOOOOOOOOOOOOo XXXXXX        ooooooooooooooooOO",
"OOOOOOOOOOOOOOo XXXXXXX       o.ooOOOOOOOOOOOoOO",
"OOOOOOOOOOOOOOo XXXXX         o..oOOOOOOOOOOOoOO",
"OOOOOOOOOOOOOOo               o..OOOOOOOOOOOOoOO",
"OOOOOOOOOOOOOOooooooooooooooooo..OOOOOOOOOOOOoOO",
"OOOOOOOOOOOOOOOO.......o.........OOOOOOOOOOOOoOO",
"OOOOOOOOOOOOOOOO.......o.........OOOOOOOOOOOOoOO",
"OOOOOOOOOooooooooooooooooooooooooOOOOOOOOOOOOoOO",
"OOOOOOOOOoOOOOOOOOOOOOOOOOOOOOOOoOOOOOOOOOOOOoOO",
"OOOOOOOOOoOOOOOOOOOOOOOOOOOOOOOOoOOOOOOOOOOOOoOO",
"OOoooooooooooooooooOOOOOOoooooooooooooooooOOOoOO",
"OOo XXXXXX        oOOOOOOo XXXXXXXX      oOOOoOO",
"OOoooooooooooooooooOOOOOOoooooooooooooooooOOOoOO",
"OOo               o..OOOOo               o..OoOO",
"OOo XXXXXX        o..OOOOo XXXXXXX       oooooOO",
"OOo XXX           o..OOOOo XXXXXXXX      o..OOOO",
"OOo XXXXXXXXX     o..OOOOo XXXXXXX       o..OOOO",
"OOo               o..OOOOo               o..OOOO",
"OOooooooooooooooooo..OOOOooooooooooooooooo..OOOO",
"OOOO.................OOOOOO.................OOOO",
"OOOO.................OOOOOO.................OOOO",
"OOOO.................OOOOOO.................OOOO",
"OOOOOOOOOOOOOOOOOOOOOOOOOOOOOOOOOOOOOOOOOOOOOOOO",
"OOOOOOOOOOOOOoOOOOoOOoOOOOOoOOoOOOOOOOOOOOOOOOOO",
"OOOOOOOOOOOOOoOOOOoOOooOOOooOOoOOOOOOOOOOOOOOOOO",
"OOOOOOOOOOOOOoOOOOoOOooOOOooOOoOOOOOOOOOOOOOOOOO",
"OOOOOOOOOOOOOoOOOOoOOoOoOoOoOOoOOOOOOOOOOOOOOOOO",
"OOOOOOOOOOOOOoOOOOoOOoOoOoOoOOoOOOOOOOOOOOOOOOOO",
"OOOOOOOOOOOOOoOOOOoOOoOOoOOoOOoOOOOOOOOOOOOOOOOO",
"OOOOOOOOOOOOOoOOOOoOOoOOoOOoOOoOOOOOOOOOOOOOOOOO",
"OOOOOOOOOOOOOoOOOOoOOoOOOOOoOOoOOOOOOOOOOOOOOOOO",
"OOOOOOOOOOOOOOooooOOOoOOOOOoOOooooOOOOOOOOOOOOOO",
"OOOOOOOOOOOOOOOOOOOOOOOOOOOOOOOOOOOOOOOOOOOOOOOO",
"OOOOOOOOOOOOOOOOOOOOOOOOOOOOOOOOOOOOOOOOOOOOOOOO"
};
