/* XPM */
static char *noname[] = {
/* width height ncolors chars_per_pixel */
"32 18 13 1",
/* colors */
"  c #D6D6D5",
". c #BABAB9",
"X c #E7E2CA",
"o c #C4C5C5",
"O c #DDD9D0",
"+ c #D2D2D2",
"@ c #CDCECD",
"# c #AFBFAB",
"$ c #A6A498",
"% c #DBCFCC",
"& c #C0ACAD",
"* c none",
"= c #CDC8C3",
/* pixels */
"*********@oooooooooo@***********",
"*********#.......===.***********",
"*********#&&&&&&&&&&#@.*********",
"*********#O===%XXXXX$$$#######.*",
"*********#%ooo=OXXXX#..*******.*",
"*********#X%%%XXXXXX#+@*******.*",
"*********.#####$####.+********.*",
"********** ++++#++++++********.*",
"******$##############$********.*",
"******#**************#********.*",
"*##$$$$&&&&&#***o$$$$$$#&&&$**.*",
"*##$$$$&&&&&#***o$$$$$$#&&&$**.*",
"*#X%%%OXXXXX#+**o=%%%%OXXXX#.o.*",
"*#%o=%OXXXXX#+**o=oooooOXXX#oo@*",
"*#O=====%XXX#+**o=====%XXXX&+ **",
"*#&&&&&&&&&&#+**o$&&&&&&&&&$+ **",
"** +++++++++++****+++++++++++ **",
"** +++++++++++****+++++++++++ **"
};
