/* XPM */
static char *noname[] = {
/* width height ncolors chars_per_pixel */
"32 18 16 1",
/* colors */
"  c #BEB48C",
". c #7F7754",
"X c #FFEEA0",
"o c #AFA3A4",
"O c #1E1318",
"+ c #B2B0A9",
"@ c #D2D2D2",
"# c #37364A",
"$ c #817C6A",
"% c #504D43",
"& c #5A5D81",
"* c none",
"= c #B1937D",
"- c #8E8F96",
"; c #697982",
": c #BBBBBB",
/* pixels */
"*********+----------+***********",
"*********%$%%%%%.===%***********",
"*********%%%%%%%%%%%%o%*********",
"*********%X=== XXXXXOOO%%%%%%%$*",
"*********% $$$=XXXXX#&%*******%*",
"*********%X   XXXXXX#:+*******%*",
"*********$%####O####;:********%*",
"**********@::::#::::::********%*",
"******O%%%%%%%%%%%%%%O********%*",
"******%**************%********%*",
"*%%OOO#%%%%%%***-#OOOOO%%%%O**%*",
"*%%OOO#%%%%%%***-#OOOOO%%%%O**%*",
"*%X   XXXXXX#:**-=    XXXXX%$-%*",
"*% $- XXXXXX#:**-=$$$$-XXXX%$-+*",
"*%X===== XXX#:**-===== XXXX%:@**",
"*%%%%%%%%%%%#:**-#%%%%%%%%%O:@**",
"**@:::::::::::****:::::::::::@**",
"**@:::::::::::****:::::::::::@**"
};
