/* XPM */
static char *noname[] = {
/* width height ncolors chars_per_pixel */
"32 18 15 1",
/* colors */
"  c #AFAFB5",
". c #AFA3A4",
"X c #D1CCC2",
"o c #BFBEC4",
"O c #E7E2CA",
"+ c #9B97A7",
"@ c #C5C5C9",
"# c #B2B0A9",
"$ c #D7D8D7",
"% c #D2D2D2",
"& c #BCC4BF",
"* c #DDD9CE",
"= c #CBC5C2",
"- c none",
"; c #BBBBBB",
/* pixels */
"---------%@@@@@@@@@@%-----------",
"--------- &     ;XXX -----------",
"--------- ########## @ ---------",
"--------- *XXXXOOOOO++.       o-",
"--------- *oooX*OOOO#; ------- -",
"--------- O***OOOOOO#%%------- -",
"---------o ####+####;%-------- -",
"----------$%%%%#%%%%%%-------- -",
"------.              .-------- -",
"------ -------------- -------- -",
"- #...###### ---@......####.-- -",
"- #...###### ---@......####.-- -",
"- O****OOOOO#%--@X*****OOOO#o@ -",
"- *o=**OOOOO#%--@Xoooo=*OOO#o@%-",
"- *XXXXXXOOO#%--@XXXXXXOOOO#%$--",
"- ###########%--@.#########.%$--",
"--$%%%%%%%%%%%----%%%%%%%%%%%$--",
"--$%%%%%%%%%%%----%%%%%%%%%%%$--"
};
