/* XPM */
static char *noname[] = {
/* width height ncolors chars_per_pixel */
"32 18 8 1",
/* colors */
"  c #DAD7D2",
". c #DFE1C6",
"X c #D2D4D2",
"o c #CAC2BC",
"O c #D1D1D0",
"+ c #B0B0AB",
"@ c none",
"# c #BBBBBB",
/* pixels */
"@@@@@@@@@OooooooooooO@@@@@@@@@@@",
"@@@@@@@@@+o+++++#ooo+@@@@@@@@@@@",
"@@@@@@@@@++++++++++++O+@@@@@@@@@",
"@@@@@@@@@+.oooO.....++++++++++#@",
"@@@@@@@@@+ ###o.....+#+@@@@@@@+@",
"@@@@@@@@@+.   ......+XO@@@@@@@+@",
"@@@@@@@@@#++++++++++#X@@@@@@@@+@",
"@@@@@@@@@@@XXXX+XXXXXX@@@@@@@@+@",
"@@@@@@++++++++++++++++@@@@@@@@+@",
"@@@@@@+@@@@@@@@@@@@@@+@@@@@@@@+@",
"@++++++++++++@@@o+++++++++++@@+@",
"@++++++++++++@@@o+++++++++++@@+@",
"@+.   ......+X@@oo    .....+#o+@",
"@+ #o ......+X@@oo####o....+#oO@",
"@+.oooooO...+X@@ooooooO....+X@@@",
"@++++++++++++X@@o+++++++++++X@@@",
"@@@XXXXXXXXXXX@@@@XXXXXXXXXXX@@@",
"@@@XXXXXXXXXXX@@@@XXXXXXXXXXX@@@"
};
