/* XPM */
static char *noname[] = {
/* width height ncolors chars_per_pixel */
"32 18 12 1",
/* colors */
"  c #D6D6D5",
". c #E7E2CA",
"X c #D2D2D2",
"o c #D4CEC9",
"O c #C4C5C6",
"+ c #B5B3A6",
"@ c #CCC7C3",
"# c #B69F96",
"$ c none",
"% c #ADBAB1",
"& c #BBBBBB",
"* c #DDD9CF",
/* pixels */
"$$$$$$$$$oOOOOOOOOOOX$$$$$$$$$$$",
"$$$$$$$$$%&%%%%%&@@@%$$$$$$$$$$$",
"$$$$$$$$$%++++++++++%o%$$$$$$$$$",
"$$$$$$$$$%*@@@o.....###%%%%%%%&$",
"$$$$$$$$$%*&&&@*....+&%$$$$$$$%$",
"$$$$$$$$$%.***......+XX$$$$$$$%$",
"$$$$$$$$$&%++++#++++&X$$$$$$$$%$",
"$$$$$$$$$$ XXXX+XXXXXX$$$$$$$$%$",
"$$$$$$#%%%%%%%%%%%%%%#$$$$$$$$%$",
"$$$$$$%$$$$$$$$$$$$$$%$$$$$$$$%$",
"$%++++++++++%$$$O++++++++++#$$%$",
"$%++++++++++%$$$O++++++++++#$$%$",
"$%.****.....+X$$O@*****....+&O%$",
"$%*&@**.....+X$$O@&&&&O*...+&OX$",
"$%*@@@@@o...+X$$O@@@@@o....+X $$",
"$%+++++++++++X$$O++++++++++#X $$",
"$$ XXXXXXXXXXX$$$$XXXXXXXXXXX $$",
"$$ XXXXXXXXXXX$$$$XXXXXXXXXXX $$"
};
