/* XPM */
static char *noname[] = {
/* width height ncolors chars_per_pixel */
"32 18 11 1",
/* colors */
"  c #595967",
". c #C9AAA6",
"X c #EEDE95",
"o c #80938F",
"O c #D2D2D2",
"+ c #FEED9F",
"@ c #B5B3A6",
"# c #30222A",
"$ c #B69F96",
"% c none",
"& c #BBBBBB",
/* pixels */
"%%%%%%%%%@oooooooooo@%%%%%%%%%%%",
"%%%%%%%%% o      $$$ %%%%%%%%%%%",
"%%%%%%%%%            @ %%%%%%%%%",
"%%%%%%%%% X$$$.+++++###       o%",
"%%%%%%%%% Xooo$X++++#  %%%%%%% %",
"%%%%%%%%% XXXX++++++#&@%%%%%%% %",
"%%%%%%%%%o ######### &%%%%%%%% %",
"%%%%%%%%%%O&&&&#&&&&&&%%%%%%%% %",
"%%%%%%#              #%%%%%%%% %",
"%%%%%% %%%%%%%%%%%%%% %%%%%%%% %",
"% #####      %%%o#######   #%% %",
"% #####      %%%o#######   #%% %",
"% XXXXX+++++#&%%o$XXXXX++++ oo %",
"% XooXX+++++#&%%o$oooooX+++ oo@%",
"% X$$$$$.+++#&%%o$$$$$.++++ &O%%",
"%           #&%%o#         #&O%%",
"%%O&&&&&&&&&&&%%%%&&&&&&&&&&&O%%",
"%%O&&&&&&&&&&&%%%%&&&&&&&&&&&O%%"
};
