/* XPM */
static char *noname[] = {
/* width height ncolors chars_per_pixel */
"32 18 15 1",
/* colors */
"  c #D3CDC8",
". c #C0C0BF",
"X c #B4B3A9",
"o c #E0D6C0",
"O c #E7E2CA",
"+ c #C4C5C5",
"@ c #D2D2D2",
"# c #A5A5A9",
"$ c #ADABAC",
"% c #DBDAD9",
"& c #ADB3B2",
"* c #DCDECF",
"= c none",
"- c #C9C7C6",
"; c #BBBBBB",
/* pixels */
"========= ++++++++++@===========",
"=========&.&&&&&;---&===========",
"=========&XXXXXXXXXX$ &=========",
"=========&*--- OOOOO###&&&&&&&.=",
"=========&o...-*OOOO$;&=======&=",
"=========&OoooOOOOOO$@@=======&=",
"=========.$$$$$#$$$$;@========&=",
"==========%@@@@$@@@@@@========&=",
"======#&&&&&&&&&&&&&&#========&=",
"======&==============&========&=",
"=&X###$XXXXX&===+$#####XXXX#==&=",
"=&$###$XXXXX&===+$#####$XXX#==&=",
"=&Oooo*OOOOO$@==+-oooo*OOOOX.+&=",
"=&o.-o*OOOOO$@==+-....+*OOOX.+@=",
"=&*----- OOO$@==+----- OOOOX@%==",
"=&XXXXXXXXXX$@==+$XXXXXXXXX#@%==",
"==%@@@@@@@@@@@====@@@@@@@@@@@%==",
"==%@@@@@@@@@@@====@@@@@@@@@@@%=="
};
