/* XPM */
static char *noname[] = {
/* width height ncolors chars_per_pixel */
"32 18 15 1",
/* colors */
"  c #AFAFB5",
". c #CCCBC4",
"X c #BFBEC4",
"o c #E7E2CA",
"O c #ACA7AD",
"+ c #D7D8D7",
"@ c #D2D2D2",
"# c #9F929C",
"$ c #DDD9CE",
"% c #ADA195",
"& c #B1B0A9",
"* c none",
"= c #BBBBBB",
"- c #D9CCBE",
"; c #C8C4C1",
/* pixels */
"*********@;;;;;;;;;;@***********",
"********* ;     =... ***********",
"********* &&&&&&&&&& . *********",
"********* $...-ooooo##O       X*",
"********* $XXX.$ooooO= ******* *",
"********* o$$$ooooooO@@******* *",
"*********X OOOO#OOOO=@******** *",
"**********+@@@@O@@@@@@******** *",
"******O              O******** *",
"****** ************** ******** *",
"* &OOOO&&&&& ***;OOOOOO&&&&%** *",
"* &OOOO&&&&& ***;OOOOOO&&&&%** *",
"* o$$$$oooooO@**;.$$$$$oooo&X; *",
"* $X;$$oooooO@**;.XXXX;$ooo&X;@*",
"* $.....-oooO@**;.....-oooo&@+**",
"* &&&&&&&&&&O@**;O&&&&&&&&&%@+**",
"**+@@@@@@@@@@@****@@@@@@@@@@@+**",
"**+@@@@@@@@@@@****@@@@@@@@@@@+**"
};
