/* XPM */
static char *noname[] = {
/* width height ncolors chars_per_pixel */
"48 39 7 1",
/* colors */
"  c #000000",
". c #4AEB4A",
"X c #FFEEA0",
"o c #30B030",
"O c none",
"+ c #425E37",
"@ c #BBBBBB",
/* pixels */
"OOOOOOOOOOOOOOOOOOOOOOOOOOOOOOOOOOOOOOOOOOOOOOOO",
"OOOOOOOOOOOOOO         OOO      OOOOOOOOOOOOOOOO",
"OOOOOOOOOOOOOO XXXXXXX OOO XXXX OOOOOOOOOOOOOOOO",
"OOOOOOOOOOOOOO XXXXX  OOOOO  XX OOOOOOOOOOOOOOOO",
"OOOOOOOOOOOOOO XXXXX @@@@OOO XX @@OOOOOOOOOOOOOO",
"OOOOOOOOOOOOOO XXXXX @@@@OOO XX @@OOOOOOOOOOOOOO",
"OOOOOOOOOOOOOO XXXXXX @@OOO XXX @@OOOOOOOOOOOOOO",
"OOOOOOOOOOOOOO X   XXX     XXXX @@OOOOOOOOOOOOOO",
"OOOOOOOOO.OOOO X @@ XXXXXXXXXXX @@   OOOOOOOOOOO",
"OOOOOOOOO..OOO  @@@@ XXXXXXXXXX @@ XX OOOOOOOOOO",
"OOO.........OOOO@@@@ XXXXXXXXXX @ XXXX OOOOOOOOO",
"OOO.oooooooo.OOO@@@O XXXXXXXXXX  XXXXX OOOOOOOOO",
"OOO.+++++.++@OOO@@OO XXXXXXXXXXXXXXXXX @OOOOOOOO",
"OOOOO@@@@.+@@@  OOOO XXXXXXXXXX  XXXXX @@OOOOOOO",
"OOOOO@@@@+@@@@ X OO XXXXXXXXXXX @ XXXX @@OOOOOOO",
"OOOOO@@@@@@@@@ X   XXXXXXXXXXXX @@ XX @@@OOOOOOO",
"OOOOOOOOOOO@@O XXXXXXXXXXXXXXXX @@   @@@@OOOOOOO",
"OOOOOOOOOOO@OO XXXXXXX     XXXX @@O@@@@@@OOOOOOO",
"OOOOOOOOOOOOOO XXXXXX OOOOO XXX @@OO@@@@OOOOOOOO",
"OOOOOOOOOOOOOO XXXXX OOOOOOO XX @@OO@@@OOOOOOOOO",
"OOOOOOOOOOOOOO XXXXX OOOOOOO XX @@OOOOOOOOOOOOOO",
"OOOOOOOOOOOOOO XXXXX  OOOOO  XX @@OOOOOOOOOOOOOO",
"OOOOOOOOOOOOOO XXXXXXX OOO XXXX @@OOOOOOOOOOOOOO",
"OOOOOOOOOOOOOO         OOO      @@OOOOOOOOOOOOOO",
"OOOOOOOOOOOOOOOO@@@@@@@@OOOOO@@@@@OOOOOOOOOOOOOO",
"OOOOOOOOOOOOOOOO@@@@@@@@@OOO@@@@@@OOOOOOOOOOOOOO",
"OOOOOOOOOOOOOOOO@@@@@@@@@OOO@@@@@@OOOOOOOOOOOOOO",
"OOOOOOOOOOOOOOOOOOOOOOOOOOOO OOOOOOOO OOOOOOOOOO",
"OOOOOO       OOOOOOOOO    OO OOOOOOOO OOOOOOOOOO",
"OOOOOOOOO OOOOOOOOOOO OOOOOO OOOOOOOO OOOOOOOOOO",
"OOOOOOOOO OOOO  OOOOO OOOOOO OOO  OO    OOOOOOOO",
"OOOOOOOOO OOO OO OOOO  OOOOO OO OO OO OOOOOOOOOO",
"OOOOOOOOO OO OOOO OOOO   OOO O OOOO O OOOOOOOOOO",
"OOOOOOOOO OO OOOO OOOOOO  OO O OOOO O OOOOOOOOOO",
"OOOOOOOOO OO OOOO OOOOOOO OO O OOOO O OOOOOOOOOO",
"OOOOOOOOO OOO OO OOOOOOOO OO OO OO OO OOOOOOOOOO",
"OOOOOOOOO OOOO  OOOOO    OOO OOO  OOOO  OOOOOOOO",
"OOOOOOOOOOOOOOOOOOOOOOOOOOOOOOOOOOOOOOOOOOOOOOOO",
"OOOOOOOOOOOOOOOOOOOOOOOOOOOOOOOOOOOOOOOOOOOOOOOO"
};
