/* XPM */
static char *noname[] = {
/* width height ncolors chars_per_pixel */
"32 18 15 1",
/* colors */
"  c #728769",
". c #BB9F93",
"X c #DAD7D2",
"o c #66C166",
"O c #4AEB4A",
"+ c #FFEEA0",
"@ c #D2D4D2",
"# c #ADCCAD",
"$ c #CAC2BC",
"% c #D1D1D0",
"& c #30B030",
"* c #B0B0AB",
"= c none",
"- c #425E37",
"; c #BBBBBB",
/* pixels */
"=========*.....$=*...$==========",
"=========-.... .=-.. .==========",
"=========-+++- @X=-.. X=========",
"=========-+++-;;$=... $=========",
"=========-+..+- .. +. $=========",
"======#==-.- .+...++. .- =======",
"==####Oo=  ;;-++++++.  .. ======",
"==O&&&&&#=@;$-++++++.-.++-======",
"==o   & $**$=-+++++++.+++-$=====",
"===$;;&*;- ** ++++++.- ++-;@====",
"===%$$$;;-.- +++++++.    .;@====",
"=======$X-++++.---++. * .;;@====",
"=========-+++. === +. $=;;%=====",
"=========-+++-====... $=@@======",
"=========-+++  $=*-.. $=========",
"=========------.=---- $=========",
"==========@;;;;;X==$;;$=========",
"==========@;;;;;$=@;;;$========="
};
