/* XPM */
static char *noname[] = {
/* width height ncolors chars_per_pixel */
"32 18 8 1",
/* colors */
"  c #D9D6D3",
". c #D1D2D1",
"X c #D5E0C4",
"o c #C8C5C1",
"O c #A3C8A3",
"+ c #B2BAAD",
"@ c none",
"# c #BBBBBB",
/* pixels */
"@@@@@@@@@.ooooo @.ooo @@@@@@@@@@",
"@@@@@@@@@+oooo+o@+oo+o@@@@@@@@@@",
"@@@@@@@@@+XXX+# @@+ooo@@@@@@@@@@",
"@@@@@@@@@+XXX+.. @ooo# @@@@@@@@@",
"@@@@@@@@@+XoXX+#oooXo# @@@@@@@@@",
"@@@@@@X@@+o+#XXoooXXo#o+#@@@@@@@",
"@@XXXXOX@##..+XXXXXXo##XX#@@@@@@",
"@@OOOOOOX@ . +XXXXXXo+XXX+@@@@@@",
"@@o###O+ .. @+XXXXXXXoXXX+ @@@@@",
"@@@ ..+..+o..oXXXXXXo+oXX+. @@@@",
"@@@    ..+X+oXXXXXXXo##+#o. @@@@",
"@@@@@@@ @+XXXXX+++XXo#.oo.. @@@@",
"@@@@@@@@@+XXXX#@@@#Xo# @.. @@@@@",
"@@@@@@@@@+XXX+@@@@ooo# @  @@@@@@",
"@@@@@@@@@+XXXo# @.+Xo# @@@@@@@@@",
"@@@@@@@@@++++++o@++++# @@@@@@@@@",
"@@@@@@@@@@ .....@@@ .. @@@@@@@@@",
"@@@@@@@@@@ ..... @ ... @@@@@@@@@"
};
