/* XPM */
static char *noname[] = {
/* width height ncolors chars_per_pixel */
"32 18 12 1",
/* colors */
"  c #D9D5D1",
". c #49EB49",
"X c #FFEEA0",
"o c #D3A9A0",
"O c #32B332",
"+ c #9A8F79",
"@ c #CECECC",
"# c #327832",
"$ c #624E3A",
"% c #ACC0AA",
"& c none",
"* c #BBBBBB",
/* pixels */
"&&&&&&&&&%+++++@&%+++@&&&&&&&&&&",
"&&&&&&&&&$++++$+&$++$+&&&&&&&&&&",
"&&&&&&&&&$XXX$+  &$+++ &&&&&&&&&",
"&&&&&&&&&$XXX$**@&++++@&&&&&&&&&",
"&&&&&&&&&$X+oX$++++X++@&&&&&&&&&",
"&&&&&&%&&$+$$oX+++XX+++$+&&&&&&&",
"&&%%%%..&++**$XXXXXX++$oo+&&&&&&",
"&&.OOOOO%& **$XXXXXX+$oXX$&&&&&&",
"&&.+++O#*%%@&$XXXXXXX+XXX$*&&&&&",
"&&&@**O%*$+%%+XXXXXX+$+XX$* &&&&",
"&&&@@@@**$o$+XXXXXXX+++$++* &&&&",
"&&&&&&&@ $XXXXo$$$XX++%++** &&&&",
"&&&&&&&&&$XXXo+&&&$X++@&**@&&&&&",
"&&&&&&&&&$XXX$&&&&++++@&  &&&&&&",
"&&&&&&&&&$XXX+$@&%$o++@&&&&&&&&&",
"&&&&&&&&&$$$$$$+&$$$$+@&&&&&&&&&",
"&&&&&&&&&& ***** &&***@&&&&&&&&&",
"&&&&&&&&&& *****@& ***@&&&&&&&&&"
};
