/* XPM */
static char *noname[] = {
/* width height ncolors chars_per_pixel */
"32 18 8 1",
/* colors */
"  c #D9D5D1",
". c #D0B9B5",
"X c #CECECC",
"o c #D8E0C5",
"O c #ACC0AA",
"+ c none",
"@ c #CBD7CB",
"# c #BBBBBB",
/* pixels */
"+++++++++XXXXXX +XXXX ++++++++++",
"+++++++++O....#X+O..#X++++++++++",
"+++++++++OoooO#+++O..#++++++++++",
"+++++++++OoooO   +X..# +++++++++",
"+++++++++Oo.oo##XX#o.# +++++++++",
"++++++@++O.##Xo...oo.#XO#+++++++",
"++@@@@O@+##  Ooooooo.##XX#++++++",
"++OOOOOO@++  Ooooooo.OXooO++++++",
"++@###OO XX +Oooooooo.oooO +++++",
"+++   OX O#XX#oooooo.##ooO +++++",
"+++      OoO#ooooooo.####X +++++",
"+++++++ +OooooXOOOoo.#X#X  +++++",
"+++++++++OoooX#+++#o.# +   +++++",
"+++++++++OoooO++++X..# +++++++++",
"+++++++++Oooo## +XOX.# +++++++++",
"+++++++++OOOOOOX+OOOO# +++++++++",
"+++++++++++     +++    +++++++++",
"+++++++++++      ++    +++++++++"
};
