/* XPM */
static char *noname[] = {
/* width height ncolors chars_per_pixel */
"32 18 18 1",
/* colors */
"  c #AEC5B1",
". c #AFAFB5",
"X c #AFA3A4",
"o c #D1CCC2",
"O c #D5D5D3",
"+ c #BFBEC4",
"@ c #E7E2CA",
"# c #C5C5C9",
"$ c #B2B0A9",
"% c #D7D8D7",
"& c #D2D2D2",
"* c #B5E0B5",
"= c #BCC4BF",
"- c #DDD9CE",
"; c #CBC5C2",
": c none",
"> c #BBBBBB",
", c #A9CDA9",
/* pixels */
":::::::::&#####O:&###O::::::::::",
":::::::::.oooo>#:.oo>#::::::::::",
":::::::::.@@@$>%%:Xo;#%:::::::::",
":::::::::.@@@$&&%:#o;+%:::::::::",
":::::::::.-oo@>+##=@;+%:::::::::",
"::::::&::.o.>o-ooo@@;+#.+:::::::",
"::&&&&**:+>&&$@@@@@@;+>oo=::::::",
"::,,,,,,&:%&O.@@@@@@;Xo@@$::::::",
"::*===, O&#%:.@@@@@@-o@@@$O:::::",
":::%&& &&$>&&>@@@@@@;.=@@$&%::::",
":::%%%%&&$o$=@@@@@@@;++>>#&%::::",
":::::::%%.@@@@o$$$@@;+&+#&&%::::",
":::::::::.@@@o+:::>-;+%:&&%:::::",
":::::::::.@@@$::::#o;+%:%%::::::",
":::::::::.@@@=>O:&$o;+%:::::::::",
":::::::::.$$$$X#:.$$X+%:::::::::",
"::::::::::%&&&&&%::O&&%:::::::::",
"::::::::::%&&&&&%:%&&&%:::::::::"
};
