/* XPM */
static char *noname[] = {
/* width height ncolors chars_per_pixel */
"32 18 19 1",
/* colors */
"  c #D6D6D5",
". c #82C782",
"X c #9392A3",
"o c #C5C5C9",
"O c #D2D2D2",
"+ c #CBD0CB",
"@ c #B0BEAD",
"# c #A8A198",
"$ c #6C7888",
"% c #BABABA",
"& c #6E3634",
"* c #C0BDBC",
"= c #272333",
"- c #FEED9F",
"; c #409C40",
": c #CCA69F",
"> c #9AE298",
", c none",
"< c #5A575F",
/* pixels */
",,,,,,,,,@XXXXXo,@XXXo,,,,,,,,,,",
",,,,,,,,,<####<X,<##<X,,,,,,,,,,",
",,,,,,,,,<---&$O ,=##X ,,,,,,,,,",
",,,,,,,,,<---&%%o,X##$o,,,,,,,,,",
",,,,,,,,,<-#:-<$XX$-#$o,,,,,,,,,",
",,,,,,>,,<#<<:-###--#$X<$,,,,,,,",
",,>>>>;.,$$%%=------#$<::$,,,,,,",
",,;;;;;;>,O%o<------#=:--&,,,,,,",
",,.$$$;;o##o,<-------#---&o ,,,,",
",,,o%%;@%=$@@$------#<$--&%O,,,,",
",,,+ooo**<:&$-------#$$<$X%O,,,,",
",,,,,,,o <----:&&&--#$@$X%%O,,,,",
",,,,,,,,,<---:$,,,<-#$o,%%+,,,,,",
",,,,,,,,,<---&,,,,X##$o,OO,,,,,,",
",,,,,,,,,<---$<o,@&:#$o,,,,,,,,,",
",,,,,,,,,<&&&&=X,<&&=$o,,,,,,,,,",
",,,,,,,,,,O%%%%% , o%%o,,,,,,,,,",
",,,,,,,,,,O%%%%%o,O%%%o,,,,,,,,,"
};
