/* XPM */
static char *noname[] = {
/* width height ncolors chars_per_pixel */
"32 18 14 1",
/* colors */
"  c #D6D6D5",
". c #CDC9C2",
"X c #E7E2CA",
"o c #C5C5C9",
"O c #D2D2D2",
"+ c #CBD0CB",
"@ c #B0BEAD",
"# c #A8A198",
"$ c #BABABA",
"% c #C0BDBC",
"& c #B7C5B6",
"* c #DCD9D0",
"= c #9AE298",
"- c none",
/* pixels */
"---------+ooooo -+ooo ----------",
"---------@....$o-@..$o----------",
"---------@XXX@$ --#..o----------",
"---------@XXX@OO -o..% ---------",
"---------@*..X$%oo%X.% ---------",
"------+--@.$$.*...XX.%o@%-------",
"--++++=+-%$OO@XXXXXX.%$..%------",
"--=@@@@@+- O @XXXXXX.#.XX@------",
"--&&&&@@ ++ -@XXXXXX*.XXX@ -----",
"--- OO&+O@%++%XXXXXX.$%XX@O ----",
"---    OO@.@%XXXXXXX.%%$%oO ----",
"------- -@XXXX.@@@XX.%+%oOO ----",
"---------@XXX.%---$*.% -OO -----",
"---------@XXX@----o..% -  ------",
"---------@XXX%$ -+@..% ---------",
"---------@@@@@#o-@@@#% ---------",
"---------- OOOOO--- OO ---------",
"---------- OOOOO - OOO ---------"
};
