/* XPM */
static char *noname[] = {
/* width height ncolors chars_per_pixel */
"32 18 13 1",
/* colors */
"  c #49EB49",
". c #FFEEA0",
"X c #CDBEBB",
"o c #825143",
"O c #31B331",
"+ c #6C8B5E",
"@ c #D0D0CD",
"# c #D9D5D2",
"$ c #BA9C8F",
"% c #ACC0AA",
"& c #307030",
"* c none",
"= c #BBBBBB",
/* pixels */
"*********%$$$$$X*%$$$X**********",
"*********&$$$$o$*&$$o$**********",
"*********&...o+@#*&$$$#*********",
"*********&...o==X*$$$+@*********",
"*********&.$$.o+$$+.$+@*********",
"******%**&$o+$.$$$..$+$&+*******",
"**%%%%  *++==&......$++$$+******",
"** OOOOO%*@=X&......$&$..o******",
"** +++O+X%%X*&.......$...oX*****",
"***X==+%=&+%%+......$o+..o=@****",
"***@XXX==&$o+.......$++o+$=@****",
"*******X#&....$ooo..$+%+$==@****",
"*********&...$+***o.$+@*==@*****",
"*********&...o****$$$+@*@@******",
"*********&...+oX*%o$$+@*********",
"*********&oooo&$*&oo&+@*********",
"**********@=====#**X==@*********",
"**********@=====X*@===@*********"
};
