/* XPM */
static char *noname[] = {
/* width height ncolors chars_per_pixel */
"32 18 7 1",
/* colors */
"  c #CDBEBB",
". c #D0D0CD",
"X c #D9D5D2",
"o c #D8E0C5",
"O c #ACC0AA",
"+ c none",
"@ c #BBBBBB",
/* pixels */
"+++++++++.     X+.   X++++++++++",
"+++++++++O    @.+O  @.++++++++++",
"+++++++++OoooO@+++O   ++++++++++",
"+++++++++OoooO..X+   @X+++++++++",
"+++++++++Oo .o@@   o @X+++++++++",
"++++++o++O @@.o   oo @.O@+++++++",
"++ooooOo+@@..Ooooooo @@..@++++++",
"++OOOOOOo++.XOoooooo O.ooO++++++",
"++@@@@OOX..X+Oooooooo oooOX+++++",
"+++X..O..O .. oooooo @ ooO.+++++",
"+++XXXXXXO.O ooooooo @@@@ .+++++",
"+++++++X+Ooooo.OOOoo @.@ ..+++++",
"+++++++++Oooo.@+++@o @X+..X+++++",
"+++++++++OoooO++++   @X+++++++++",
"+++++++++Oooo @X+.O. @X+++++++++",
"+++++++++OOOOOO.+OOOO@X+++++++++",
"+++++++++++.....+++X..X+++++++++",
"+++++++++++.....X++...X+++++++++"
};
