/* XPM */
static char *noname[] = {
/* width height ncolors chars_per_pixel */
"32 18 17 1",
/* colors */
"  c #ADC5B0",
". c #AFAFB5",
"X c #CCCBC4",
"o c #D5D5D3",
"O c #BFBEC4",
"+ c #E7E2CA",
"@ c #ACA7AD",
"# c #D7D8D7",
"$ c #D2D2D2",
"% c #B5E0B5",
"& c #BCC4BF",
"* c #DDD9CE",
"= c #B1B0A9",
"- c none",
"; c #BBBBBB",
": c #D9CCBE",
"> c #C8C4C1",
/* pixels */
"---------$>>>>>o-$>>>o----------",
"---------.XXXX;>-.XX;>----------",
"---------.+++=;##-@X>>#---------",
"---------.+++=$$#->X>O#---------",
"---------.*X:+;O>>>+>O#---------",
"------X--.X.;:*XXX++>O>.O-------",
"--$$$$%%-O;$$@++++++>O;::&------",
"--%     X-#$o.++++++>@:++=------",
"--%&&&  o$X#-.++++++*X+++=o-----",
"---#$$ $$@>$$>++++++>.>++=$#----",
"---####$$=:=>+++++++>OO;;>$#----",
"-------##.++++:===++>O$O>$$#----",
"---------.+++:O---;*>O#-$$#-----",
"---------.+++=---->X>O#-##------",
"---------.+++>;o-$=:>O#---------",
"---------.====@>-.==@O#---------",
"----------#$$$$$#--o$$#---------",
"----------#$$$$$#-#$$$#---------"
};
