/* XPM */
static char *noname[] = {
/* width height ncolors chars_per_pixel */
"32 18 22 1",
/* colors */
"  c #BEB48C",
". c #7F7754",
"X c #FFEEA0",
"o c #AFA3A4",
"O c #BFBEC4",
"+ c #30C130",
"@ c #1E1318",
"# c #C5C5C9",
"$ c #B2B0A9",
"% c #D7D8D7",
"& c #D2D2D2",
"* c #37364A",
"= c #4B8F4C",
"- c #817C6A",
"; c #504D43",
": c none",
"> c #B1937D",
", c #8E8F96",
"< c #697982",
"1 c #BBBBBB",
"2 c #A9CDA9",
"3 c #72C476",
/* pixels */
":::::::::$,,,,,#:$,,,#::::::::::",
":::::::::;>>>>.,:;>>.,::::::::::",
":::::::::;XXX;<&%:*>>,%:::::::::",
":::::::::;XXX;11#:,>>-#:::::::::",
":::::::::;X> X;-,,.X>-#:::::::::",
"::::::2::;>;- X>>>XX>-,;-:::::::",
"::2222+3:-<11*XXXXXX>--  -::::::",
"::++++++2:&1O;XXXXXX>@ XX;::::::",
"::3===+=Ooo#:;XXXXXXX>XXX;O%::::",
":::#11=$1*-$$-XXXXXX>;.XX;1&::::",
":::&###OO; ;.XXXXXXX>--..,1&::::",
":::::::#%;XXXX ;;;XX>-$,,11&::::",
":::::::::;XXX -:::.X>-#:11&:::::",
":::::::::;XXX;::::,>>-#:&&::::::",
":::::::::;XXX..#:$; >-#:::::::::",
":::::::::;;;;;*,:;;;*-#:::::::::",
"::::::::::&11111%:%O11#:::::::::",
"::::::::::&11111#:&111#:::::::::"
};
