/* XPM */
static char *noname[] = {
/* width height ncolors chars_per_pixel */
"32 18 17 1",
/* colors */
"  c #D6D6D5",
". c #BABAB9",
"X c #98959E",
"o c #C4C5C5",
"O c #54555A",
"+ c #D2D2D2",
"@ c #CDCECD",
"# c #272333",
"$ c #AFBFAB",
"% c #FEED9F",
"& c #A6A498",
"* c #C39D9A",
"= c #D0A8A0",
"- c #6EC16D",
"; c #9AE298",
": c none",
"> c #8B8793",
/* pixels */
":::::::::$XXXXXo:$XXXo::::::::::",
":::::::::O&&&&OX:O&&OX::::::::::",
":::::::::O%%%OO+ :#&&> :::::::::",
":::::::::O%%%O..o:>&&>o:::::::::",
":::::::::O%&=%O>XX>%&>o:::::::::",
"::::::;::O&OO=%&&&%%&>XO>:::::::",
"::;;;;-;:>O..#%%%%%%&>O=*>::::::",
"::------;:+.oO%%%%%%&#=%%O::::::",
"::--OO-Oo&&o:O%%%%%%%&%%%Oo ::::",
":::o..-$.#>$$>%%%%%%&O>%%O.+::::",
":::@ooo..O=O>%%%%%%%&>>O>>.+::::",
":::::::o O%%%%*OOO%%&>$>>..+::::",
":::::::::O%%%*>:::O%&>o:..@:::::",
":::::::::O%%%O::::>&&>o:++::::::",
":::::::::O%%%>Oo:$O=&>o:::::::::",
":::::::::OOOOO#X:OOO#>o:::::::::",
"::::::::::+..... : o..o:::::::::",
"::::::::::+.....o:+...o:::::::::"
};
