/* XPM */
static char *noname[] = {
/* width height ncolors chars_per_pixel */
"32 18 15 1",
/* colors */
"  c #D6D6D5",
". c #BABAB9",
"X c #E7E2CA",
"o c #C4C5C5",
"O c #DDD9D0",
"+ c #D2D2D2",
"@ c #CDCECD",
"# c #AFBFAB",
"$ c #B7C5B6",
"% c #A6A498",
"& c #DBCFCC",
"* c #9AE298",
"= c #C0ACAD",
"- c none",
"; c #CDC8C3",
/* pixels */
"---------@ooooo -@ooo ----------",
"---------#;;;;.o-#;;.o----------",
"---------#XXX#. --%;;o----------",
"---------#XXX=++ -o;;o ---------",
"---------#O;;X..oo.X;o ---------",
"------@--#;..&O;;;XX;oo#.-------",
"--++++*@-..++#XXXXXX;o.&;.------",
"--*#####@- + #XXXXXX;%&XX=------",
"--$$$$#$ @@ -#XXXXXXO;XXX= -----",
"--- ++$@+#.@@.XXXXXX;..XX#+ ----",
"---    ++#;=.XXXXXXX;o...o+ ----",
"------- -#XXXX;===XX;o@oo++ ----",
"---------#XXX;.---.O;o -++ -----",
"---------#XXX=----o;;o -  ------",
"---------#XXX.. -@=&;o ---------",
"---------#====%o-#==%o ---------",
"---------- +++++--- ++ ---------",
"---------- +++++ - +++ ---------"
};
