/* XPM */
static char *magick[] = {
/* columns rows colors chars-per-pixel */
"48 34 7 1",
"  c Gray0",
". c none",
"y c #ffee00",
"+ c #008000",
"# c #00ff00",
"* c #00c000",
": c #bbbbbb",
/* pixels */
".............. . . . . ... . . .................",
"...............y.y.y.y.....y.y. ................",
".............. .y.y. ....... .y.................",
"...............y.y.y.:.:.....y. .:..............",
".............. .y.y. .:.:... .y.:...............",
"...............y.y.y. .:... .y. .:..............",
".............. . . .y. . . .y.y.:...............",
".........#.....y.:. .y.y.y.y.y. .:. ............",
"..........#... .:.:. .y.y.y.y.y.:. .y...........",
"...#.#.#.#.#.....:.:.y.y.y.y.y. . .y.y..........",
"....*.*.*.*.#...:.:. .y.y.y.y.y. .y.y. .........",
"...#.+.+.#.+.....:...y.y.y.y.y.y.y.y.y.:........",
"......:.:.+.:. ..... .y.y.y.y.y. .y.y. .:.......",
".....:.:.+.:.:.y... .y.y.y.y.y. . .y.y.:........",
"......:.:.:.:. . . .y.y.y.y.y.y.:. .y.:.:.......",
"...........:...y.y.y.y.y.y.y.y. .:. .:.:........",
".............. .y.y.y. . . .y.y.:...:.:.:.......",
"...............y.y.y. ..... .y. .:...:.:........",
".............. .y.y. ....... .y.:...:.:.........",
"...............y.y.y.........y. .:..............",
".............. .y.y. ....... .y.:...............",
"...............y.y.y.y.....y.y. .:..............",
".............. . . . . ... . . .:...............",
".................:.:.:.:.....:.:.:..............",
"................:.:.:.:.:... .:.:...............",
"....... . . .....:.:.:. . ...:.:.:... ..........",
"............................ ...................",
"......... ..... ..... ........... ... . ........",
"................ ..... ..... ..... .............",
"......... ....... ..... ........... . ..........",
"............ ........... ... . .................",
"......... ....... ....... ......... . ..........",
"................ ........... ..... .............",
"......... ..... ..... . ......... ..... ........",
};
