#define mjoelner64_width 64
#define mjoelner64_height 75
static char mjoelner64_bits[] = {
   0x00, 0x00, 0x00, 0x00, 0x00, 0x00, 0x00, 0x00, 0x00, 0x00, 0x00, 0x00,
   0x00, 0x00, 0x00, 0x00, 0x00, 0x00, 0x00, 0x80, 0x01, 0x00, 0x00, 0x00,
   0x00, 0x00, 0x00, 0xf0, 0x07, 0x00, 0x00, 0x00, 0x00, 0x00, 0x00, 0x7c,
   0x1c, 0x00, 0x00, 0x00, 0x00, 0x00, 0x80, 0x07, 0x18, 0x00, 0x00, 0x00,
   0x00, 0x00, 0xf0, 0x43, 0x0c, 0x00, 0x00, 0x00, 0x00, 0x00, 0x7e, 0x70,
   0x0e, 0x00, 0x00, 0x00, 0x00, 0x80, 0x1f, 0x70, 0x06, 0x00, 0x00, 0x00,
   0x00, 0xe0, 0x85, 0x01, 0x06, 0x00, 0x00, 0x00, 0x00, 0xf8, 0xf1, 0x01,
   0x07, 0x00, 0x00, 0x00, 0x00, 0xfe, 0xfc, 0x01, 0x03, 0x00, 0x00, 0x00,
   0x00, 0xef, 0x8c, 0x3c, 0x03, 0x00, 0x00, 0x00, 0x80, 0xc2, 0x4c, 0x98,
   0x01, 0x00, 0x00, 0x00, 0xc0, 0xe0, 0x6c, 0x9c, 0x01, 0x00, 0x00, 0x00,
   0xe0, 0x8c, 0xfc, 0x8e, 0x01, 0x00, 0x00, 0x00, 0xe0, 0x0c, 0xfc, 0xce,
   0x01, 0x00, 0x00, 0x00, 0xe0, 0x0c, 0xf8, 0xcf, 0x03, 0x00, 0x00, 0x00,
   0xe0, 0x0c, 0xf8, 0xe7, 0x03, 0x00, 0x00, 0x00, 0xf0, 0x09, 0x99, 0xe7,
   0x07, 0x00, 0x00, 0x00, 0xf0, 0x03, 0x31, 0x73, 0x0e, 0x00, 0x00, 0x00,
   0xf0, 0x87, 0x33, 0x33, 0x0c, 0x00, 0x00, 0x00, 0xf0, 0xcf, 0xb3, 0x19,
   0x18, 0x00, 0x00, 0x00, 0xf0, 0xff, 0xf3, 0x19, 0x31, 0x00, 0x00, 0x00,
   0xf0, 0xff, 0xf3, 0x19, 0x67, 0x00, 0x00, 0x00, 0xf0, 0xff, 0xf3, 0x1c,
   0xee, 0x00, 0x00, 0x00, 0xf0, 0xff, 0xf7, 0x3c, 0xce, 0x01, 0x00, 0x00,
   0xf0, 0xff, 0x67, 0x26, 0x80, 0x03, 0x00, 0x00, 0xf0, 0xff, 0x27, 0x07,
   0x83, 0x07, 0x00, 0x00, 0xf0, 0xff, 0x83, 0x0f, 0x8f, 0x0f, 0x00, 0x00,
   0xf0, 0xff, 0xc7, 0x1f, 0x9e, 0xcf, 0x07, 0x00, 0xf0, 0xff, 0xef, 0xff,
   0x3c, 0xff, 0x0f, 0x00, 0xf0, 0x7f, 0xf8, 0xff, 0xff, 0x3f, 0x18, 0x00,
   0xf0, 0x0f, 0xfc, 0xe3, 0xff, 0x3f, 0xf8, 0x00, 0xf0, 0x8f, 0xfe, 0x00,
   0xfc, 0x1f, 0xf0, 0x03, 0xe0, 0x87, 0x1f, 0x00, 0xe0, 0x0f, 0x70, 0x06,
   0xe0, 0xe0, 0x0f, 0x00, 0x80, 0x8f, 0x30, 0x0c, 0xe0, 0xf0, 0x07, 0x00,
   0x00, 0xc7, 0x30, 0x08, 0xc0, 0xfa, 0x01, 0x00, 0x80, 0xe3, 0x38, 0x08,
   0x80, 0x7f, 0x00, 0x00, 0x80, 0xf1, 0x7c, 0x0c, 0x00, 0x1f, 0x00, 0x00,
   0x80, 0xff, 0xff, 0x07, 0x00, 0x0e, 0x00, 0x00, 0x80, 0xff, 0x9f, 0x03,
   0x00, 0x00, 0x00, 0x00, 0x80, 0xff, 0x0f, 0x00, 0x00, 0x00, 0x00, 0x00,
   0x00, 0xff, 0x03, 0x00, 0x00, 0x00, 0x00, 0x00, 0x00, 0xfe, 0x01, 0x00,
   0x00, 0x00, 0x00, 0x00, 0x00, 0xf0, 0x00, 0x00, 0x00, 0x00, 0x00, 0x00,
   0x00, 0x00, 0x00, 0x00, 0x00, 0x00, 0x00, 0x00, 0x00, 0x00, 0x00, 0x00,
   0x00, 0x00, 0x00, 0x00, 0x00, 0x00, 0x00, 0x00, 0x00, 0x00, 0x00, 0x00,
   0x00, 0x00, 0x00, 0x00, 0x00, 0x00, 0x00, 0x00, 0x00, 0x00, 0x00, 0x00,
   0x00, 0x00, 0x00, 0x00, 0x00, 0x00, 0x00, 0x00, 0x00, 0x00, 0x00, 0x00,
   0x00, 0x00, 0x00, 0x00, 0x00, 0x00, 0x00, 0x00, 0x00, 0x00, 0x00, 0x00,
   0x00, 0x00, 0x00, 0x00, 0x00, 0x00, 0x00, 0x00, 0x00, 0x00, 0x00, 0x00,
   0x00, 0x00, 0x00, 0x00, 0x00, 0x00, 0x00, 0x00, 0x00, 0x00, 0x00, 0x00,
   0x00, 0x00, 0x28, 0x00, 0x00, 0x00, 0x00, 0x00, 0x00, 0x00, 0x48, 0x00,
   0x20, 0x00, 0x00, 0x00, 0x00, 0x00, 0xb3, 0xd6, 0x76, 0x01, 0x00, 0x00,
   0x00, 0x00, 0x08, 0x61, 0x08, 0x03, 0x00, 0x00, 0x00, 0x00, 0x96, 0x95,
   0x14, 0x00, 0x00, 0x00, 0x00, 0x00, 0x53, 0x94, 0x12, 0x00, 0x00, 0x00,
   0x00, 0x00, 0x60, 0x30, 0x08, 0x00, 0x00, 0x00, 0x00, 0x00, 0x89, 0xc2,
   0x02, 0x00, 0x00, 0x00, 0x00, 0x00, 0x90, 0x56, 0x00, 0x00, 0x00, 0x00,
   0x00, 0x00, 0xd0, 0x28, 0x00, 0x00, 0x00, 0x00, 0x00, 0x00, 0x20, 0x68,
   0x03, 0x00, 0x00, 0x00, 0x00, 0x00, 0x80, 0x86, 0x00, 0x00, 0x00, 0x00,
   0x00, 0x00, 0x00, 0x14, 0x01, 0x00, 0x00, 0x00, 0x00, 0x00, 0x00, 0x18,
   0x01, 0x00, 0x00, 0x00, 0x00, 0x00, 0x00, 0x60, 0x00, 0x00, 0x00, 0x00,
   0x00, 0x00, 0x00, 0x00, 0x00, 0x00, 0x00, 0x00, 0x00, 0x00, 0x00, 0x00,
   0x00, 0x00, 0x00, 0x00, 0x00, 0x00, 0x00, 0x00, 0x00, 0x00, 0x00, 0x00};
