#define mjolner_width 48
#define mjolner_height 56
static char mjolner_bits[] = {
   0x00, 0x00, 0x00, 0x00, 0x00, 0x00, 0x00, 0x00, 0x00, 0x00, 0x00, 0x00,
   0x00, 0x00, 0xc0, 0x03, 0x00, 0x00, 0x00, 0x00, 0x70, 0x0c, 0x00, 0x00,
   0x00, 0x00, 0x0e, 0x04, 0x00, 0x00, 0x00, 0xc0, 0x01, 0x06, 0x00, 0x00,
   0x00, 0x70, 0x08, 0x02, 0x00, 0x00, 0x00, 0x1c, 0x43, 0x02, 0x00, 0x00,
   0x80, 0xcf, 0x07, 0x01, 0x00, 0x00, 0xc0, 0x4d, 0x72, 0x01, 0x00, 0x00,
   0x20, 0x5c, 0xb1, 0x00, 0x00, 0x00, 0xb0, 0xd8, 0xab, 0x00, 0x00, 0x00,
   0x30, 0x41, 0xd9, 0x01, 0x00, 0x00, 0x30, 0x81, 0xd3, 0x01, 0x00, 0x00,
   0x70, 0x91, 0xcf, 0x03, 0x00, 0x00, 0xf8, 0x90, 0x6e, 0x06, 0x00, 0x00,
   0xf8, 0x99, 0x33, 0x04, 0x00, 0x00, 0xf8, 0x9f, 0x17, 0x09, 0x00, 0x00,
   0xf8, 0xbf, 0x16, 0x13, 0x00, 0x00, 0xf8, 0x9f, 0x7b, 0x26, 0x00, 0x00,
   0xf8, 0xbf, 0x0b, 0x60, 0x00, 0x00, 0xf8, 0xbf, 0x1d, 0x81, 0x00, 0x00,
   0xf8, 0x3f, 0x1e, 0xe6, 0x01, 0x00, 0xf8, 0x7f, 0xfe, 0xdc, 0x7f, 0x00,
   0xf8, 0xc7, 0xff, 0xff, 0xc3, 0x00, 0xf0, 0xe1, 0x03, 0xfe, 0x83, 0x03,
   0xf0, 0xf8, 0x00, 0xf8, 0x81, 0x0d, 0x30, 0x7c, 0x00, 0xe0, 0x89, 0x10,
   0x30, 0x1f, 0x00, 0xc0, 0xcc, 0x18, 0xe0, 0x07, 0x00, 0x60, 0xff, 0x10,
   0xc0, 0x01, 0x00, 0xe0, 0xff, 0x0f, 0x00, 0x00, 0x00, 0xe0, 0x7f, 0x05,
   0x00, 0x00, 0x00, 0xc0, 0x3f, 0x00, 0x00, 0x00, 0x00, 0x80, 0x0f, 0x00,
   0x00, 0x00, 0x00, 0x00, 0x00, 0x00, 0x00, 0x00, 0x00, 0x00, 0x00, 0x00,
   0x00, 0x00, 0x00, 0x00, 0x00, 0x00, 0x00, 0x00, 0x00, 0x00, 0x00, 0x00,
   0x00, 0x00, 0x00, 0x00, 0x00, 0x00, 0x00, 0x00, 0x00, 0x00, 0x00, 0x00,
   0x00, 0x00, 0x00, 0x00, 0x00, 0x00, 0x00, 0x00, 0x00, 0x00, 0x00, 0x00,
   0x00, 0x00, 0x00, 0x00, 0x00, 0x00, 0x00, 0x40, 0x01, 0x00, 0x00, 0x00,
   0x00, 0x90, 0xaa, 0x5a, 0x00, 0x00, 0x00, 0x40, 0x44, 0x44, 0x00, 0x00,
   0x00, 0xb0, 0xaa, 0x0a, 0x00, 0x00, 0x00, 0x00, 0x21, 0x00, 0x00, 0x00,
   0x00, 0x50, 0xca, 0x02, 0x00, 0x00, 0x00, 0x80, 0x2a, 0x00, 0x00, 0x00,
   0x00, 0x00, 0x51, 0x01, 0x00, 0x00, 0x00, 0x00, 0x8a, 0x00, 0x00, 0x00,
   0x00, 0x00, 0x30, 0x01, 0x00, 0x00, 0x00, 0x00, 0x40, 0x00, 0x00, 0x00,
   0x00, 0x00, 0x00, 0x00, 0x00, 0x00, 0x00, 0x00, 0x00, 0x00, 0x00, 0x00};
